<svg width="34" height="15" viewBox="0 0 34 15" fill="none" xmlns="http://www.w3.org/2000/svg">
<path fill-rule="evenodd" clip-rule="evenodd" d="M6.70567 2.12422C6.32197 2.59342 5.70804 2.96349 5.09411 2.91062C5.01736 2.27621 5.31793 1.60216 5.66967 1.18583C6.05337 0.703414 6.72486 0.359777 7.26845 0.333344C7.3324 0.994184 7.08299 1.64181 6.70567 2.12422ZM7.26111 3.03618C6.72024 3.00401 6.22673 3.20426 5.82811 3.36601C5.57158 3.4701 5.35436 3.55824 5.18909 3.55824C5.00363 3.55824 4.77744 3.46539 4.52348 3.36113L4.52347 3.36113L4.52346 3.36113C4.19068 3.22452 3.81022 3.06833 3.41125 3.07583C2.49675 3.08904 1.6462 3.62432 1.17935 4.47681C0.220086 6.18177 0.929944 8.70618 1.85724 10.0939C2.31129 10.7812 2.85487 11.5346 3.57113 11.5081C3.88623 11.4959 4.1129 11.3965 4.34749 11.2936C4.61756 11.1752 4.89811 11.0522 5.33618 11.0522C5.75906 11.0522 6.02734 11.172 6.28488 11.287C6.52976 11.3963 6.76492 11.5014 7.11402 11.4949C7.85585 11.4817 8.3227 10.8077 8.77675 10.1204C9.26674 9.38275 9.48207 8.66287 9.51475 8.55361L9.51858 8.54097C9.5178 8.54016 9.51175 8.5373 9.50107 8.53225C9.33726 8.45476 8.08529 7.86249 8.07329 6.27429C8.06123 4.94123 9.06632 4.26582 9.22453 4.1595C9.23416 4.15302 9.24066 4.14866 9.24359 4.14639C8.60408 3.16834 7.60644 3.06261 7.26111 3.03618ZM12.3971 11.4222V1.11974H16.1383C18.0696 1.11974 19.419 2.49428 19.419 4.50324C19.419 6.51219 18.044 7.89995 16.0871 7.89995H13.9448V11.4222H12.3971ZM13.944 2.46785H15.7282C17.0712 2.46785 17.8386 3.20799 17.8386 4.50985C17.8386 5.8117 17.0712 6.55845 15.7219 6.55845H13.944V2.46785ZM24.5268 10.1865C24.1175 10.9927 23.2158 11.5015 22.2437 11.5015C20.8048 11.5015 19.8008 10.616 19.8008 9.28111C19.8008 7.95943 20.7728 7.19946 22.5699 7.08712L24.5012 6.96817V6.39985C24.5012 5.56058 23.9704 5.1046 23.0239 5.1046C22.2437 5.1046 21.6746 5.52093 21.5594 6.15534H20.1653C20.2101 4.82044 21.4251 3.84901 23.0687 3.84901C24.8401 3.84901 25.9913 4.80723 25.9913 6.29411V11.4222H24.5588V10.1865H24.5268ZM22.6606 10.279C21.8356 10.279 21.3112 9.86926 21.3112 9.24147C21.3112 8.59384 21.8164 8.21717 22.7821 8.15769L24.5024 8.04535V8.62689C24.5024 9.59171 23.7094 10.279 22.6606 10.279ZM30.7455 11.8253C30.1252 13.6294 29.4153 14.2242 27.9061 14.2242C27.7909 14.2242 27.4072 14.211 27.3177 14.1845V12.9488C27.4136 12.962 27.6502 12.9752 27.7718 12.9752C28.456 12.9752 28.8397 12.6778 29.0764 11.9046L29.2171 11.4487L26.5951 3.94814H28.213L30.0356 10.0345H30.0676L31.8902 3.94814H33.4634L30.7455 11.8253Z" fill="black"/>
</svg>
