<svg width="96" height="40" viewBox="0 0 96 40" fill="none" xmlns="http://www.w3.org/2000/svg">
<mask id="mask0_29_9213" style="mask-type:alpha" maskUnits="userSpaceOnUse" x="0" y="0" width="96" height="40">
<rect width="96" height="40" fill="#F0F0F0"/>
</mask>
<g mask="url(#mask0_29_9213)">
<path d="M95.9407 11.5882C94.6354 4.09286 72.1143 1.75378 45.6367 6.36356C34.517 8.30052 24.4765 11.1574 16.6574 14.3715C17.8585 14.3978 18.7493 14.6732 19.2905 15.213C19.7137 15.6367 19.9274 16.2181 19.9274 16.9425V17.686H17.3311V17.0295C17.3311 16.4825 17.0031 16.1435 16.4221 16.1435C15.9339 16.1435 15.6332 16.3639 15.5361 16.7981C15.5036 16.9697 15.5072 17.1462 15.5466 17.3164C15.8244 18.452 19.6797 19.1572 20.099 21.2529C20.154 21.5226 20.2286 22.0997 20.111 22.9255C19.8705 24.6157 18.3854 25.2679 16.4948 25.2679C13.8559 25.2679 12.7839 24.018 12.7839 22.2948L12.7858 21.4796H15.5691L15.5706 22.4952C15.5706 23.0661 15.9856 23.3812 16.5507 23.3812C17.0863 23.3812 17.399 23.1655 17.507 22.7247C17.5572 22.5219 17.5792 22.2231 17.4879 21.9945C16.9729 20.7026 13.373 20.0992 12.9298 18.0102C12.8308 17.5406 12.8227 17.1409 12.9049 16.6355C12.9471 16.385 13.0247 16.1417 13.1354 15.913C4.46233 19.9691 -0.611247 24.4321 0.0591097 28.2855C1.36588 35.7818 23.8864 38.1185 50.3636 33.5087C62.0026 31.4828 72.4662 28.45 80.4297 25.0513C80.3145 25.0571 80.2026 25.0695 80.0831 25.0695C78.2709 25.0695 76.6529 24.3905 76.485 22.5382C76.4554 22.2011 76.4501 22.0601 76.4492 21.8678L76.4501 17.6095C76.4501 17.4259 76.4717 17.1036 76.4922 16.9372C76.7069 15.1471 78.1222 14.4088 80.084 14.4088C81.6021 14.4088 83.4635 14.8444 83.6682 16.9387C83.6954 17.2016 83.6926 17.4823 83.6921 17.5746V17.9767H81.07V17.3766C81.07 17.3637 81.0661 17.1395 81.0374 16.9994C80.9944 16.7857 80.8122 16.2903 80.0654 16.2903C79.3276 16.2903 79.1364 16.7866 79.0885 16.9999C79.0613 17.117 79.0484 17.2853 79.0484 17.4718V22.0997C79.046 22.2604 79.0541 22.3861 79.0704 22.4784C79.0833 22.5511 79.2157 23.1889 80.0745 23.1889C80.927 23.1889 81.059 22.5511 81.0709 22.4784C81.0934 22.3532 81.0963 22.204 81.0953 22.0997V20.6658H80.0635V19.1214H83.7122V21.8688C83.7112 22.0557 83.7084 22.1939 83.6768 22.5382C83.6328 23.024 83.4798 23.4352 83.2398 23.7866C91.6852 19.7764 96.6024 15.3856 95.9407 11.5882ZM27.2851 24.8725L25.9568 15.8471H25.909L24.5467 24.8725H21.7472L23.6301 14.6799H28.1978L30.0693 24.8725H27.2851ZM40.7505 24.8725L40.6889 16.0216H40.6439L38.9967 24.8725H36.3693L34.7302 16.0216H34.6834L34.6236 24.8725H32.0201L32.2458 14.6799H36.4334L37.6526 22.2513H37.7124L38.935 14.6799H43.1207L43.3454 24.8725H40.7505ZM53.0106 22.8973C52.7304 24.8715 50.7963 25.2168 49.4293 25.2168C47.1596 25.2168 45.7557 24.2466 45.7557 22.2723L45.7572 21.4672H48.507L48.5089 22.4703C48.5089 23.0149 48.8928 23.3482 49.4857 23.3482C50.0146 23.3482 50.3244 23.1359 50.432 22.6998C50.4817 22.4966 50.5023 22.2001 50.4143 21.9764C49.9075 20.7088 46.3357 20.0877 45.9016 18.0312C45.8021 17.565 45.7949 17.1691 45.8767 16.669C46.1789 14.8047 47.9681 14.4174 49.4083 14.4174C50.6964 14.4174 51.634 14.6986 52.1963 15.2609C52.6157 15.6807 52.828 16.2568 52.828 16.9736V17.7089H50.2565V17.0601C50.2565 16.5045 49.9118 16.1832 49.3576 16.1832C48.8661 16.1832 48.5687 16.4017 48.4711 16.8316C48.4395 17.0014 48.4437 17.176 48.4835 17.3441C48.759 18.4745 52.5803 19.1654 52.9987 21.2415C53.0527 21.5064 53.1268 22.0749 53.0106 22.8973ZM62.5343 21.9711C62.5381 22.1624 62.5194 22.5444 62.5089 22.6424C62.3521 24.3217 61.151 25.1752 58.9482 25.1752C56.7368 25.1752 55.5347 24.3217 55.3788 22.6424C55.3612 22.4197 55.3527 22.1964 55.3535 21.973V14.6775H57.9842V22.203C57.9814 22.3713 57.99 22.4956 58.0067 22.5822C58.0392 22.7495 58.2056 23.2927 58.9482 23.2927C59.6884 23.2927 59.8547 22.7491 59.8897 22.5841C59.9045 22.4952 59.9136 22.3646 59.9136 22.2025V14.6775H62.5343V21.9711ZM73.8686 24.7687H70.208L67.7508 16.6953H67.7097L67.846 24.7687H65.2946V14.6799H69.1087L71.3799 22.4354H71.433L71.2986 14.6799H73.8686V24.7687Z" fill="black"/>
</g>
</svg>
