<svg width="140" height="56" viewBox="0 0 140 56" fill="none" xmlns="http://www.w3.org/2000/svg">
<g id="Logo">
<mask id="mask0_29_7033" style="mask-type:alpha" maskUnits="userSpaceOnUse" x="0" y="0" width="140" height="56">
<rect id="Bounding box" width="140" height="56" fill="#F0F0F0"/>
</mask>
<g mask="url(#mask0_29_7033)">
<path id="Vector" d="M89.9051 32.691C90.501 32.2677 91.1462 31.7705 91.7462 31.2979C96.3693 27.5993 99.9035 23.5433 100.602 21.2995C100.623 21.2255 100.684 21.0159 100.684 20.8557C100.684 20.6255 100.573 20.4611 100.364 20.4611C98.2392 20.4611 91.4297 27.2418 89.7818 32.7362V32.7567L89.9051 32.691ZM72.8302 31.9102C79.2698 27.0445 86.034 19.9639 86.7573 17.0585C86.7778 16.964 86.7983 16.8695 86.7983 16.7832C86.7901 16.59 86.6833 16.4215 86.4408 16.4215C84.4025 16.4174 74.9671 25.1213 72.8302 31.9102ZM33.2969 36.184C31.5956 35.0046 28.9696 33.9731 26.619 33.9731C24.3423 33.9731 22.8835 34.869 22.8835 35.9991C22.8835 37.2936 24.6506 37.8607 26.6313 37.8607C29.0313 37.8607 31.2093 37.2155 33.2969 36.184ZM53.0183 20.9296C57.6333 19.4502 62.014 16.3558 65.2811 13.1257C68.2974 10.134 70.7138 6.58751 70.7138 4.82865C70.7138 4.42592 70.4261 4.18757 70.0604 4.18757C68.6632 4.18757 66.0126 6.04095 62.4455 9.6162C59.6675 12.3942 56.4333 16.1955 53.0183 20.9296ZM121.733 32.0869C117.767 36.032 105.414 46.8769 102.147 56L98.0994 54.9562C99.4227 51.1755 103.409 45.2989 107.851 40.7661C106.906 41.1195 105.92 41.2552 105.131 41.2552C103.931 41.2552 102.998 40.8935 102.435 40.2113C102.032 39.7223 101.831 39.0812 101.831 38.321C101.831 38.1566 101.843 37.9881 101.864 37.8032C97.9638 40.1785 94.8283 41.251 91.7544 41.251C89.3627 41.251 87.349 40.2072 86.4162 38.3826C82.545 40.3018 78.83 41.251 75.7274 41.251C72.8384 41.251 70.5083 40.1045 69.4399 38.021C65.5276 40.2196 62.1948 41.251 59.5442 41.251C58.0196 41.251 56.8073 40.8278 56.0347 40.0264C55.4635 39.4347 55.1635 38.6415 55.1183 37.7251C52.6074 39.3812 48.9417 41.251 45.1857 41.251C41.3392 41.251 38.7625 39.9319 36.7612 38.621C33.5681 40.3881 30.0545 41.251 26.3437 41.251C23.5287 41.251 19 40.084 19 36.0608C18.9959 32.8143 22.3821 30.6116 26.919 30.6116C30.7737 30.6116 34.4928 32.2348 36.8229 33.9238C39.0338 32.1609 41.3556 29.6952 44.0966 26.2144C43.4926 26.2473 42.9049 26.2637 42.3255 26.2637C37.0818 26.2637 32.701 24.7186 30.3093 22.0104C29.0683 20.6337 28.3902 18.8379 28.4066 16.9845C28.4066 9.69017 37.6242 4.0273 45.6829 3.19307C46.2171 4.40126 46.6897 5.33001 47.1829 6.43957C39.2228 7.3642 32.586 12.0778 32.586 16.6845C32.586 19.7132 35.9886 22.7542 43.2131 22.7542C44.4501 22.7542 45.6952 22.6351 46.9158 22.4666C53.2978 13.6682 63.0661 0 71.4741 0C73.9603 0 75.263 1.51229 75.263 3.53416C75.263 7.69707 71.6836 12.1764 69.3495 14.5106C65.6879 18.1927 59.0593 23.6707 49.8047 25.4829C46.2048 30.4965 43.246 33.817 40.2872 36.2169C42.0789 37.1827 43.7638 37.7785 45.7692 37.7785C50.7499 37.7785 55.5827 33.2211 59.3552 29.3541L59.4867 29.2267L62.4291 31.528L62.2935 31.6883C60.625 33.5992 59.0881 35.6252 59.0881 36.7553C59.0881 37.6142 59.8154 37.7826 60.4401 37.7826C62.3469 37.7826 65.2893 36.5457 68.7495 34.4211V34.3923C69.1317 25.8405 80.8026 12.7641 87.8832 12.7641C89.8846 12.7641 91.0311 13.7586 91.0311 15.5051C91.0311 19.7913 83.6381 28.9801 72.8795 36.0156V36.0197C73.4343 37.2155 74.7164 37.795 76.8904 37.795C78.5876 37.795 81.9081 37.0388 85.8532 34.9759C86.3093 30.5458 88.8202 25.787 92.0051 22.3967C95.1981 19.0023 98.7816 16.7955 101.876 16.7955C103.787 16.7955 104.913 17.8434 104.913 19.4954C104.913 23.2351 100.573 29.6253 90.1147 36.3197C90.5791 37.2155 91.4749 37.7826 92.8722 37.7826C95.9872 37.7826 101.473 34.4581 105.747 30.3732L108.817 32.7567C107.506 34.3471 106.179 36.0936 106.224 37.1005C106.236 37.4251 106.454 37.647 106.972 37.647C110.124 37.647 115.08 33.4882 118.799 29.8184L121.733 32.0869ZM64.714 23.5145C66.1071 23.5145 67.229 24.6446 67.229 26.0336C67.229 27.4267 66.103 28.5527 64.7098 28.5527C63.3167 28.5527 62.1907 27.4267 62.1907 26.0336C62.1907 24.6405 63.3208 23.5145 64.714 23.5145Z" fill="black"/>
</g>
</g>
</svg>
