<svg width="140" height="56" viewBox="0 0 140 56" fill="none" xmlns="http://www.w3.org/2000/svg">
<g id="Logo">
<mask id="mask0_29_7013" style="mask-type:alpha" maskUnits="userSpaceOnUse" x="0" y="0" width="140" height="56">
<rect id="Bounding box" width="140" height="56" fill="#F0F0F0"/>
</mask>
<g mask="url(#mask0_29_7013)">
<g id="Group">
<path id="Vector" fill-rule="evenodd" clip-rule="evenodd" d="M14.117 51.4015C15.2088 50.9801 16.2018 50.2767 16.8363 49.4177C17.4709 48.5594 17.7463 47.5431 18.3532 46.488C18.9608 45.4321 19.8999 44.3351 20.5809 42.9956C21.2974 41.5712 21.689 40.0055 21.7273 38.4115C21.77 36.7472 21.431 35.0014 20.9483 33.5848C20.4649 32.1668 19.8371 31.0787 19.2182 30.2593C18.6001 29.4384 17.9917 28.8862 17.2973 28.4678C18.1597 27.9734 18.791 27.1572 19.0528 26.1982C19.326 25.1992 19.2242 23.9952 19.0214 22.9565C18.8186 21.9178 18.5163 21.0461 18.0785 20.2446L15.6794 19.0705C16.769 18.2758 17.7957 17.3958 18.8388 16.4447C19.882 15.4936 20.9408 14.4721 21.5178 12.8894C22.0947 11.3067 22.1883 9.16356 21.5373 7.48734C20.8855 5.81111 19.4891 4.60184 17.9334 4.1768C16.3776 3.7525 14.6632 4.11319 13.3911 5.03062C14.5263 4.97076 15.6787 5.33593 16.7024 6.16956C17.7268 7.00243 18.6226 8.30525 18.7101 9.49058C18.7977 10.6767 18.0756 11.7475 17.23 12.4397C16.3844 13.1319 15.4138 13.4469 14.4342 13.0743C13.454 12.7016 12.4647 11.6427 11.5001 10.5435C10.5348 9.44418 9.5949 8.30525 8.95583 7.37734C8.31677 6.44943 7.97704 5.73105 7.75628 4.9745C7.3073 5.98772 7.17035 7.12815 7.43376 8.40103C7.69642 9.67392 8.36017 11.0785 9.1025 12.1112C9.84483 13.1431 10.6657 13.8016 11.3826 14.5656C12.0995 15.3297 12.7131 16.1992 12.7206 17.1017C12.7281 18.0049 12.1294 18.9411 11.2853 19.3085C10.442 19.6759 9.35244 19.4738 8.83236 18.846C8.31228 18.2189 8.36167 17.1675 8.14466 16.069C7.9269 14.9712 7.44274 13.8263 6.59415 12.8535C5.74481 11.88 4.5303 11.0785 3.32551 10.8114C2.75641 10.6825 2.16669 10.6739 1.59407 10.786C1.02144 10.8981 0.478514 11.1285 0 11.4624C1.4869 11.4714 3.01047 12.0491 3.97131 13.0077C4.93214 13.9662 5.3295 15.305 5.44698 16.3766C5.56372 17.4482 5.40059 18.2519 5.04364 18.8086C4.6867 19.3646 4.13594 19.6737 3.58667 19.7133C3.03816 19.7537 2.49039 19.5262 2.04664 18.9919C1.60289 18.4576 1.26316 17.6158 1.17111 16.7762C0.532052 17.5858 0.312047 18.7547 0.731104 19.7672C1.15016 20.7797 2.20753 21.6357 3.29857 22.0398C4.38962 22.4432 5.51433 22.3945 6.35394 22.3317C7.19355 22.2688 7.74656 22.1917 8.23446 22.286C8.72236 22.3796 9.14441 22.6445 9.25666 22.9969C9.3689 23.3494 9.17135 23.7871 8.91019 24.0386C8.79313 24.1565 8.64447 24.2382 8.4821 24.2736C8.31973 24.3091 8.15057 24.2968 7.995 24.2384C7.66724 24.1246 7.33723 23.835 7.14267 23.4901C7.04239 24.0288 7.14716 24.638 7.40532 24.9934C7.66275 25.3489 8.07432 25.4506 8.45596 25.5621C8.8376 25.6729 9.1908 25.7941 9.40931 26.0336C9.62782 26.273 9.71163 26.6307 9.65326 26.9577C9.00597 26.8328 8.31677 26.8926 7.7735 27.1418C7.22947 27.391 6.83361 27.8295 6.35918 28.1947C5.88475 28.5584 5.33324 28.8472 5.07058 29.2708C4.80718 29.6936 4.83337 30.2511 4.65527 30.7861C4.47717 31.3212 4.09553 31.836 3.60763 32.3943C3.11898 32.9525 2.52407 33.5549 2.1529 34.1842C1.78099 34.8136 1.63282 35.4698 1.45248 36.079C1.27214 36.6888 1.05961 37.2523 1.32078 37.7963C1.58194 38.3419 2.31678 38.8664 3.00972 39.1583C3.70191 39.4501 4.3522 39.51 4.96582 39.3753C5.54202 39.5826 6.11747 39.7913 6.60163 39.7165C7.08505 39.6417 7.47641 39.2855 7.86703 38.927C8.6161 39.0954 9.36591 39.2615 10.1097 39.2062C10.8536 39.1508 11.5921 38.8717 12.3307 38.5918V35.6831C11.5892 35.8604 10.8476 36.0378 10.1037 36.0737C9.35992 36.1119 8.6131 36.0094 7.86703 35.9061C7.23403 36.3899 6.56199 36.8205 5.85781 37.1932L4.51907 36.2982C5.03691 35.5529 5.55474 34.8076 6.11298 34.1453C6.67123 33.4838 7.26913 32.9054 7.86703 32.3262C7.77649 31.9123 7.83635 31.4708 8.09602 31.0286C8.62358 30.1822 9.7685 29.2693 10.6478 28.8944C11.0855 28.7178 11.4926 28.6789 11.8847 28.747L12.6099 27.293C12.3412 26.9248 12.2379 26.4526 12.3809 25.8106C12.5238 25.1685 12.9114 24.3574 13.5572 23.7707C14.2015 23.184 15.1032 22.8226 16.0132 22.7627C16.0551 23.5267 16.0177 24.2997 15.9346 24.852C15.8516 25.4042 15.7236 25.735 15.3928 26.1391C15.0621 26.5432 14.53 27.0191 13.9486 27.4052L13.8925 29.3628C14.878 30.076 15.7475 30.9485 16.5243 31.9879C17.301 33.0273 17.9828 34.2336 18.2626 35.5896C18.5425 36.9455 18.4198 38.4526 18.0464 39.7307C17.6722 41.0096 17.0481 42.061 16.3671 42.9373C15.6862 43.8135 14.9483 44.5147 14.1162 45.0797V51.4015H14.117ZM36.6592 37.1932L37.8872 35.7946V31.1521L35.0967 28.2995H23.8256V31.2082H25.4996V43.9056H23.8256V46.8143H35.0967L38.0541 43.8495V38.5918L36.6592 37.1932ZM35.2082 42.6754L33.7019 43.9063H28.7353V38.5918H33.7019L35.2082 39.7105V42.6754ZM35.2082 34.7881L33.7019 36.0191H28.7353V31.2643H33.9249L35.2082 32.383V34.7881ZM51.725 37.081L49.6051 38.8642L51.0553 41.1091H52.6739V43.9056H49.5489L46.7091 39.5429H44.4162V41.4444H45.8665V43.9056H40.4539V41.4444H41.3466V33.6686H40.4539V31.2082H49.3716L51.725 33.3334V37.081ZM47.9303 33.6694H44.4155V37.0817H47.9303L48.8792 36.3551V34.3975L47.9303 33.6694ZM62.4379 31.2082H56.0772L53.8458 33.4449V41.6674L56.0772 43.9048H62.4379L64.6701 41.6674V33.4449L62.4379 31.2082ZM61.6567 40.6953L60.737 41.6127H57.7789L56.8585 40.6953V34.4177L57.7789 33.501H60.737L61.6574 34.4177V40.6953H61.6567ZM81.3216 41.3329H83.2508V43.9056H76.8347V41.3329H78.1817L75.6068 34.9453L73.0318 41.3329H74.714V43.9056H68.2972V41.3329H69.8911L67.1111 33.7816H65.5075V31.2082H71.5891V33.7816H70.2361L71.6751 37.6923L74.0996 31.2082H77.2246L79.5369 37.6923L80.9782 33.7816H79.736V31.2082H85.8744V33.7816H84.1016L81.3216 41.3329ZM99.0986 43.9056H96.2528L91.2862 36.7457L91.2772 41.3329H92.6811V43.9056H87.0447V41.3329H88.4157L88.4404 33.7816H87.0447V31.2082H91.2308L96.2528 38.7594L96.1959 33.7816H94.6903V31.2082H100.269V33.7816H99.0986V43.9056ZM105.849 41.3329H107.245V43.9056H101.609V41.3329H102.98L103.003 33.7816H101.609V31.2082H107.245V33.7255L105.849 33.7816V41.3329ZM120.86 43.9056H118.014L113.047 36.7457L113.039 41.3329H114.442V43.9056H108.807V41.3329H110.178L110.202 33.7816H108.807V31.2082H112.992L118.014 38.7594V33.7816H116.451V31.2082H122.031V33.7816H120.86V43.9056ZM136.594 31.1521V34.0016L133.749 34.0054V32.383L132.577 31.2643H128.113L126.941 32.383V42.6754L128.058 43.9056H132.632L133.749 42.6754V38.7033H131.741V35.6831H139.05V38.7033H136.594V44.074L133.805 46.8143H126.885L124.095 44.074V31.1521L126.885 28.3002H133.805L136.594 31.1521ZM139.727 46.8285C139.547 46.5189 139.291 46.2613 138.982 46.0809C138.672 45.9023 138.321 45.8079 137.963 45.807C137.605 45.8073 137.253 45.9018 136.944 46.0811C136.634 46.2604 136.376 46.5182 136.198 46.8285C136.021 47.1368 135.925 47.4938 135.925 47.8492C135.925 48.2047 136.021 48.5616 136.198 48.8699C136.468 49.3378 136.913 49.6793 137.435 49.8195C137.957 49.9597 138.513 49.887 138.982 49.6175C139.288 49.4394 139.549 49.1782 139.727 48.8699C139.903 48.5616 140 48.2047 140 47.8492C140 47.4938 139.903 47.1368 139.727 46.8285ZM139.482 48.7367C139.33 48.9986 139.11 49.2201 138.848 49.3713C138.586 49.5224 138.283 49.604 137.983 49.604C137.678 49.6036 137.38 49.5233 137.117 49.371C136.853 49.2188 136.635 49.0001 136.483 48.7368C136.331 48.4735 136.251 48.1748 136.25 47.8708C136.25 47.5667 136.33 47.2679 136.481 47.0044C136.633 46.7424 136.854 46.5209 137.116 46.3698C137.378 46.2186 137.68 46.1378 137.983 46.1378C138.287 46.1379 138.585 46.218 138.849 46.3701C139.112 46.5222 139.331 46.741 139.483 47.0043C139.635 47.2677 139.715 47.5665 139.714 47.8706C139.714 48.1747 139.634 48.4734 139.482 48.7367Z" fill="black"/>
<path id="Vector_2" fill-rule="evenodd" clip-rule="evenodd" d="M138.875 48.9155C138.832 48.7838 138.838 48.5534 138.822 48.37C138.819 48.3064 138.825 48.2421 138.799 48.1702C138.773 48.096 138.733 48.0272 138.682 47.9674C138.646 47.923 138.595 47.8938 138.538 47.8859C138.64 47.8492 138.726 47.7787 138.782 47.6861C138.849 47.5743 138.882 47.4458 138.878 47.3156C138.877 47.1731 138.836 47.0336 138.76 46.913C138.599 46.6758 138.314 46.6354 138.066 46.6481H137.02V49.0682H137.426V48.0737C137.673 48.0774 137.953 48.064 138.167 48.0827C138.223 48.0918 138.276 48.1158 138.32 48.1523C138.466 48.3251 138.402 48.5526 138.427 48.7472C138.43 48.8624 138.442 48.9724 138.49 49.0689H138.944C138.962 48.9732 138.898 48.9881 138.875 48.9155ZM138.341 47.6486C138.287 47.6832 138.226 47.7068 138.163 47.7182C137.941 47.7392 137.669 47.725 137.422 47.7287V46.9916H138.005C138.158 46.9939 138.335 46.9879 138.439 47.1929C138.491 47.3523 138.493 47.5237 138.341 47.6486Z" fill="black"/>
</g>
</g>
</g>
</svg>
