<svg width="96" height="40" viewBox="0 0 96 40" fill="none" xmlns="http://www.w3.org/2000/svg">
<mask id="mask0_29_9204" style="mask-type:alpha" maskUnits="userSpaceOnUse" x="0" y="0" width="96" height="40">
<rect width="96" height="40" fill="#F0F0F0"/>
</mask>
<g mask="url(#mask0_29_9204)">
<path d="M46.8124 35.6574C34.8266 36.7631 22.3339 35.0215 20.5841 25.6545C19.7282 21.0369 21.8346 16.1404 24.6251 13.0969V11.4717C19.5982 15.8804 16.8739 21.4588 18.4431 28.0485C20.4475 36.5005 31.1665 41.2868 47.5321 39.6974C54.0099 39.0696 62.4816 36.9868 68.3752 33.7495V29.1542C63.0263 32.3412 54.1811 34.9738 46.8124 35.6574ZM78.3871 11.3619C75.5441 -2.5184 48.5936 -3.39834 31.2208 7.17679V8.3448C48.5737 -0.576504 73.1878 -0.522299 75.4289 12.264C76.1809 16.4937 73.7982 20.9003 69.5417 23.4376V26.7552C74.662 24.8771 79.9141 18.8026 78.3871 11.3619Z" fill="black"/>
<path d="M67.4062 9.3407H64.2636V23.3372C64.2636 24.9775 65.0565 26.404 67.4062 26.6319V9.3407ZM29.987 14.4511H26.8386L26.8369 23.5955C26.8369 25.2415 27.6324 26.6665 29.987 26.8901V14.4511ZM26.8386 9.76646H29.9772V12.7454H26.8386V9.76646ZM48.8074 26.7453C46.2637 26.7453 45.1873 24.9773 45.1873 23.2358V11.0942H48.3025V14.4511H50.6486V16.9673H48.3025V23.0434C48.3025 23.7535 48.6397 24.1491 49.3801 24.1491H50.6486V26.7454L48.8074 26.7453ZM54.5398 21.5725C54.5398 23.1668 55.5366 24.3385 57.3006 24.3385C58.6828 24.3385 59.364 23.9549 60.1618 23.1668L62.0868 25.0005C60.8526 26.2198 59.5596 26.9611 57.2776 26.9611C54.2963 26.9611 51.4399 25.334 51.4399 20.5904C51.4399 16.535 53.9358 14.2427 57.2085 14.2427C60.5353 14.2427 62.4471 16.9263 62.4471 20.4489V21.5729H54.5398M57.0719 16.8191C56.0056 16.8191 55.1864 17.3683 54.8391 18.1091C54.6369 18.5543 54.5628 18.9013 54.5397 19.4484H59.3408C59.2801 18.1091 58.6728 16.8191 57.0719 16.8191ZM38.448 16.9673C39.3615 16.9673 39.7412 17.4189 39.7412 18.1519V26.7635H42.8572V18.1338C42.8572 16.3852 41.9255 14.4544 39.1893 14.4544L32.7528 14.4511V26.7635H35.8699V16.9673H38.448ZM70.7874 11.8417C70.0947 11.8417 69.5418 11.283 69.5418 10.5911C69.5418 9.90255 70.0947 9.3407 70.7874 9.3407C71.4768 9.3407 72.0428 9.90255 72.0428 10.5911C72.0428 11.283 71.4767 11.8417 70.7874 11.8417ZM70.7874 9.54921C70.2165 9.54921 69.7573 10.0211 69.7573 10.5911C69.7573 11.1645 70.2165 11.6281 70.7874 11.6281C71.3582 11.6281 71.8322 11.1645 71.8322 10.5911C71.8321 10.0211 71.3583 9.54921 70.7874 9.54921ZM71.3418 11.3406H71.1082C71.0981 11.3405 71.0883 11.3375 71.0799 11.332C71.0715 11.3264 71.0648 11.3186 71.0607 11.3094L70.7446 10.7722C70.7347 10.7607 70.7084 10.7476 70.7003 10.7476H70.5556V11.2831C70.5556 11.3095 70.5374 11.3407 70.503 11.3407H70.2922C70.2608 11.3407 70.2396 11.3095 70.2396 11.2831V9.93226C70.2396 9.85325 70.2659 9.82077 70.335 9.81086C70.4108 9.80266 70.6082 9.79276 70.7186 9.79276C71.1085 9.79276 71.3374 9.90756 71.3374 10.2691V10.2955C71.3374 10.5188 71.2271 10.6405 71.056 10.6949L71.3851 11.2551C71.3905 11.2676 71.3932 11.2811 71.3933 11.2947C71.3928 11.3159 71.3814 11.3406 71.3418 11.3406ZM71.0392 10.2691C71.0392 10.1182 70.9454 10.0705 70.7445 10.0705H70.5455V10.499C70.5768 10.499 70.7183 10.5056 70.7445 10.5056C70.9454 10.5056 71.0392 10.4386 71.0392 10.2955V10.2691Z" fill="black"/>
</g>
</svg>
