<svg width="96" height="40" viewBox="0 0 96 40" fill="none" xmlns="http://www.w3.org/2000/svg">
<mask id="mask0_29_9220" style="mask-type:alpha" maskUnits="userSpaceOnUse" x="0" y="0" width="96" height="40">
<rect width="96" height="40" fill="#F0F0F0"/>
</mask>
<g mask="url(#mask0_29_9220)">
<path d="M22.8328 24.4866C22.224 24.4866 21.7474 24.9125 21.7474 25.534C21.7474 26.1559 22.2265 26.5794 22.8328 26.5794C23.4388 26.5794 23.9183 26.1531 23.9183 25.534C23.9183 24.9125 23.4412 24.4866 22.8328 24.4866ZM22.8328 26.2799C22.3987 26.2799 22.0767 25.9628 22.0767 25.534C22.0767 25.1056 22.3963 24.7861 22.8328 24.7861C23.2641 24.7861 23.5885 25.1105 23.5885 25.534C23.5885 25.955 23.2612 26.2799 22.8328 26.2799ZM33.3949 20.8231H28.1108L28.7114 11.6386L25.2799 20.8231H20.373L28.1587 0.0634766H33.3798L32.7771 9.37399L36.2737 0.0634766H41.181L33.3949 20.8231ZM34.0324 20.8231L41.8176 0.0634766H46.7245L38.9393 20.8231H34.0324Z" fill="black"/>
<path fill-rule="evenodd" clip-rule="evenodd" d="M19.8076 13.6674C12.9507 21.7198 6.4825 32.4341 12.1958 37.368C17.732 42.1493 24.6518 39.3184 29.3701 37.431C34.0884 35.5436 86.2393 12.8966 86.2393 12.8966C86.7425 12.645 86.6484 12.3303 86.0192 12.4875C85.7655 12.5509 29.2445 27.8685 29.2445 27.8685C22.0722 29.8819 13.8942 25.4938 19.8076 13.6674Z" fill="black"/>
<path d="M23.0179 25.6076C23.1701 25.6002 23.2892 25.5217 23.2892 25.311C23.2892 25.0393 23.1116 24.971 22.815 24.971H22.3887V26.0973H22.673V25.6178H22.7209L22.9799 26.0973H23.3068L23.0179 25.6076ZM22.8355 25.4251H22.6734V25.1637H22.8101C22.894 25.1637 22.9901 25.1735 22.9901 25.2827C22.9901 25.3998 22.9345 25.4251 22.8355 25.4251ZM72.1588 0C71.55 0 71.0733 0.42633 71.0733 1.04741C71.0733 1.6689 71.5528 2.09237 72.1588 2.09237C72.7647 2.09237 73.2442 1.66604 73.2442 1.04741C73.2446 0.42633 72.768 0 72.1588 0ZM72.1588 1.79369C71.7247 1.79369 71.4027 1.47661 71.4027 1.04782C71.4027 0.619446 71.7222 0.299904 72.1588 0.299904C72.59 0.299904 72.9149 0.624356 72.9149 1.04782C72.9149 1.46883 72.5876 1.79369 72.1588 1.79369Z" fill="black"/>
<path d="M72.3449 1.12112C72.4971 1.11375 72.6166 1.0352 72.6166 0.824487C72.6166 0.552815 72.4386 0.484487 72.1424 0.484487H71.716V1.61046H72V1.13135H72.0483L72.3068 1.61046H72.6342L72.3449 1.12112ZM72.162 0.938639H72V0.677195H72.137C72.2205 0.677195 72.3171 0.687424 72.3171 0.796665C72.3171 0.913272 72.261 0.938639 72.162 0.938639ZM68.9265 3.52362L70.2452 0.0634766H55.2729L50.132 6.29149L52.5054 0.0634766H47.5355L39.8125 20.8231H44.7194L48.0167 12.1419L48.2425 20.8231L63.2987 20.7904L64.7319 16.7971H59.0076L60.8884 11.7646H65.6063L67.0579 7.89575H62.3401L63.9574 3.52362H68.9265ZM53.1106 19.439L52.7959 8.61912L60.215 0.47344L53.1106 19.439Z" fill="black"/>
</g>
</svg>
