<svg width="141" height="56" viewBox="0 0 141 56" fill="none" xmlns="http://www.w3.org/2000/svg">
<g id="Logo">
<mask id="mask0_29_7006" style="mask-type:alpha" maskUnits="userSpaceOnUse" x="0" y="0" width="141" height="56">
<rect id="Bounding box" x="0.5" width="140" height="56" fill="#F0F0F0"/>
</mask>
<g mask="url(#mask0_29_7006)">
<path id="Vector" d="M110.691 18C114.784 18 119.602 20.3159 119.602 28.0533C119.602 34.9687 115.578 38.6881 110.349 38.6881C105.495 38.6881 101.403 35.3344 101.403 28.3574C101.403 21.5952 105.64 18 110.691 18ZM110.484 36.9189C115.651 36.9189 115.651 29.7285 115.651 28.3586C115.651 24.7946 114.993 19.768 110.626 19.768C105.528 19.768 105.355 26.2886 105.355 28.4223C105.355 30.5235 105.564 36.9189 110.484 36.9189ZM92.1425 18.274C96.5474 18.274 98.8343 20.2522 98.8343 23.1485C98.8343 27.6295 94.3634 28.4212 93.2183 28.7242L100.778 38.3805H96.6849L90.1005 29.2107H88.6759V38.3805H85.1757V18.274H92.1425ZM88.677 20.0408V27.6295H90.3074C93.3212 27.6295 95.1607 26.7136 95.1607 23.8497C95.1607 21.0473 94.0492 20.0408 90.3074 20.0408M82.7043 18.274V20.0408H76.5694V38.3805H72.9965V20.0408H66.8617V18.274M140.5 18.274H138.28V35.066L125.765 18.274H122.735V38.3805H125.005L124.991 22.4194L136.586 38.3805H140.5V38.3593M59.055 22.4217L53.2635 38.3817H50.7697L58.5373 18.2751H60.7872L68.623 38.3817H64.8432M46.6713 20.6794C45.8359 20.3473 44.5521 19.8295 42.7853 19.8295C38.972 19.8295 36.2367 22.6923 36.2367 28.4782C36.2367 34.7573 39.284 36.8608 42.1635 36.8608C43.3768 36.8608 44.3095 36.5857 44.8653 36.4325V30.3379H41.0855V28.571H48.2581V37.1929C46.5639 37.9534 44.6919 38.6869 42.1244 38.6869C36.6493 38.6869 32.2836 35.0649 32.2836 28.4491C32.2824 21.8692 36.6146 18 42.4733 18C44.3084 18 45.8348 18.3075 47.4966 18.974M29.5919 18.274V20.1639H21.273V27.0759H29.0048V28.845H21.273V36.494H29.697V38.3805H17.7013V18.274M7.43329 18.274C12.6657 18.274 14.9526 19.9793 14.9526 23.4862C14.9526 27.7189 11.0744 29.4556 7.43329 29.4556H4.06953V38.3805H0.5V18.274H7.43329ZM4.06953 20.0408V27.6854H6.32173C9.44283 27.6854 11.1415 26.7427 11.1415 23.4862C11.1415 20.6794 9.44283 20.042 6.32173 20.042" fill="black"/>
</g>
</g>
</svg>
