<svg width="141" height="56" viewBox="0 0 141 56" fill="none" xmlns="http://www.w3.org/2000/svg">
<g id="Logo">
<mask id="mask0_29_6987" style="mask-type:alpha" maskUnits="userSpaceOnUse" x="0" y="0" width="141" height="56">
<rect id="Bounding box" x="0.5" width="140" height="56" fill="#F0F0F0"/>
</mask>
<g mask="url(#mask0_29_6987)">
<g id="Group 82">
<path id="Vector" d="M55.266 18.9362C57.9559 18.9362 60.1365 16.7556 60.1365 14.0657C60.1365 11.3758 57.9559 9.19519 55.266 9.19519C52.5761 9.19519 50.3955 11.3758 50.3955 14.0657C50.3955 16.7556 52.5761 18.9362 55.266 18.9362Z" fill="black"/>
<path id="Vector_2" d="M70.9594 18.9362C73.6493 18.9362 75.8299 16.7556 75.8299 14.0657C75.8299 11.3758 73.6493 9.19519 70.9594 9.19519C68.2695 9.19519 66.0889 11.3758 66.0889 14.0657C66.0889 16.7556 68.2695 18.9362 70.9594 18.9362Z" fill="black"/>
<path id="Vector_3" d="M139.309 9.89872V5.67762H137.253V9.41167H136.062V5.67762H133.032V4.3247H140.5V9.89872H139.309ZM133.032 11.9552H140.5V13.254H133.032V11.9552ZM133.032 18.9903V17.6374H139.309V15.3104H140.5V21.3715H139.309V18.9903H133.032ZM140.5 28.5149V29.8137H133.032V28.7313L138.335 24.5644H133.032V23.2656H140.5V24.5102L135.359 28.5149H140.5ZM139.364 37.823V33.6019H137.415V37.3359H136.225V33.6019H134.222V37.8771H133.032V32.3031H140.5V37.823H139.364ZM137.361 42.8558C136.982 44.4252 136.387 45.237 135.142 45.237C133.735 45.237 132.87 44.1546 132.87 42.5852C132.87 41.4488 133.248 40.3664 134.06 39.4465L134.98 40.2582C134.385 40.9617 134.006 41.6652 134.006 42.6394C134.006 43.4511 134.385 43.9382 134.98 43.9382C135.521 43.9382 135.792 43.6134 136.117 42.2605C136.495 40.6911 136.982 39.7712 138.335 39.7712C139.634 39.7712 140.5 40.8535 140.5 42.3147C140.5 43.397 140.175 44.2629 139.58 45.0205L138.606 44.317C139.093 43.6676 139.364 42.9641 139.364 42.2605C139.364 41.5029 138.985 41.0159 138.444 41.0159C137.957 41.07 137.74 41.4488 137.361 42.8558ZM137.361 50.1616C136.982 51.731 136.387 52.5427 135.142 52.5427C133.735 52.5427 132.87 51.4604 132.87 49.891C132.87 48.7545 133.248 47.6722 134.06 46.7522L134.98 47.564C134.385 48.2675 134.006 49.0251 134.006 49.9451C134.006 50.7569 134.385 51.298 134.98 51.298C135.521 51.298 135.792 50.9733 136.117 49.6204C136.495 48.051 136.982 47.131 138.335 47.131C139.634 47.131 140.5 48.2134 140.5 49.6745C140.5 50.7569 140.175 51.6227 139.58 52.3804L138.606 51.6768C139.093 51.0274 139.364 50.3239 139.364 49.6204C139.364 48.8628 138.985 48.3757 138.444 48.3757C137.957 48.3757 137.74 48.7004 137.361 50.1616ZM15.7068 45.2911C10.7822 45.237 7.69753 41.9358 7.58929 36.7947C7.69753 31.6537 10.7822 28.4066 15.7068 28.3525C20.4691 28.4066 23.3914 31.5995 23.4996 36.7947C23.3914 42.0441 20.4691 45.237 15.7068 45.2911ZM16.4103 21.2091H16.3562C13.3257 21.2091 10.1869 22.075 7.80576 23.6985V4H0.5V52.5427H7.85988L7.80576 49.8369C10.1869 51.4604 13.5963 52.4886 16.5727 52.5427C24.0949 52.5427 29.9936 46.8063 31.1301 39.23L31.1842 38.9594L31.2924 36.903V36.6324C31.2383 27.8655 24.8525 21.2632 16.4103 21.2091ZM36.2712 4H43.5769V52.5427H36.2712V4ZM99.4795 4V52.5427H106.785V43.2346L109.004 40.9076L118.583 52.5427H127.945L114.091 35.7124L126.646 22.4538H117.013L106.785 33.223V4H99.4795ZM51.3156 22.4538H58.6755V52.5427H51.3156V22.4538ZM90.0091 25.322C87.9526 23.1573 85.2468 21.9668 81.8375 21.9126H81.5128C77.8869 21.9668 75.9929 22.8326 73.9905 24.3479L73.9364 22.2915H67.0095V52.5427H74.3152V36.0371C74.4235 31.5454 76.6964 29.1643 81.0798 29.056C84.7056 29.2725 85.6797 30.4631 85.9503 34.8465V52.5968H93.2561V34.0889C93.202 30.5172 92.0655 27.4867 90.0091 25.322Z" fill="black"/>
</g>
</g>
</g>
</svg>
