<svg width="141" height="56" viewBox="0 0 141 56" fill="none" xmlns="http://www.w3.org/2000/svg">
<mask id="mask0_29_7040" style="mask-type:alpha" maskUnits="userSpaceOnUse" x="0" y="0" width="141" height="56">
<rect x="0.5" width="140" height="56" fill="#F0F0F0"/>
</mask>
<g mask="url(#mask0_29_7040)">
<path fill-rule="evenodd" clip-rule="evenodd" d="M52.0178 0C36.527 0 24 12.5621 24 28.0178C24 43.473 36.527 56 52.0178 56C67.4735 56 79.9995 43.4735 79.9995 28.0178C79.9995 12.5621 67.4735 0 52.0178 0ZM41.7142 14.397C43.5491 14.397 45.0664 15.9143 45.0664 17.7488C45.0664 19.6188 43.5491 21.1367 41.7142 21.1367C40.8158 21.1363 39.9544 20.7792 39.3192 20.1439C38.684 19.5086 38.327 18.6471 38.3268 17.7488C38.3268 15.9143 39.8441 14.397 41.7142 14.397ZM54.9115 41.4971H50.9596V15.103H53.5708V38.8508H58.8633V41.4976L54.9115 41.4971ZM54.9115 49.86C64.8268 48.5544 72.6607 40.6145 73.86 30.6641H58.8633V27.9114H76.2594C76.2594 40.2969 66.9442 50.6362 54.9115 52.1184C53.9586 52.2247 52.9706 52.2594 52.0178 52.2594C48.3128 52.2594 44.8191 51.4475 41.7142 50.0014C33.4572 46.1198 27.7055 37.7214 27.7055 28.0178C27.7055 18.3138 33.4572 9.91579 41.7142 6.03417C44.6781 4.65784 47.9952 3.84649 51.4885 3.74062V5.99905C48.0761 6.06699 44.7277 6.93726 41.7142 8.53946C34.7276 12.2445 29.9639 19.5842 29.9639 28.0178C29.9639 36.4514 34.7276 43.7912 41.7142 47.4957C44.7844 49.1189 48.2777 50.0361 52.0178 50.0361C52.9706 50.0361 53.9586 49.9653 54.9115 49.86ZM81.8706 38.4981V19.3017H88.1872V34.0164H96.8326V38.4981H81.8706ZM116.557 38.5683H112.464L112.252 36.6626C111.193 37.8975 109.464 39.026 106.43 39.026C101.525 39.026 97.114 35.8508 97.114 29.1458C97.114 23.0062 100.961 18.8075 107.205 18.8075C111.828 18.8075 115.534 21.2069 116.309 25.9355H110.311C109.852 24.3474 108.723 23.5005 107.064 23.5005C104.595 23.5005 103.43 25.7589 103.43 29.1112C103.43 31.8282 104.277 34.334 107.453 34.334C108.723 34.334 110.382 33.4519 110.699 32.1107H107.911V27.9817H116.557L116.557 38.5683Z" fill="black"/>
</g>
</svg>
