<svg width="140" height="56" viewBox="0 0 140 56" fill="none" xmlns="http://www.w3.org/2000/svg">
<g id="Logo">
<mask id="mask0_29_6997" style="mask-type:alpha" maskUnits="userSpaceOnUse" x="0" y="0" width="140" height="56">
<rect id="Bounding box" width="140" height="56" fill="#F0F0F0"/>
</mask>
<g mask="url(#mask0_29_6997)">
<g id="Group">
<path id="Vector" fill-rule="evenodd" clip-rule="evenodd" d="M0 27.2622C0.535791 21.721 4.91341 16.3189 10.1516 14.3636C16.2054 12.0356 23.3997 13.5487 27.7766 18.2286C31.9678 22.5127 33.5041 29.1951 31.2689 34.8995C29.6159 39.9506 24.377 44.3746 19.2316 45.2367C16.6237 45.7717 13.504 45.631 11.0825 44.7705V34.5029C12.9682 36.4582 15.9016 36.9933 18.4631 36.1559C20.6055 35.4106 22.7008 33.2457 23.1198 31.0098C23.6085 28.7753 23.1198 26.5401 21.7227 24.8399C20.1168 22.9774 17.9969 21.9762 15.5297 22.1161C11.2696 22.4648 8.6617 26.0739 8.75449 30.1021L8.77769 54.3855L0 54.4558V27.2622ZM107.311 38.0888C104.237 33.7112 103.934 26.68 106.518 21.9769C109.522 16.3189 115.412 13.0593 121.653 13.3624C127.055 13.5487 131.944 16.4125 134.854 21.1156C136.019 23.0485 136.694 25.1902 137.02 27.4718L136.997 44.7712H128.195V28.4962C127.987 26.1906 126.403 24.1418 124.378 22.9774C122.491 21.9298 119.651 21.9762 117.719 22.8846C115.18 24.2578 113.597 26.7728 113.668 29.567C113.83 31.895 114.925 33.9663 116.927 35.3866C118.72 36.6438 121.536 36.9005 123.609 36.0616C124.4 35.7122 125.192 35.3163 125.867 34.5957L125.938 44.7697C118.836 46.96 111.269 44.2826 107.311 38.0888ZM88.6853 27.6341C88.731 23.6292 90.6646 19.8113 93.7364 17.2042C96.7402 14.6899 100.861 13.3392 104.773 13.3624L104.749 22.1168C100.304 22.2568 97.7189 25.2829 97.6957 29.008L97.6022 44.7009H88.6853V27.6341ZM71.7578 40.3232C69.5233 37.8097 68.5221 34.7124 68.4525 31.2672L68.5221 2.81491H77.2534L77.2766 14.0605H84.7964V22.0697H77.2766L77.3469 32.4308C77.6492 33.8279 78.7425 35.1786 80.07 35.9224C81.9565 36.994 84.494 36.6678 86.4494 36.7149V44.7009C80.7914 45.0735 75.4829 44.6088 71.7578 40.3232ZM136.6 7.09974C136.359 6.63905 135.997 6.25262 135.553 5.98176C135.133 5.74904 134.645 5.6323 134.085 5.6323C133.342 5.6323 132.69 5.88822 132.176 6.42401C131.641 6.983 131.385 7.63478 131.385 8.4265C131.385 9.21821 131.641 9.86998 132.176 10.4058C132.713 10.9416 133.342 11.2207 134.132 11.2207C134.691 11.2207 135.179 11.0808 135.622 10.8248C136.065 10.5457 136.389 10.1962 136.6 9.70685H137.648C137.369 10.4522 136.926 11.0344 136.297 11.4527C135.716 11.8485 134.994 12.058 134.178 12.058C133.107 12.058 132.223 11.7093 131.501 10.9872C130.779 10.2883 130.407 9.42773 130.407 8.44894C130.407 7.42451 130.779 6.5632 131.501 5.86502C132.246 5.1429 133.131 4.79344 134.201 4.79344C134.994 4.79344 135.692 5.00297 136.297 5.39883C136.879 5.79469 137.345 6.37687 137.648 7.09824H136.6V7.09974ZM127.357 11.8493V4.98052H128.288V11.8493H127.357ZM128.288 4.18881H127.357V2.76852H128.288V4.18881ZM108.917 7.09974C108.615 6.58714 108.266 6.23844 107.87 5.98176C107.45 5.74904 106.962 5.6323 106.379 5.6323C105.635 5.6323 105.007 5.88822 104.47 6.42401C103.958 6.983 103.703 7.63478 103.703 8.4265C103.703 9.21821 103.959 9.86998 104.47 10.4058C105.007 10.9416 105.659 11.2207 106.426 11.2207C106.985 11.2207 107.497 11.0808 107.916 10.8248C108.353 10.559 108.701 10.17 108.917 9.70685H109.942C109.663 10.4522 109.22 11.0344 108.615 11.4527C108.01 11.8485 107.288 12.058 106.473 12.058C105.425 12.058 104.517 11.7093 103.795 10.9872C103.073 10.2883 102.702 9.42773 102.702 8.44894C102.702 7.42451 103.073 6.5632 103.818 5.86502C104.541 5.1429 105.448 4.79344 106.496 4.79344C107.288 4.79344 107.987 5.00297 108.592 5.39883C109.197 5.79469 109.64 6.37687 109.943 7.09824H108.917V7.09974ZM90.4768 11.8493V2.76852H91.4077V11.8493H90.4768ZM125.356 5.67945C125.168 5.65625 124.983 5.63305 124.773 5.63305C124.029 5.63305 123.377 5.88897 122.864 6.42476C122.407 6.87729 122.133 7.48241 122.095 8.12418V11.8732H121.211V4.98127H122.095V5.95932L122.189 5.86653C122.934 5.14441 123.842 4.79494 124.889 4.79494C125.053 4.79494 125.216 4.79494 125.356 4.81814V5.67945ZM111.641 2.76852H112.619V4.98052H119.023V5.86578H112.619V8.4265H112.643C112.643 9.21821 112.898 9.86998 113.411 10.4058C113.946 10.9416 114.598 11.2207 115.366 11.2207C115.925 11.2207 116.436 11.0808 116.855 10.8248C117.292 10.5594 117.641 10.1704 117.857 9.70685H118.881C118.602 10.4522 118.159 11.0344 117.554 11.4527C116.949 11.8485 116.228 12.058 115.412 12.058C114.366 12.058 113.457 11.7093 112.735 10.9872C112.014 10.2883 111.641 9.42773 111.641 8.44894V2.76852ZM138.696 2.00075C138.929 2.00075 139.138 2.07034 139.348 2.18708C139.534 2.27987 139.698 2.443 139.813 2.65253C139.93 2.86206 140 3.07158 140 3.30431C140 3.51383 139.93 3.72336 139.813 3.93289C139.719 4.14241 139.557 4.30555 139.348 4.42228C139.149 4.53321 138.924 4.58949 138.696 4.58541V4.37589C138.882 4.37589 139.069 4.32949 139.231 4.23595C139.419 4.14242 139.534 4.00323 139.627 3.8401C139.719 3.65377 139.79 3.49064 139.79 3.30431C139.79 3.11798 139.719 2.93165 139.627 2.76852C139.534 2.58219 139.395 2.4662 139.231 2.37266C139.068 2.2802 138.884 2.23196 138.696 2.23273V2.00075ZM138.696 3.49064C138.765 3.53703 138.836 3.65377 138.905 3.79295L139.022 4.00248H139.301L139.137 3.74656C139.076 3.64751 139.006 3.55388 138.928 3.46669C138.905 3.44349 138.858 3.42029 138.812 3.3971C138.917 3.38005 139.014 3.33121 139.091 3.25716C139.162 3.19043 139.204 3.09854 139.208 3.00124C139.206 2.92586 139.181 2.85275 139.137 2.79171C139.091 2.72212 139.045 2.69892 138.975 2.65178C138.904 2.65178 138.811 2.62858 138.696 2.62858V2.81491C138.765 2.81491 138.811 2.81491 138.835 2.83811C138.87 2.85549 138.902 2.87906 138.928 2.9077C138.958 2.93965 138.974 2.98117 138.975 3.02444C138.975 3.07083 138.952 3.14043 138.904 3.16437C138.858 3.21077 138.788 3.21077 138.696 3.23397L138.696 3.49064ZM138.696 4.58541C138.486 4.58541 138.277 4.53827 138.068 4.42154C137.861 4.3083 137.692 4.13852 137.578 3.93214C137.485 3.72261 137.415 3.51309 137.415 3.30356C137.415 3.07083 137.485 2.86131 137.602 2.65178C137.695 2.44225 137.858 2.27912 138.068 2.18633C138.277 2.06959 138.486 2.00075 138.696 2.00075V2.23273C138.533 2.23273 138.347 2.27912 138.183 2.37266C137.998 2.4662 137.881 2.58219 137.763 2.76852C137.671 2.93213 137.623 3.11664 137.623 3.30431C137.623 3.49197 137.671 3.67648 137.763 3.8401C137.857 4.00323 137.997 4.14242 138.183 4.23595C138.347 4.32949 138.509 4.37589 138.696 4.37589V4.58541ZM138.696 2.62858H138.137V4.00248H138.37V3.4203H138.485C138.579 3.4203 138.626 3.44349 138.673 3.46669C138.696 3.46669 138.696 3.48989 138.696 3.48989V3.23397H138.369V2.81491H138.696V2.62858ZM36.6942 38.3208C35.1108 36.0863 34.2023 33.1761 34.0399 30.2196V28.2859C34.1559 26.0283 34.7381 23.8395 35.7625 21.9769C38.6495 16.4589 44.2371 13.316 50.2446 13.2928H50.4541C56.2049 13.3624 61.4438 16.3189 64.4236 21.4419C65.7975 23.7003 66.4493 26.4241 66.4957 29.1951V29.7534C66.4717 30.4377 66.425 31.121 66.3557 31.8022H42.2354C42.5617 34.3158 45.2159 36.6446 47.5671 37.4834C48.4516 37.7625 49.3601 37.8793 50.2446 37.8793C52.6661 37.8793 54.9709 36.878 56.6471 34.9915H65.588C63.7718 40.8126 57.6955 45.1903 51.6649 45.5397C51.1987 45.5629 50.71 45.5861 50.2446 45.5629C44.7033 45.5158 39.8603 42.9543 36.6942 38.3208ZM50.2446 20.9757C49.8487 20.9757 49.4529 20.9989 49.057 21.046C46.2164 21.3019 43.1903 23.5139 42.3514 26.3074H58.137C57.8579 25.3533 57.2061 24.5144 56.5775 23.6763C54.831 21.9305 52.6661 20.9757 50.2446 20.9757Z" fill="black"/>
<path id="Vector_2" fill-rule="evenodd" clip-rule="evenodd" d="M88.4267 8.70634H81.864C81.9104 9.45091 82.2135 10.057 82.7261 10.5225C83.2379 10.9872 83.8882 11.1967 84.6537 11.2207C85.203 11.2169 85.6841 11.0777 86.098 10.8016C86.5465 10.5438 86.9044 10.1536 87.1224 9.68438H88.194C87.8445 10.4529 87.3783 11.0351 86.7737 11.4534C86.1698 11.8485 85.4731 12.0588 84.659 12.0588H84.6328C83.5963 12.0296 82.7208 11.6809 82.0047 10.9879C81.2594 10.2666 80.8867 9.40451 80.8867 8.42722C80.8867 7.37959 81.2594 6.49433 81.9815 5.81936C82.6744 5.14962 83.55 4.82336 84.6328 4.79567L84.7031 4.79492C85.7964 4.79492 86.6824 5.14438 87.3791 5.8665C88.078 6.58787 88.4267 7.49632 88.4267 8.63675V8.70634ZM87.3791 7.96027C87.2167 7.19251 86.8912 6.60957 86.401 6.21446C85.961 5.8433 85.3601 5.63452 84.6425 5.63228H84.641H84.6365H84.5879C83.8889 5.63228 83.2843 5.84181 82.7957 6.26086C82.3063 6.68067 82.0032 7.23965 81.8865 7.96027H87.3791ZM101.019 8.70634H94.4566C94.503 9.45091 94.8061 10.057 95.3186 10.5225C95.829 10.9872 96.4808 11.1967 97.2463 11.2207C97.7955 11.2169 98.2767 11.0777 98.6905 10.8016C99.1391 10.5438 99.497 10.1536 99.715 9.68438H100.787C100.437 10.4529 99.9709 11.0351 99.3663 11.4534C98.7624 11.8485 98.0642 12.0588 97.2515 12.0588H97.2253C96.1889 12.0296 95.3119 11.6809 94.5973 10.9879C93.852 10.2666 93.4793 9.40451 93.4793 8.42722C93.4793 7.37959 93.8519 6.49433 94.5741 5.81936C95.267 5.14962 96.1425 4.82336 97.2253 4.79567L97.2942 4.79492C98.389 4.79492 99.2735 5.14438 99.9716 5.8665C100.671 6.58787 101.019 7.49632 101.019 8.63675V8.70634ZM99.9716 7.96027C99.8093 7.19251 99.4837 6.60957 98.9936 6.21446C98.5536 5.8433 97.9512 5.63452 97.2351 5.63228H97.2291H97.1804C96.4815 5.63228 95.8769 5.84181 95.3882 6.26086C94.8988 6.68067 94.5958 7.23965 94.479 7.96027H99.9716Z" fill="black"/>
</g>
</g>
</g>
</svg>
