<svg width="40" height="40" viewBox="0 0 40 40" fill="none" xmlns="http://www.w3.org/2000/svg">
<g id="Icon">
<mask id="mask0_29_8748" style="mask-type:alpha" maskUnits="userSpaceOnUse" x="0" y="0" width="40" height="40">
<rect id="Bounding box" width="40" height="40" fill="white"/>
</mask>
<g mask="url(#mask0_29_8748)">
<path id="Vector" fill-rule="evenodd" clip-rule="evenodd" d="M16.8182 0.130682C16.1976 0.356159 15.9613 0.501555 15.4575 0.968056C14.879 1.50362 14.5182 2.18372 14.46 2.84789C14.4257 3.24103 14.7509 8.22496 14.866 9.06772L14.906 9.36109L14.0261 9.31171C12.0807 9.20257 9.92644 9.64446 8.06785 10.5339C4.49726 12.2426 1.91787 15.6224 1.18245 19.556C0.961976 20.735 0.981429 23.0873 1.22089 24.2046C1.57919 25.8766 2.1746 27.2894 3.11916 28.7087C3.83192 29.7798 5.33643 31.3138 6.36858 32.0217L7.09126 32.5175V33.869V35.2206H4.23608H1.38082L1.17831 35.4231C0.987602 35.6138 0.978461 35.6582 1.02049 36.1849C1.14909 37.7958 2.22741 39.1958 3.7827 39.7712C4.15678 39.9096 4.45343 39.9457 5.42003 39.9702L6.60046 40L6.76773 39.7873C6.97602 39.5226 6.98024 39.2837 6.78117 39.0306C6.63405 38.8436 6.58186 38.8333 5.58972 38.7961C4.29092 38.7475 3.85161 38.5989 3.18737 37.9839C2.74345 37.573 2.32546 36.9074 2.32546 36.6116C2.32546 36.4768 2.63696 36.4707 9.47415 36.4707H16.6228V37.2511C16.6228 37.8292 16.6614 38.133 16.7716 38.423L16.9204 38.8145H12.8226H8.72483L8.53311 39.0063C8.28864 39.2507 8.28864 39.5502 8.53311 39.7946L8.72483 39.9864H18.6889C28.3343 39.9864 28.6655 39.9816 29.0487 39.836C29.6539 39.606 30.0925 39.2014 30.389 38.5994L30.6468 38.0759L30.6938 34.363L30.7409 30.6501L31.4946 20.7507C31.9093 15.3061 32.2484 10.7092 32.2484 10.5355C32.2484 10.1317 32.0389 9.9072 31.6624 9.9072C31.4128 9.9072 31.0846 10.1135 31.072 10.2783C31.0695 10.3105 30.7088 15.1007 30.2704 20.9232L29.4734 31.5095L23.6377 31.5295L17.802 31.5496L17.761 31.2952C17.7384 31.1552 17.2805 25.0992 16.7433 17.8372C16.2062 10.5752 15.7491 4.4842 15.7275 4.30153L15.6883 3.96949H23.619H31.5496L31.5038 4.45779C31.3479 6.11793 31.2578 7.77549 31.3154 7.92674C31.4626 8.31394 32.0851 8.37832 32.3347 8.03214C32.4511 7.87072 32.5047 7.45063 32.6439 5.61017C32.7365 4.38552 32.7947 3.16188 32.7733 2.89102C32.692 1.86051 31.8821 0.794222 30.7865 0.275219L30.2561 0.0240378L23.7325 0.00638089C17.5984 -0.0101822 17.1854 -0.00276005 16.8182 0.130682ZM29.8976 1.2408C30.5485 1.38041 31.2494 1.97887 31.4235 2.54366L31.4777 2.71945H23.6205C19.2991 2.71945 15.7634 2.70046 15.7634 2.67726C15.7634 2.53913 16.1013 2.01973 16.323 1.81691C16.7436 1.43237 16.8461 1.37026 17.2327 1.26619C17.7171 1.13572 29.2996 1.11259 29.8976 1.2408ZM14.9337 10.6139C14.9546 10.6349 15.0015 11.0303 15.0379 11.4925L15.1041 12.3331L14.633 12.2725C12.749 12.0307 10.515 12.466 8.82022 13.4055C4.66367 15.7093 2.8129 20.8509 4.55937 25.2428C5.81426 28.3986 8.55475 30.6249 11.8868 31.1954C13.1512 31.4119 14.9043 31.3155 16.0929 30.9644L16.4614 30.8555L16.4992 31.1044C16.52 31.2412 16.5575 31.6227 16.5825 31.9518L16.6281 32.5504L16.3716 32.6321C15.1172 33.0315 12.7591 33.1129 11.3102 32.8069C9.0525 32.3301 7.29603 31.4078 5.67839 29.8496C3.91567 28.1517 2.77579 26.0082 2.36468 23.6186C2.22257 22.7924 2.20319 20.9755 2.32765 20.1366C2.91369 16.1844 5.638 12.7471 9.31462 11.3208C10.1339 11.003 11.1035 10.738 11.8978 10.615C12.364 10.5426 14.8616 10.5418 14.9337 10.6139ZM18.8889 11.9763C18.722 12.1548 18.6898 12.2735 18.6659 12.8005C18.6505 13.1391 18.6764 13.7019 18.7234 14.0513C18.9254 15.5519 19.9116 16.6781 21.3523 17.0533C21.9998 17.222 25.222 17.2243 25.8659 17.0565C26.5316 16.8832 27.0704 16.5804 27.5151 16.13C28.2714 15.364 28.5726 14.499 28.5751 13.0858C28.5773 11.8464 28.5103 11.7877 27.092 11.7857C25.5511 11.7834 24.8122 12.0329 24.0259 12.8211L23.6153 13.2326L23.2107 12.8188C22.9403 12.5421 22.6036 12.3082 22.1951 12.1131L21.584 11.8213L20.3339 11.7946L19.0839 11.7679L18.8889 11.9763ZM21.764 13.2714C22.5681 13.6732 22.9394 14.2849 23.0107 15.3258L23.053 15.9422L22.2774 15.911C21.5877 15.8833 21.4547 15.8533 21.0742 15.6395C20.3152 15.2132 19.9042 14.4569 19.9042 13.4869V13.0323H20.5949C21.209 13.0323 21.3386 13.0588 21.764 13.2714ZM27.3106 13.6769C27.2556 14.6772 26.8852 15.2721 26.0607 15.6841C25.6357 15.8966 25.5059 15.923 24.8919 15.923H24.2012V15.5488C24.2012 14.7321 24.562 13.8821 25.0671 13.5087C25.5597 13.1445 25.9226 13.0358 26.6525 13.034L27.346 13.0323L27.3106 13.6769ZM14.5664 13.5078C14.9025 13.5545 15.1828 13.5984 15.1892 13.6055C15.1957 13.6125 15.4691 17.2017 15.7967 21.5814C16.2686 27.8889 16.3721 29.5573 16.2941 29.6055C16.0728 29.7423 14.9723 29.9882 14.2437 30.0638C10.0639 30.4972 6.15411 27.5969 5.29197 23.4233C5.14767 22.7246 5.12853 22.4349 5.16299 21.4701C5.22322 19.784 5.60558 18.5579 6.50694 17.1606C6.94688 16.4787 8.11481 15.2953 8.771 14.8665C10.5548 13.7012 12.5651 13.2299 14.5664 13.5078ZM36.5845 14.4324C36.226 14.6006 34.4809 15.998 34.1758 16.3613C33.9035 16.6855 33.6031 17.2949 33.5044 17.7233C33.4602 17.9148 33.4233 18.7835 33.4222 19.6536C33.4206 21.0277 33.4045 21.2357 33.2996 21.2357C33.2332 21.2357 33.0926 21.3221 32.9871 21.4275L32.7953 21.6193V24.2437V26.868L32.9871 27.0598C33.295 27.3678 33.7371 27.3086 33.931 26.9334C34.0232 26.7552 34.0453 26.2963 34.0453 24.5601V22.4077H36.0376H38.0299V25.6109V28.8141H35.223H32.416L32.2541 29.02C32.0943 29.2231 32.0922 29.2898 32.0922 33.8839C32.0922 36.6686 32.1227 38.6486 32.1682 38.8071C32.274 39.1759 32.5366 39.537 32.8607 39.7591L33.1354 39.9473H36.0056H38.8758L39.2086 39.713C39.3916 39.584 39.6232 39.3236 39.7231 39.1343L39.9049 38.7899V33.9719V29.1539L39.7241 28.984C39.6247 28.8905 39.4665 28.8141 39.3726 28.8141H39.2018V25.1869V21.5596L38.9959 21.3977C38.8827 21.3086 38.7421 21.2357 38.6834 21.2357C38.5952 21.2357 38.5768 20.7281 38.5768 18.297C38.5768 15.4777 38.5703 15.3468 38.4164 15.0729C38.2349 14.75 37.867 14.4706 37.4755 14.3584C37.1028 14.2514 36.9417 14.2649 36.5845 14.4324ZM37.3574 15.656C37.3835 15.724 37.4048 17.0072 37.4048 18.5077V21.2357H36.0376H34.6704V19.648C34.6704 17.8002 34.7285 17.5335 35.2395 17.0358C35.7751 16.5142 37.0429 15.533 37.1816 15.5327C37.2523 15.5326 37.3313 15.588 37.3574 15.656ZM20.9499 18.8456C20.5341 19.0302 20.4642 19.6049 20.8243 19.8784C20.9289 19.9579 21.5456 19.9812 23.5893 19.9832C25.0361 19.9846 26.2767 19.9638 26.3462 19.9372C26.5332 19.8654 26.712 19.4697 26.6569 19.2499C26.6306 19.1453 26.5384 18.9956 26.4519 18.9172C26.3073 18.7863 26.0874 18.7732 23.744 18.7561C21.7108 18.7413 21.1439 18.7595 20.9499 18.8456ZM38.733 30.9236V31.8611H37.4048C36.1808 31.8611 36.0644 31.8734 35.9204 32.0174C35.8237 32.1141 35.7642 32.2778 35.7642 32.4471C35.7642 32.6164 35.8237 32.7801 35.9204 32.8768C36.0644 33.0208 36.1808 33.033 37.4077 33.033H38.7387L38.7163 35.8129C38.695 38.4606 38.6868 38.5981 38.5423 38.7036C38.3068 38.8757 33.763 38.866 33.5159 38.6928L33.3422 38.5713V34.2786V29.986H36.0376H38.733V30.9236ZM29.4341 35.2792C29.4325 37.5285 29.4189 37.7896 29.2871 38.0797C29.0885 38.5169 28.6995 38.7445 28.0637 38.7955L27.5607 38.8359V37.4294C27.5607 36.1249 27.549 36.0081 27.3988 35.8171L27.2369 35.6112H23.6153H19.9937L19.8318 35.8171C19.6816 36.0081 19.6698 36.1249 19.6698 37.4294V38.8359L19.1668 38.7955C18.5353 38.7448 18.1736 38.5321 17.9566 38.0838C17.8034 37.7673 17.7948 37.6181 17.7948 35.274V32.7986H23.6153H29.4358L29.4341 35.2792ZM9.50455 33.5866C10.9056 34.0679 11.5745 34.1659 13.4587 34.1659C14.8097 34.1659 15.3088 34.1367 15.7913 34.0292C16.6817 33.8309 16.6228 33.7935 16.6228 34.5565V35.2206H12.443H8.26317V34.1649V33.1091L8.55615 33.2352C8.71733 33.3047 9.14406 33.4628 9.50455 33.5866ZM26.3107 37.7988V38.8145H23.6153H20.9199V37.7988V36.7832H23.6153H26.3107V37.7988Z" fill="black"/>
</g>
</g>
</svg>
