<svg width="20" height="20" viewBox="0 0 20 20" fill="none" xmlns="http://www.w3.org/2000/svg">
<g id="Button">
<mask id="mask0_29_1770" style="mask-type:alpha" maskUnits="userSpaceOnUse" x="0" y="0" width="20" height="20">
<path id="Vector" d="M0 0H20V20H0V0Z" fill="white"/>
</mask>
<g mask="url(#mask0_29_1770)">
<g id="Vector_2">
<path id="Vector_3" d="M2.33203 15.6667H5.66536L14.4154 6.91666C14.6342 6.69779 14.8079 6.43796 14.9263 6.15199C15.0448 5.86602 15.1057 5.55953 15.1057 5.25C15.1057 4.94047 15.0448 4.63397 14.9263 4.348C14.8079 4.06204 14.6342 3.8022 14.4154 3.58333C14.1965 3.36446 13.9367 3.19084 13.6507 3.07239C13.3647 2.95394 13.0582 2.89297 12.7487 2.89297C12.4392 2.89297 12.1327 2.95394 11.8467 3.07239C11.5607 3.19084 11.3009 3.36446 11.082 3.58333L2.33203 12.3333V15.6667Z" stroke="black" stroke-width="2" stroke-linecap="round" stroke-linejoin="round"/>
<path id="Vector_4" d="M10.25 4.41669L13.5833 7.75002" stroke="black" stroke-width="2" stroke-linecap="round" stroke-linejoin="round"/>
<path id="Vector_5" d="M12.332 14.8333H17.332" stroke="black" stroke-width="2" stroke-linecap="round" stroke-linejoin="round"/>
<path id="Vector_6" d="M14.832 12.3333V17.3333" stroke="black" stroke-width="2" stroke-linecap="round" stroke-linejoin="round"/>
</g>
</g>
</g>
</svg>
