<svg width="40" height="40" viewBox="0 0 40 40" fill="none" xmlns="http://www.w3.org/2000/svg">
<g id="Icon">
<mask id="mask0_29_8764" style="mask-type:alpha" maskUnits="userSpaceOnUse" x="0" y="0" width="40" height="40">
<rect id="Bounding box" width="40" height="40" fill="white"/>
</mask>
<g mask="url(#mask0_29_8764)">
<path id="Vector" fill-rule="evenodd" clip-rule="evenodd" d="M1.96644 0.188905C1.07781 0.555937 0.612553 0.996266 0.21364 1.8477L0 2.30373V20.5627V38.8216L0.236613 39.1582C0.366719 39.3433 0.624665 39.6013 0.809861 39.7314L1.1465 39.9681L9.16884 39.9896C18.0829 40.0136 17.5591 40.043 18.1131 39.489C18.7032 38.8989 18.6733 39.1783 18.6978 34.0098L18.7197 29.3799H19.9652H21.2107L21.2327 34.0098C21.2571 39.1849 21.2296 38.9283 21.8235 39.5051C22.375 40.0407 21.8739 40.0135 30.7616 39.9896L38.7839 39.9681L39.1206 39.7314C39.3058 39.6013 39.5637 39.3434 39.6938 39.1582L39.9304 38.8216L39.9508 28.8873L39.9713 18.9532L39.7731 18.5481C39.6641 18.3253 39.4533 18.0502 39.3046 17.9369C38.7419 17.5077 38.6864 17.5023 34.8023 17.5023H31.2176V14.3809V11.2594L34.2456 11.2356C37.5981 11.2093 37.606 11.2082 38.1622 10.6805C38.7316 10.1403 38.7156 10.2845 38.7175 5.67289C38.7188 2.75821 38.6925 1.45129 38.6285 1.23772C38.5071 0.832481 38.0914 0.361598 37.6786 0.161712C37.3447 0.000114726 37.2778 -0.00144811 30.6264 0.00027101C24.2805 0.00191199 23.8942 0.00988245 23.5988 0.14538C23.2179 0.320105 22.8964 0.635017 22.6728 1.05245C22.5172 1.34298 22.503 1.49973 22.4801 3.18283L22.4554 4.99962H20.5852H18.715V3.94854C18.715 3.37045 18.676 2.71116 18.6283 2.48338C18.4311 1.5406 17.7309 0.656818 16.8566 0.247043L16.4098 0.0376228L9.41608 0.0191032L2.42239 0.000505436L1.96644 0.188905ZM16.1025 1.28562C16.617 1.4391 17.0537 1.81511 17.2786 2.29819L17.4631 2.69444L17.4639 12.5989L17.4647 22.5034H17.1167C16.6608 22.5034 16.4027 22.6283 16.2883 22.9042C16.2166 23.0775 16.2166 23.1795 16.2883 23.3528C16.4027 23.6288 16.6608 23.7536 17.1167 23.7536H17.4647V31.0854V38.417L17.263 38.6065L17.0614 38.7959H9.29473H1.52814L1.35013 38.618L1.17213 38.4401L1.15009 35.1602L1.12813 31.8804H1.92471C2.63041 31.8804 2.75872 31.8584 3.05003 31.6877C3.62515 31.3507 3.63359 31.3032 3.63359 28.4224C3.63359 25.9204 3.63125 25.883 3.45715 25.6211C3.16388 25.1797 2.70855 25.0039 1.85884 25.0039H1.13306V24.3788V23.7536H7.82019H14.5073L14.7437 23.5173C15.0224 23.2385 15.0027 22.9646 14.6834 22.6792L14.4865 22.5034H7.8098H1.13306V21.8851V21.2669L1.98714 21.2405C2.93071 21.2113 3.11293 21.1355 3.45777 20.6288C3.63125 20.3739 3.63359 20.3364 3.63359 17.8149C3.63359 15.2933 3.63125 15.2559 3.45777 15.001C3.1127 14.494 2.93094 14.4185 1.9848 14.3892L1.12837 14.3626L1.15025 8.48951L1.17213 2.6163L1.41382 2.18652C1.66715 1.73611 2.25478 1.29203 2.68519 1.22577C2.79849 1.20834 5.7771 1.18881 9.30418 1.1824C14.7466 1.17248 15.7755 1.1881 16.1025 1.28562ZM33.7963 5.58741V10.0041L28.9055 9.98288L24.0148 9.96163L23.8654 9.77713C23.7227 9.60092 23.716 9.41495 23.716 5.63351C23.716 1.34829 23.7092 1.41987 24.1346 1.24819C24.2268 1.211 26.4382 1.17834 29.0492 1.1756L33.7963 1.17068V5.58741ZM37.3303 1.38752C37.4954 1.55256 37.5098 1.6432 37.5335 2.65733L37.5589 3.74936H36.2637H34.9684V2.45408V1.15888L36.0605 1.18427C37.0746 1.20795 37.1652 1.22241 37.3303 1.38752ZM25.1899 2.64849L25.0054 2.79782V5.57662V8.35534L25.1834 8.53335L25.3613 8.71136H28.713H32.0645L32.2662 8.52194L32.4679 8.33245V5.62171C32.4679 2.26052 32.5582 2.49909 31.285 2.49909C30.8125 2.49909 30.3616 2.53355 30.283 2.57559C30.0607 2.69452 29.967 3.05264 30.0849 3.33294C30.2039 3.61597 30.3261 3.67121 30.8333 3.67121H31.2176V5.58569V7.50016H28.7171H26.2166V5.58569V3.67121H27.3048C28.3875 3.67121 28.3941 3.67012 28.5551 3.46531C28.77 3.19221 28.7597 2.92527 28.5253 2.69093C28.3351 2.50073 28.3206 2.49909 26.8539 2.49909C25.5135 2.49909 25.3569 2.51315 25.1899 2.64849ZM37.5309 7.27261L37.508 9.62374L37.2888 9.81222C37.0806 9.99124 37.0167 10.0007 36.019 10.0007H34.9684V7.46109V4.92148H36.2611H37.5537L37.5309 7.27261ZM7.45152 5.16583C6.95579 5.45738 6.8374 5.77909 6.8374 6.83478C6.8374 7.91001 6.93258 8.18718 7.41042 8.50342C7.7104 8.70198 7.77893 8.71261 8.92637 8.73933C10.8288 8.78364 11.2727 8.67033 11.6389 8.04692C11.7767 7.81226 11.7994 7.64113 11.7994 6.83596C11.7994 5.80339 11.712 5.5356 11.2665 5.20318C11.061 5.04979 10.9344 5.03737 9.39108 5.01861C7.82074 4.99955 7.7215 5.00705 7.45152 5.16583ZM10.5882 6.83596V7.50016H9.33794H8.08767V6.83596V6.17175H9.33794H10.5882V6.83596ZM22.4801 7.98855C22.5035 9.70642 22.5148 9.82542 22.6868 10.1748C22.7868 10.378 23.0108 10.6568 23.1843 10.7942C23.7208 11.2191 23.9961 11.251 27.1322 11.251H29.9674V14.3737V17.4965L26.2752 17.5189C22.8476 17.5397 22.5634 17.5518 22.3095 17.687C21.9267 17.8909 21.6206 18.1915 21.4232 18.5572C21.2566 18.866 21.2543 18.926 21.2327 23.4997L21.2107 28.1296H19.9629H18.715V17.1507V6.17175H20.5852H22.4554L22.4801 7.98855ZM2.46147 17.8149V20.0028H1.79726H1.13306V17.8149V15.6269H1.79726H2.46147V17.8149ZM38.4916 18.8528C38.7664 19.0637 38.7974 19.2712 38.7974 20.8963V22.5034H36.2318H33.6662L33.7003 22.0925C33.7472 21.5272 33.6055 21.0674 33.2699 20.696C32.7634 20.1354 32.1266 19.9192 31.4556 20.0801C30.4827 20.3135 29.8698 21.2303 30.0453 22.1897L30.1026 22.5034H29.4099H28.7171V21.4939C28.7171 20.9387 28.6952 20.4275 28.6686 20.358C28.5477 20.0429 28.2663 20.0028 26.1754 20.0028H24.1728L23.9444 20.2313L23.716 20.4597V21.4815V22.5034H23.0909H22.4658V20.8198C22.4658 19.1364 22.4658 19.1362 22.6576 18.9444L22.8494 18.7526L30.6085 18.7551C36.5846 18.7569 38.3961 18.7795 38.4916 18.8528ZM34.6341 20.1594C34.3364 20.3936 34.3331 20.8597 34.6273 21.0911C34.814 21.238 34.9384 21.2531 35.9593 21.2531C37.0507 21.2531 37.0912 21.2472 37.2771 21.0613C37.5099 20.8286 37.5276 20.4833 37.3198 20.2264C37.177 20.0498 37.1209 20.0408 36.0087 20.017C34.9194 19.9937 34.8336 20.0025 34.6341 20.1594ZM27.4668 21.8782V22.5034H26.2166H24.9663V21.8782V21.2531H26.2166H27.4668V21.8782ZM32.262 21.4151C32.6924 21.7536 32.427 22.5034 31.8768 22.5034C31.488 22.5034 31.2602 22.2725 31.2602 21.8782C31.2602 21.6274 31.3037 21.5138 31.443 21.401C31.6817 21.2077 32.0055 21.2133 32.262 21.4151ZM38.779 31.0968L38.7583 38.44L38.5803 38.6179L38.4023 38.7959H30.6357H22.869L22.6674 38.6065L22.4658 38.417V31.0854V23.7536H30.6327H38.7997L38.779 31.0968ZM29.792 25.7138C27.963 25.9818 26.2774 27.2524 25.5122 28.9399C24.8855 30.3222 24.8327 31.7849 25.3577 33.2233C25.9911 34.959 27.5966 36.3642 29.3967 36.7583C31.8121 37.2873 34.2748 36.1769 35.5368 33.9902C35.6483 33.7968 35.8372 33.3573 35.9565 33.0134C36.1532 32.4462 36.1733 32.287 36.1739 31.2943C36.1743 30.3129 36.1528 30.136 35.9641 29.5752C35.6662 28.6895 35.2539 28.0253 34.5777 27.3418C33.671 26.4251 32.605 25.8888 31.3404 25.7129C30.665 25.619 30.4388 25.6191 29.792 25.7138ZM2.46147 28.4422V30.6301H1.79726H1.13306V28.4422V26.2542H1.79726H2.46147V28.4422ZM31.5379 26.9914C32.3655 27.1667 33.0577 27.5473 33.6795 28.1687C34.5865 29.0749 34.9919 30.0434 34.987 31.2924C34.9734 34.8022 31.092 36.8667 28.1724 34.9171C26.2009 33.6005 25.6326 30.8953 26.9152 28.9326C27.5657 27.9374 28.402 27.3289 29.5238 27.0349C30.1984 26.8581 30.8436 26.8442 31.5379 26.9914ZM30.0919 28.2107C29.5074 28.3109 28.7866 28.7032 28.3713 29.1472C26.9051 30.7148 27.3779 33.1707 29.3234 34.0924C29.8073 34.3215 29.9138 34.3418 30.6316 34.3408C31.3142 34.3399 31.4698 34.3133 31.8625 34.1302C32.4935 33.8359 33.1213 33.2168 33.4249 32.5894C33.6503 32.1238 33.6738 32.0057 33.6763 31.3265C33.6794 30.4859 33.577 30.1892 33.2546 30.1042C32.6641 29.9487 32.4684 30.193 32.4662 31.0881C32.4642 31.8649 32.3294 32.2412 31.9109 32.6383C31.3259 33.1933 30.4321 33.3081 29.7179 32.9198C28.3598 32.1815 28.412 30.3029 29.8111 29.5663C30.0192 29.4567 30.2588 29.4219 30.8143 29.4206C31.4858 29.4191 31.5559 29.4042 31.6934 29.2344C31.951 28.9163 31.8601 28.4999 31.4911 28.3085C31.2576 28.1873 30.5265 28.1361 30.0919 28.2107Z" fill="black"/>
</g>
</g>
</svg>
