<svg width="118" height="153" viewBox="0 0 118 153" fill="none" xmlns="http://www.w3.org/2000/svg">
<g id="Face Detection">
<path id="Vector" opacity="0.16" d="M39 3.5H87M39 3.5L23 37.5M39 3.5L66.5 45M39 3.5L53 94.5M87 3.5L114 33.5M87 3.5L66.5 45M114 33.5L106.5 90.5M114 33.5L66.5 45M114 33.5L53 94.5M106.5 90.5L83 135.5M106.5 90.5L66.5 45M106.5 90.5L83 101.5L53 94.5M83 135.5L35 149.5M83 135.5L53 94.5M35 149.5L3 115.5M35 149.5L53 94.5M3 115.5L27 78M3 115.5L53 94.5M27 78L23 37.5M27 78L53 94.5M23 37.5L66.5 45M66.5 45L53 94.5" stroke="white" stroke-width="2"/>
<path id="Vector_2" opacity="0.8" fill-rule="evenodd" clip-rule="evenodd" d="M39 8C41.2091 8 43 6.20914 43 4C43 1.79086 41.2091 0 39 0C36.7909 0 35 1.79086 35 4C35 6.20914 36.7909 8 39 8ZM87 8C89.2091 8 91 6.20914 91 4C91 1.79086 89.2091 0 87 0C84.7909 0 83 1.79086 83 4C83 6.20914 84.7909 8 87 8ZM118 33C118 35.2091 116.209 37 114 37C111.791 37 110 35.2091 110 33C110 30.7909 111.791 29 114 29C116.209 29 118 30.7909 118 33ZM106 94C108.209 94 110 92.2091 110 90C110 87.7909 108.209 86 106 86C103.791 86 102 87.7909 102 90C102 92.2091 103.791 94 106 94ZM87 135C87 137.209 85.2091 139 83 139C80.7909 139 79 137.209 79 135C79 132.791 80.7909 131 83 131C85.2091 131 87 132.791 87 135ZM35 153C37.2091 153 39 151.209 39 149C39 146.791 37.2091 145 35 145C32.7909 145 31 146.791 31 149C31 151.209 32.7909 153 35 153ZM8 115C8 117.209 6.20914 119 4 119C1.79086 119 0 117.209 0 115C0 112.791 1.79086 111 4 111C6.20914 111 8 112.791 8 115ZM27 82C29.2091 82 31 80.2091 31 78C31 75.7909 29.2091 74 27 74C24.7909 74 23 75.7909 23 78C23 80.2091 24.7909 82 27 82ZM71 45C71 47.2091 69.2091 49 67 49C64.7909 49 63 47.2091 63 45C63 42.7909 64.7909 41 67 41C69.2091 41 71 42.7909 71 45ZM53 98C55.2091 98 57 96.2091 57 94C57 91.7909 55.2091 90 53 90C50.7909 90 49 91.7909 49 94C49 96.2091 50.7909 98 53 98ZM87 101C87 103.209 85.2091 105 83 105C80.7909 105 79 103.209 79 101C79 98.7909 80.7909 97 83 97C85.2091 97 87 98.7909 87 101ZM23 41C25.2091 41 27 39.2091 27 37C27 34.7909 25.2091 33 23 33C20.7909 33 19 34.7909 19 37C19 39.2091 20.7909 41 23 41Z" fill="white"/>
</g>
</svg>
