<svg width="80" height="80" viewBox="0 0 80 80" fill="none" xmlns="http://www.w3.org/2000/svg">
<g id="Icon">
<mask id="mask0_29_11100" style="mask-type:alpha" maskUnits="userSpaceOnUse" x="0" y="0" width="80" height="80">
<rect id="Bounding Box" width="80" height="80" fill="white"/>
</mask>
<g mask="url(#mask0_29_11100)">
<path id="Vector" fill-rule="evenodd" clip-rule="evenodd" d="M38.7277 0.302385C38.4664 0.51401 38.3667 0.75705 38.3667 1.18218C38.3667 1.92802 38.8461 2.3544 39.6848 2.3544C40.1428 2.3544 40.3561 2.2589 40.6047 1.94256C40.7828 1.71608 40.9286 1.37395 40.9286 1.18218C40.9286 0.9904 40.7828 0.648268 40.6047 0.421795C40.2047 -0.0872607 39.281 -0.145872 38.7277 0.302385ZM44.287 0.279097C43.3542 0.505101 43.0846 1.74891 43.8395 2.34299C44.6922 3.01412 45.9272 2.50569 45.9272 1.48336C45.9272 0.97352 45.4964 0.322547 45.159 0.322547C45.0801 0.322547 44.9219 0.295665 44.8075 0.262999C44.693 0.230177 44.4589 0.237522 44.287 0.279097ZM33.9493 0.508383C33.4637 0.743296 33.1842 1.48508 33.4015 1.96241C33.8256 2.89362 34.9884 3.041 35.6156 2.24311C36.4741 1.15123 35.2516 -0.121646 33.9493 0.508383ZM48.7452 1.54259C48.2304 2.0579 48.1774 2.29188 48.4437 2.87689C48.6387 3.30468 49.1848 3.60476 49.7689 3.60476C50.2708 3.60476 50.9259 2.94988 50.9259 2.44833C50.9259 1.91708 50.329 1.28033 49.7215 1.16373C49.3023 1.08324 49.1423 1.14529 48.7452 1.54259ZM28.7443 1.72921C28.5509 1.92271 28.4319 2.25015 28.4319 2.58884C28.4319 3.29827 28.8861 3.76106 29.5824 3.76106C30.3444 3.76106 30.9312 3.24606 30.9312 2.57743C30.9312 1.83878 30.4768 1.41662 29.6816 1.41662C29.265 1.41662 28.9525 1.52087 28.7443 1.72921ZM53.7869 2.82438C52.614 3.29717 53.1262 5.17601 54.4243 5.16272C55.6848 5.14991 56.1456 3.61305 55.0834 2.96504C54.5529 2.64136 54.307 2.61463 53.7869 2.82438ZM24.046 3.43643C23.5491 3.93361 23.4981 4.17087 23.7628 4.75245C24.1344 5.56831 25.1217 5.69053 25.8067 5.00518C26.2041 4.60756 26.2658 4.44814 26.1847 4.02833C25.9766 2.95066 24.8446 2.63745 24.046 3.43643ZM58.0263 5.23884C57.5104 5.75493 57.536 6.33526 58.0995 6.89901C58.8305 7.63032 59.8059 7.47247 60.1197 6.57189C60.5661 5.29057 58.9823 4.28215 58.0263 5.23884ZM19.8034 5.41233C19.3727 5.64615 19.1173 6.23069 19.1933 6.80883C19.3057 7.66455 20.6524 7.96433 21.3314 7.28475C21.9272 6.6888 21.7502 5.68897 20.9875 5.34121C20.4989 5.11849 20.3255 5.12896 19.8034 5.41233ZM62.1843 8.0803C61.8211 8.54216 61.7947 8.72549 62.01 9.29191C62.1593 9.68484 62.8869 10.1692 63.3281 10.1692C63.7879 10.1692 64.4118 9.4629 64.4118 8.94227C64.4118 7.78349 62.8829 7.19176 62.1843 8.0803ZM15.8348 8.13266C15.1362 8.42181 14.7983 9.34755 15.1509 10.0068C15.5275 10.7109 16.9279 10.629 17.3288 9.87958C17.8827 8.84412 16.8979 7.69269 15.8348 8.13266ZM66.4686 10.9712C66.2968 11.0673 66.0684 11.2561 65.9609 11.3907C65.4848 11.9879 65.9708 13.1559 66.78 13.359C67.2337 13.473 68.0218 13.1221 68.168 12.741C68.5784 11.671 67.404 10.4479 66.4686 10.9712ZM11.6325 11.8033C10.8519 12.5841 11.3702 13.9203 12.4537 13.9203C12.9482 13.9203 13.7483 13.1198 13.7483 12.6249C13.7483 11.5409 12.4129 11.0223 11.6325 11.8033ZM17.4643 14.7585C16.9829 15.1246 16.8725 15.7824 16.8748 18.2677C16.8773 20.9391 16.9782 21.3597 17.6996 21.7057C18.1993 21.9455 18.6358 21.8415 19.0647 21.3808C19.3367 21.0887 19.3718 20.8236 19.3718 19.0598V17.0687L21.711 17.0184C23.8384 16.9726 24.0798 16.9385 24.3763 16.6414C24.8266 16.1902 24.8224 15.4176 24.3672 14.9326L24.0035 14.5455L20.8677 14.5505C18.5425 14.5541 17.6626 14.608 17.4643 14.7585ZM56.1518 14.9292C55.7296 15.3515 55.6545 16.0236 55.9813 16.454C56.3287 16.9115 56.9755 17.0462 58.8246 17.0462H60.6108V19.0485C60.6108 20.8234 60.6456 21.0885 60.9179 21.3808C61.0869 21.5622 61.3669 21.7557 61.5403 21.8107C61.9669 21.9463 62.6665 21.5877 62.908 21.1099C63.1709 20.5899 63.1878 15.7649 62.9285 15.2776C62.5642 14.5933 62.3808 14.5556 59.3932 14.5505C56.5641 14.5455 56.5313 14.5494 56.1518 14.9292ZM69.5755 14.9115C68.7163 15.651 69.3065 17.0983 70.4672 17.0983C70.9957 17.0983 71.7016 16.4781 71.7016 16.0139C71.7016 15.5827 71.26 14.9206 70.8468 14.7323C70.2656 14.4672 70.0575 14.4966 69.5755 14.9115ZM8.54032 15.3474C8.08888 15.61 7.8202 16.3968 8.00297 16.9213C8.45816 18.2281 10.3742 17.741 10.3742 16.3185C10.3742 15.3945 9.37182 14.8637 8.54032 15.3474ZM43.1936 16.7396C42.6781 16.8037 41.1812 16.8637 39.8671 16.8729C37.5493 16.8895 37.4664 16.9015 37.0944 17.2736C36.6289 17.7392 36.5938 18.4298 37.0094 18.9435C37.2766 19.2736 37.4587 19.3183 38.7371 19.3675C39.5232 19.3977 41.2339 19.3342 42.5391 19.2264C45.3747 18.992 45.5539 18.9927 46.016 19.24C46.5978 19.5516 46.7498 20.1648 46.6842 21.9367C46.6309 23.3771 46.5697 23.6619 46.1148 24.5864C45.4931 25.8501 44.3897 26.8918 43.147 27.388C42.2943 27.7286 42.0167 27.7473 36.6328 27.8263C31.2133 27.9058 30.9859 27.9213 30.3645 28.2539C29.5363 28.6972 28.4808 29.8975 28.2544 30.6532C28.0815 31.2306 28.0606 31.2437 27.2299 31.2949L26.3817 31.3473L26.4304 27.5181L26.4793 23.6888L26.9282 22.7163C27.4597 21.5652 28.7053 20.3102 29.7948 19.8278C30.2642 19.6201 31.0387 19.4654 31.9207 19.4029C33.1852 19.3135 33.3412 19.2663 33.6817 18.87C34.118 18.3625 34.141 18.1342 33.8183 17.5096C33.5199 16.9324 33.0827 16.8223 31.5579 16.9399C30.196 17.045 28.6161 17.5779 27.6102 18.2716C26.5793 18.9827 25.386 20.3384 24.8418 21.4174C24.0334 23.0195 23.9076 23.9817 23.9045 28.5881C23.9022 32.316 23.8748 32.7449 23.6168 33.1206C22.9985 34.0201 22.8865 34.5758 22.8874 36.7395C22.8884 38.7278 22.9127 38.8956 23.3094 39.6498C24.0335 41.0264 25.2735 41.8168 26.9906 41.9964L27.9214 42.0938L28.0245 43.4588C28.263 46.6207 29.7 49.631 31.788 51.3429L32.4933 51.9212L32.4916 53.9816L32.4897 56.0421L26.5243 58.0685C23.2433 59.183 20.1429 60.2916 19.6347 60.5322C17.9495 61.3294 16.3792 63.3173 15.9446 65.2034C15.7368 66.1052 15.7312 71.5246 15.9376 71.9107C16.1731 72.3511 19.3298 74.399 21.5587 75.5577C23.65 76.6447 25.8398 77.5586 27.9381 78.22C29.4235 78.6881 29.8932 78.6008 30.2847 77.7835C30.4712 77.3941 30.467 77.2643 30.2533 76.816C30.0522 76.394 29.8537 76.2535 29.1801 76.0567C28.7257 75.9239 27.6685 75.5597 26.8308 75.2477L25.3077 74.6802V67.856V61.0318L26.9089 60.5082C27.7894 60.2203 28.5844 59.9568 28.6751 59.9229C28.766 59.8888 29.7112 61.311 30.7758 63.0831C31.8404 64.8551 32.8537 66.4048 33.0275 66.5267C33.8345 67.0922 34.1747 66.8681 38.234 63.0953L38.7416 62.6234V70.0781V77.5328H37.87C37.3908 77.5328 36.3295 77.4539 35.5117 77.3573C34.1226 77.1935 33.9978 77.2022 33.6107 77.4903C32.9124 78.0098 32.9644 79.0846 33.7061 79.466C34.9035 80.0817 42.4361 80.1945 45.9272 79.6492C50.0596 79.0038 53.755 77.8368 57.5648 75.9742C60.1358 74.7171 63.7579 72.4474 64.0429 71.9146C64.1369 71.7387 64.2036 70.3765 64.2036 68.6292C64.2036 66.0213 64.1627 65.5228 63.8792 64.6809C63.4805 63.4966 62.6639 62.2403 61.805 61.4901C60.8323 60.6405 59.5141 60.1006 53.2314 57.9797L47.4921 56.0421L47.4907 54.0362L47.4893 52.0301L48.6218 50.9067C50.0083 49.5313 50.5938 48.5222 50.3717 47.8903C50.1766 47.3353 49.5489 46.9747 49.0125 47.1094C48.5676 47.2212 48.4884 47.2929 47.5723 48.4173C46.3304 49.9414 44.5915 51.048 42.7881 51.4617C41.6595 51.7207 38.2601 51.713 37.1796 51.4492C35.6003 51.0636 34.3733 50.3545 33.1021 49.0932C31.8079 47.809 30.9589 46.3122 30.634 44.742C30.3815 43.522 30.4045 31.7821 30.6602 31.2842C30.7663 31.0775 31.0513 30.761 31.2938 30.5808C31.7166 30.2665 31.9627 30.2498 37.3859 30.1671C42.0697 30.0957 43.148 30.0377 43.6834 29.8286C44.6587 29.4478 45.1859 29.1518 46.011 28.5216C46.7206 27.9796 46.8081 27.9535 47.6329 28.0379C48.3747 28.114 48.5804 28.2097 49.0123 28.68L49.52 29.2328V36.5099V43.7871L49.9035 44.1706C50.3653 44.6328 51.0582 44.6722 51.5609 44.265C51.8424 44.037 51.9323 43.7764 51.9859 43.0351L52.0539 42.0945L52.9885 41.9967C54.7568 41.8118 55.9294 41.0589 56.6731 39.631C57.0186 38.9675 57.0897 38.5985 57.1439 37.1868C57.2172 35.2719 57.014 34.0969 56.4652 33.2652C56.0839 32.6874 56.0808 32.6518 56.0795 28.9671C56.0783 24.7279 55.9474 23.6067 55.2979 22.2678C54.2403 20.0884 51.6787 18.4601 49.292 18.4502C48.7527 18.448 48.5647 18.348 47.9996 17.7625C46.9352 16.6595 45.7945 16.4168 43.1936 16.7396ZM72.3378 19.1773C71.3626 20.4177 73.0191 21.9939 74.1299 20.8825C74.628 20.3842 74.6282 19.7165 74.1303 19.179C73.602 18.6089 72.7854 18.6081 72.3378 19.1773ZM5.48067 19.8025C4.51124 21.0355 5.93711 22.5644 7.10086 21.5397C8.0303 20.7215 7.60026 19.3907 6.40652 19.3907C5.94211 19.3907 5.73029 19.4848 5.48067 19.8025ZM51.2068 21.4064C51.5326 21.5727 52.09 22.0246 52.4455 22.4105C53.4459 23.4962 53.5814 24.17 53.5816 28.0545V31.3473L52.8198 31.2945L52.0579 31.2417L51.987 30.0441C51.8647 27.9774 50.9829 26.6451 49.2659 25.9331C48.6245 25.667 48.4417 25.5215 48.5186 25.3382C48.8725 24.4939 49.0806 23.5138 49.1625 22.3032L49.2562 20.9178L49.9354 21.011C50.3089 21.0621 50.8811 21.2401 51.2068 21.4064ZM74.7406 23.5255C74.2031 24.0631 74.2311 24.759 74.8137 25.3419C75.3959 25.9243 75.8227 25.9195 76.4182 25.3237C76.8152 24.9264 76.8773 24.7663 76.7968 24.3468C76.6803 23.739 76.0439 23.1418 75.5129 23.1418C75.2989 23.1418 74.9515 23.3145 74.7406 23.5255ZM3.39732 24.1186C3.0585 24.376 2.79764 25.1005 2.91948 25.4457C3.1074 25.9784 3.64413 26.424 4.09776 26.424C5.11827 26.424 5.72295 24.9586 5.00064 24.2358C4.64527 23.8803 3.79315 23.8179 3.39732 24.1186ZM76.3879 28.2995C75.9389 28.7487 75.9731 29.618 76.4589 30.104C77.1109 30.7565 78.0626 30.566 78.4161 29.7121C78.6462 29.1564 78.4145 28.3921 77.9388 28.1373C77.4718 27.8872 76.7215 27.9657 76.3879 28.2995ZM1.75167 28.9291C1.3021 29.3481 1.17323 29.9211 1.40363 30.4774C1.76854 31.359 2.92807 31.4375 3.50089 30.6191C4.33051 29.4341 2.79811 27.9535 1.75167 28.9291ZM77.5524 33.2158C76.675 34.0936 77.4704 35.6941 78.6382 35.4007C79.5997 35.1592 79.891 33.8454 79.1284 33.1891C78.591 32.7266 78.0318 32.736 77.5524 33.2158ZM0.638213 34.0254C0.460135 34.2519 0.314393 34.6292 0.314393 34.864C0.314393 36.2295 2.18874 36.6112 2.63299 35.3361C2.83169 34.766 2.61066 33.9957 2.1828 33.7666C1.64294 33.4776 0.981715 33.5884 0.638213 34.0254ZM27.9633 36.6614V39.5528H27.3306C25.8085 39.5528 25.3077 38.837 25.3077 36.6614C25.3077 34.4812 25.7845 33.7904 27.2994 33.7761L27.9633 33.7699V36.6614ZM53.8587 34.0831C54.5416 34.4998 54.6749 34.9237 54.6749 36.6793C54.6749 38.8355 54.1699 39.5528 52.652 39.5528H52.0194V36.6614V33.7699L52.6832 33.7705C53.0709 33.7708 53.56 33.9009 53.8587 34.0831ZM34.8686 35.4967C34.0078 35.8422 33.792 38.0699 34.542 38.8686C35.0015 39.3581 35.675 39.3533 36.1712 38.8566C36.5051 38.5227 36.5547 38.3317 36.5547 37.3846C36.5547 36.0589 36.4832 35.8535 35.9186 35.5615C35.4167 35.3018 35.3621 35.2985 34.8686 35.4967ZM44.1308 35.5096C43.543 35.8383 43.4279 36.1451 43.4279 37.3833C43.4279 38.5033 43.4582 38.6162 43.8395 38.9163C44.0659 39.0944 44.4078 39.2403 44.5995 39.2403C44.7911 39.2403 45.1331 39.0944 45.3594 38.9163C45.7413 38.6157 45.771 38.5044 45.771 37.3706C45.771 36.4344 45.7071 36.0734 45.4977 35.8257C45.1565 35.4223 44.5412 35.28 44.1308 35.5096ZM78.0491 38.1576C77.733 38.4064 77.6375 38.6198 77.6375 39.078C77.6375 39.9172 78.0637 40.3968 78.8091 40.3968C79.9154 40.3968 80.4096 39.03 79.5972 38.2173C79.1287 37.7484 78.5951 37.7278 78.0491 38.1576ZM0.341573 38.9767C-0.102215 39.4495 -0.115961 40.3726 0.314393 40.8032C0.507779 40.9967 0.835035 41.1158 1.17354 41.1158C1.91303 41.1158 2.3451 40.6647 2.3451 39.8926C2.3451 38.7576 1.08731 38.1826 0.341573 38.9767ZM36.4099 43.0906C35.8087 43.8552 36.0905 45.2544 37.0699 46.3675C37.9448 47.3622 38.7438 47.7365 39.9913 47.7365C41.248 47.7365 42.0381 47.3617 42.9383 46.3383C44.3053 44.7845 44.176 42.6788 42.7136 42.6788C42.0259 42.6788 41.5871 43.1158 41.457 43.9302C41.3366 44.684 40.6569 45.3358 39.9913 45.3358C39.4016 45.3358 38.5854 44.6426 38.5854 44.1419C38.5854 42.8401 37.1516 42.1472 36.4099 43.0906ZM77.905 43.1495C76.7792 44.0356 77.586 45.7744 78.9625 45.4286C79.3446 45.3327 79.8244 44.6368 79.8244 44.1787C79.8244 43.7389 79.4784 43.1825 79.097 43.0086C78.564 42.7657 78.3623 42.7896 77.905 43.1495ZM0.726002 43.9405C0.313143 44.2655 0.17896 44.9573 0.411398 45.5632C0.557765 45.9449 1.34568 46.2952 1.80071 46.1809C2.68376 45.9591 2.95994 44.6865 2.27403 44.0003C1.80556 43.5314 1.27195 43.5107 0.726002 43.9405ZM17.3498 46.4211C16.9145 46.8567 16.8433 47.4628 16.9001 50.2416C16.967 53.5129 16.7175 53.3069 20.6115 53.3069C23.4654 53.3069 23.543 53.2983 23.8747 52.9452C24.3252 52.4652 24.3075 51.8232 23.8308 51.3462C23.4629 50.9779 23.365 50.9625 21.4095 50.9625H19.3718V48.9517C19.3718 47.1542 19.3374 46.8972 19.048 46.5291C18.6461 46.0179 17.8063 45.9644 17.3498 46.4211ZM60.9943 46.501C60.6263 46.8691 60.6108 46.9671 60.6108 48.9236V50.9625H58.5731C56.6177 50.9625 56.5197 50.9779 56.1518 51.3462C55.6598 51.8383 55.6506 52.5165 56.1298 52.9671C56.4743 53.2908 56.6289 53.3069 59.393 53.3069C63.2789 53.3069 63.0163 53.5356 63.0819 50.0927C63.1094 48.653 63.09 47.3086 63.0389 47.1049C62.7943 46.1296 61.691 45.8038 60.9943 46.501ZM76.9276 48.2202C76.1151 49.033 76.6094 50.3998 77.7156 50.3998C78.461 50.3998 78.8872 49.9201 78.8872 49.081C78.8872 47.9821 77.6908 47.4564 76.9276 48.2202ZM1.56406 48.9306C0.838003 49.6571 1.41957 51.1188 2.43461 51.1188C3.55993 51.1188 4.04199 49.8345 3.24111 48.9697C2.82357 48.5188 1.99488 48.4995 1.56406 48.9306ZM75.6426 52.7863C75.3878 52.8888 74.982 53.6711 74.982 54.0595C74.982 54.2242 75.1277 54.5441 75.3058 54.7706C76.0098 55.6662 77.4813 55.0801 77.4813 53.904C77.4813 53.0557 76.482 52.4484 75.6426 52.7863ZM3.48777 53.4608C2.43461 53.8958 2.67829 55.6107 3.83455 55.9011C4.59513 56.0921 5.41459 55.2193 5.23652 54.408C5.06422 53.6234 4.21195 53.1619 3.48777 53.4608ZM39.9913 54.0023C42.6836 54.0023 43.1508 53.9638 44.0137 53.6709L44.99 53.3397V54.9482V56.5566L44.2242 57.0482C42.8432 57.9348 41.8246 58.2158 39.9913 58.2158C38.1581 58.2158 37.1394 57.9348 35.7584 57.0482L34.9926 56.5566V54.9482V53.3397L35.9689 53.6709C36.8318 53.9638 37.2991 54.0023 39.9913 54.0023ZM73.5536 57.4512C72.6653 57.9342 72.6876 59.19 73.5938 59.6982C74.1584 60.0148 74.875 59.7093 75.2065 59.0105C75.4968 58.3979 75.3536 57.8518 74.8009 57.4645C74.367 57.1604 74.0941 57.1576 73.5536 57.4512ZM5.67468 57.9934C4.88942 58.3179 4.77851 59.3606 5.45724 60.0397C5.95539 60.5381 6.19095 60.5881 6.77907 60.3199C7.51575 59.9842 7.67321 58.8101 7.05634 58.254C6.70613 57.9381 6.09004 57.822 5.67468 57.9934ZM34.3035 59.0039C34.8735 59.3863 35.7888 59.8605 36.3378 60.0575C36.8867 60.2544 37.3358 60.4549 37.3358 60.5029C37.3358 60.5851 34.7388 63.0035 34.194 63.4285C33.9734 63.6007 33.773 63.3424 32.5784 61.3458C31.8285 60.0922 31.239 59.0462 31.2683 59.0214C31.2977 58.9967 31.7435 58.8317 32.259 58.6547C32.7745 58.4778 33.2122 58.3274 33.2315 58.3207C33.2511 58.314 33.7333 58.6213 34.3035 59.0039ZM47.8017 58.6974C48.2743 58.8504 48.6871 58.9984 48.7193 59.0261C48.7515 59.0539 48.1605 60.1003 47.4061 61.3515C46.0509 63.5988 46.0303 63.6231 45.7107 63.351C44.6413 62.4405 42.6469 60.58 42.6469 60.4929C42.6469 60.4362 42.9457 60.3021 43.3107 60.195C44.0206 59.9868 45.5975 59.1428 46.2396 58.6274C46.4544 58.455 46.7005 58.3376 46.7864 58.3665C46.8723 58.3954 47.3292 58.5444 47.8017 58.6974ZM53.0738 60.5082L54.6749 61.0318V67.8585V74.6852L52.9176 75.3282C49.6531 76.5226 46.0356 77.3024 42.9202 77.4831L41.241 77.5806V70.1034V62.6262L41.6706 63.0187C45.8037 66.7952 45.7457 66.7484 46.2832 66.7484C46.6324 66.7484 46.916 66.6297 47.1243 66.3967C47.297 66.2032 48.2758 64.6554 49.2993 62.9569C50.3228 61.2585 51.2305 59.8949 51.3164 59.9268C51.4023 59.9585 52.1932 60.2203 53.0738 60.5082ZM70.7458 61.748C70.2918 62.0134 70.0744 62.7752 70.2982 63.3158C70.6573 64.1835 71.5541 64.3525 72.2271 63.6793C73.0395 62.8663 72.5965 61.5851 71.5063 61.5953C71.2271 61.5979 70.8849 61.6665 70.7458 61.748ZM22.8084 67.6996V73.496L21.754 72.9103C21.174 72.5884 20.1105 71.9388 19.3907 71.4671L18.0817 70.6093L18.1634 68.2491C18.2084 66.9509 18.334 65.6426 18.4427 65.3417C18.7538 64.4803 19.4949 63.4926 20.1602 63.052C20.6159 62.7503 22.321 62.0048 22.7693 61.9113C22.7907 61.9068 22.8084 64.5116 22.8084 67.6996ZM59.7935 63.0532C61.3461 64.0985 61.8605 65.4938 61.8605 68.6603V70.6628L60.5115 71.5335C59.7693 72.0126 58.7149 72.6504 58.1683 72.9511L57.1742 73.4978V67.7107V61.9237L58.1191 62.243C58.639 62.4187 59.3924 62.7833 59.7935 63.0532ZM8.30585 62.3097C7.46046 62.9022 7.62197 64.1576 8.59562 64.5612C9.02988 64.7411 9.16516 64.7384 9.51303 64.5433C10.126 64.1995 10.3869 63.5562 10.1477 62.9782C9.96307 62.5324 9.30543 62.0595 8.87024 62.0595C8.7562 62.0595 8.50221 62.172 8.30585 62.3097ZM67.3549 65.8597C66.7615 66.4917 66.9763 67.5602 67.7566 67.857C68.6177 68.1846 69.6479 67.2559 69.4221 66.3553C69.2062 65.4945 67.9749 65.1995 67.3549 65.8597ZM11.5428 66.1243C11.4038 66.2055 11.2049 66.4775 11.1009 66.7287C10.7733 67.5198 11.502 68.4676 12.4379 68.4676C12.8762 68.4676 13.4359 67.7329 13.4359 67.1575C13.4359 66.2612 12.3357 65.6607 11.5428 66.1243Z" fill="white"/>
</g>
</g>
</svg>
