<svg width="40" height="40" viewBox="0 0 40 40" fill="none" xmlns="http://www.w3.org/2000/svg">
<mask id="mask0_29_8772" style="mask-type:alpha" maskUnits="userSpaceOnUse" x="0" y="0" width="40" height="40">
<rect width="40" height="40" fill="white"/>
</mask>
<g mask="url(#mask0_29_8772)">
<path fill-rule="evenodd" clip-rule="evenodd" d="M13.4397 0.21154C13.2842 0.409223 13.2778 0.508572 13.2778 2.73182V5.04637L12.954 5.43541C12.3297 6.18545 11.8766 7.43317 11.8732 8.41128C11.8699 9.37641 12.2872 10.9191 12.8585 12.0541C13.0047 12.3445 13.3873 12.9712 13.7087 13.4468L14.2931 14.3116V15.6158V16.9201L9.67654 24.6501C7.13743 28.9016 5.01104 32.5163 4.95121 32.6828C4.63543 33.5621 5.05548 34.7109 5.8787 35.2197C6.25907 35.4548 8.70554 36.2692 10.1249 36.6332C10.4249 36.7101 10.4543 36.7422 10.5401 37.0864C10.7631 37.9804 11.2601 38.4632 12.2944 38.7904C16.7687 40.2056 21.6373 40.385 26.0479 39.297C27.3248 38.9819 28.3185 38.6335 28.6409 38.3876C29.0431 38.0808 29.3474 37.6132 29.4536 37.1384C29.5446 36.7321 29.562 36.7107 29.868 36.632C30.6069 36.4418 32.282 35.9226 33.1329 35.6201C34.1708 35.2511 34.6017 34.9387 34.9018 34.3379C35.1411 33.8586 35.2042 33.1663 35.0491 32.7202C34.984 32.5331 32.8531 28.9016 30.3136 24.6501L25.6964 16.9201V15.5817V14.2433L25.9566 13.9001C27.2287 12.222 28.1086 9.99492 28.1136 8.44103C28.1167 7.44411 27.7152 6.31089 27.0658 5.4843L26.7118 5.0338V2.71143V0.38915L26.52 0.197481C26.2513 -0.0712766 25.8414 -0.064872 25.624 0.21154C25.4705 0.406724 25.4621 0.513727 25.4621 2.28967C25.4621 4.04257 25.4534 4.15832 25.3254 4.10482C24.6535 3.8238 24.1985 3.73328 23.4314 3.72797C22.2455 3.71977 21.3247 4.03492 20.4008 4.76527L19.9948 5.08621L19.5888 4.76527C18.6648 4.03492 17.744 3.71977 16.5582 3.72797C15.791 3.73328 15.3361 3.8238 14.6641 4.10482C14.5361 4.15832 14.5275 4.04187 14.5275 2.27561V0.38915L14.3357 0.197481C14.067 -0.0712766 13.6571 -0.064872 13.4397 0.21154ZM1.73619 2.40112C1.55288 2.47493 1.40588 2.88436 1.40588 3.32128V3.75476H1.027C0.304296 3.75476 0 3.95986 0 4.44692C0 4.81854 0.302968 5.00443 0.908747 5.00443H1.40588V5.51812C1.40588 5.98175 1.42814 6.05408 1.63418 6.26012C1.92294 6.54887 2.1385 6.54887 2.42726 6.26012C2.6333 6.05408 2.65556 5.98175 2.65556 5.51812V5.00443H3.1887C3.65506 5.00443 3.74457 4.98022 3.90359 4.81096C4.12713 4.57298 4.13361 4.18269 3.91757 3.96665C3.80393 3.85309 3.61968 3.80279 3.20979 3.77342L2.65556 3.73375V3.23302C2.65556 2.80555 2.62752 2.70425 2.46381 2.54062C2.28237 2.3591 1.98323 2.30178 1.73619 2.40112ZM37.5258 2.54062C37.362 2.70425 37.334 2.80555 37.334 3.23302V3.73375L36.7798 3.77342C36.3699 3.80279 36.1856 3.85309 36.072 3.96665C35.856 4.18269 35.8624 4.57298 36.086 4.81096C36.245 4.98022 36.3345 5.00443 36.8009 5.00443H37.334V5.46939C37.334 6.01862 37.4371 6.28292 37.6977 6.40172C37.9884 6.53411 38.1069 6.50857 38.3554 6.26012C38.5614 6.05408 38.5837 5.98175 38.5837 5.51812V5.00443H39.0808C39.6866 5.00443 39.9896 4.81854 39.9896 4.44692C39.9896 3.95986 39.6853 3.75476 38.9626 3.75476H38.5837V3.32128C38.5837 2.86022 38.4365 2.47712 38.2287 2.39738C37.9748 2.29998 37.713 2.35325 37.5258 2.54062ZM17.4564 5.03263C18.1425 5.21625 18.6814 5.54609 19.2346 6.12117C19.9428 6.85754 20.0467 6.85754 20.755 6.12117C21.7496 5.08714 22.9675 4.71232 24.2487 5.04606C25.2741 5.3131 26.0787 5.98207 26.5474 6.95705C26.8236 7.53182 26.8289 7.5604 26.8249 8.48009C26.8214 9.29214 26.7914 9.50607 26.6008 10.0812C26.3121 10.9523 25.8747 11.8272 25.2828 12.7173L24.8024 13.4397H23.7711C22.75 13.4397 22.7382 13.4418 22.5779 13.6455C22.3725 13.9066 22.3725 14.1444 22.5779 14.4055C22.7352 14.6054 22.7643 14.6113 23.5933 14.6113H24.4467V15.5486V16.4858H19.9948H15.5428V15.5486V14.6113H17.8439C20.1104 14.6113 20.1473 14.6087 20.3042 14.4403C20.5114 14.218 20.5128 13.8016 20.3072 13.5959C20.1576 13.4464 20.0452 13.4396 17.6712 13.4375L15.1913 13.4352L14.871 12.9884C13.672 11.3154 13.0683 9.65587 13.1409 8.23148C13.1722 7.61609 13.2162 7.43309 13.4506 6.94275C14.1727 5.43221 15.8897 4.61352 17.4564 5.03263ZM7.37737 13.8658C7.21281 14.0303 7.18562 14.13 7.18562 14.5687V15.0799H6.76113C6.23337 15.0799 5.98133 15.1724 5.81426 15.4273C5.66204 15.6596 5.7096 15.947 5.9379 16.1753C6.06209 16.2995 6.19862 16.3296 6.63889 16.3296H7.18562V16.8309C7.18562 17.1066 7.20749 17.3891 7.23413 17.4586C7.30583 17.6455 7.70143 17.8243 7.92121 17.7691C8.25425 17.6856 8.37477 17.4691 8.41702 16.8784L8.45631 16.3296H8.95704C9.3845 16.3296 9.48581 16.3016 9.64943 16.1379C9.86055 15.9268 9.89812 15.591 9.73472 15.3759C9.58961 15.185 9.26532 15.0799 8.82074 15.0799H8.4353V14.7474C8.4353 14.3068 8.31736 13.9154 8.14537 13.785C7.92457 13.6175 7.59044 13.6526 7.37737 13.8658ZM31.8502 13.7805C31.6593 13.9256 31.5543 14.2499 31.5543 14.6945V15.0799H31.1688C30.7242 15.0799 30.4 15.185 30.2548 15.3759C30.0914 15.591 30.129 15.9268 30.3401 16.1379C30.5038 16.3016 30.6051 16.3296 31.0325 16.3296H31.5333L31.5725 16.8784C31.6148 17.4691 31.7353 17.6856 32.0683 17.7691C32.2881 17.8243 32.6837 17.6455 32.7554 17.4586C32.7821 17.3891 32.8039 17.1066 32.8039 16.8309V16.3296H33.3507C33.7909 16.3296 33.9275 16.2995 34.0517 16.1753C34.28 15.947 34.3275 15.6596 34.1753 15.4273C34.0082 15.1724 33.7562 15.0799 33.2284 15.0799H32.8039V14.5687C32.8039 14.13 32.7768 14.0303 32.6122 13.8658C32.4012 13.6547 32.0653 13.6171 31.8502 13.7805ZM15.8559 18.458C13.5977 25.9376 12.5748 29.3874 12.5748 29.5243C12.5748 29.7563 12.9152 30.076 13.1622 30.076C13.4525 30.076 13.6339 29.959 13.7324 29.708C13.7795 29.5882 14.5767 26.9596 15.5041 23.8667C16.4315 20.7738 17.2265 18.1289 17.2708 17.9893L17.3513 17.7355H19.9978H22.6443L22.7611 18.1287C22.8253 18.345 24.0959 22.5679 25.5846 27.5129C28.4885 37.1589 28.4221 36.8935 28.035 37.3056C27.7573 37.6012 25.9762 38.1309 24.2628 38.4275C21.4733 38.9104 18.1935 38.8796 15.5051 38.3451C14.0436 38.0546 12.3425 37.579 12.1026 37.3939C11.8806 37.2225 11.7157 36.9167 11.7166 36.678C11.7171 36.5479 11.9807 35.5658 12.3024 34.4956C12.624 33.4253 12.8873 32.4835 12.8873 32.4027C12.8873 32.1759 12.5367 31.8724 12.2746 31.8724C11.8546 31.8724 11.7573 32.0506 11.2514 33.7469C10.9886 34.6276 10.7591 35.3901 10.7411 35.4413C10.7007 35.5571 9.81127 35.3232 7.92762 34.7014C6.34194 34.1781 6.09216 34.001 6.09216 33.3997C6.09216 33.0594 6.37006 32.571 10.552 25.5619C13.005 21.4507 15.0618 18.0079 15.1229 17.9112C15.2156 17.7645 15.3034 17.7355 15.654 17.7355H16.0741L15.8559 18.458ZM29.3372 25.3897C33.6094 32.5363 33.8899 33.0277 33.8935 33.3747C33.8998 33.9756 33.6851 34.145 32.3353 34.6047C30.6543 35.177 29.285 35.5465 29.2464 35.438C29.2289 35.3885 28.053 31.4819 26.6334 26.7566C25.2137 22.0312 24.0192 18.0667 23.9788 17.9464L23.9055 17.7278L24.3451 17.7512L24.7847 17.7745L29.3372 25.3897ZM3.49823 20.3413C3.30734 20.4864 3.20229 20.8107 3.20229 21.2553V21.6407H2.81684C2.37227 21.6407 2.04798 21.7458 1.90286 21.9367C1.73947 22.1518 1.77704 22.4876 1.98815 22.6986C2.15178 22.8623 2.25308 22.8904 2.68055 22.8904H3.18128L3.22057 23.4391C3.26282 24.0299 3.38334 24.2464 3.71637 24.3299C3.93616 24.3851 4.33176 24.2063 4.40346 24.0194C4.43009 23.9499 4.45196 23.6674 4.45196 23.3917V22.8904H4.9987C5.43897 22.8904 5.5755 22.8603 5.69968 22.7361C5.92798 22.5078 5.97555 22.2204 5.82332 21.9881C5.65626 21.7332 5.40421 21.6407 4.87646 21.6407H4.45196V21.1295C4.45196 20.6908 4.42478 20.5911 4.26022 20.4266C4.04918 20.2155 3.71333 20.1779 3.49823 20.3413ZM35.7293 20.4266C35.5648 20.5911 35.5376 20.6908 35.5376 21.1295V21.6407H35.1131C34.5854 21.6407 34.3333 21.7332 34.1662 21.9881C34.014 22.2204 34.0616 22.5078 34.2899 22.7361C34.4141 22.8603 34.5506 22.8904 34.9909 22.8904H35.5376V23.3917C35.5376 23.6674 35.5595 23.9499 35.5861 24.0194C35.6578 24.2063 36.0534 24.3851 36.2732 24.3299C36.6062 24.2464 36.7267 24.0299 36.769 23.4391L36.8083 22.8904H37.309C37.7365 22.8904 37.8378 22.8623 38.0014 22.6986C38.2125 22.4876 38.2501 22.1518 38.0867 21.9367C37.9416 21.7458 37.6173 21.6407 37.1727 21.6407H36.7873V21.3082C36.7873 20.8676 36.6693 20.4762 36.4973 20.3457C36.2765 20.1783 35.9424 20.2134 35.7293 20.4266Z" fill="black"/>
</g>
</svg>
