<svg width="105" height="100" viewBox="0 0 105 100" fill="none" xmlns="http://www.w3.org/2000/svg">
<g id="Logo">
<path id="Vector" fill-rule="evenodd" clip-rule="evenodd" d="M56.4941 0.0563645C56.5739 0.144192 57.5457 0.425817 58.6538 0.682101C62.9951 1.68651 67.6796 4.71268 70.4334 8.29146C72.0863 10.4396 73.8912 14.1938 74.464 16.6751C74.7015 17.7046 75.1623 20.4221 75.488 22.714C76.0063 26.3607 76.1664 26.9542 76.77 27.4653C77.6713 28.229 78.0897 29.0975 78.0897 30.2047C78.0897 33.3328 74.4548 34.7703 72.2133 32.5288C71.4611 31.7766 71.3226 31.4196 71.3226 30.234C71.3226 29.2921 71.4914 28.6436 71.8349 28.2638C72.3267 27.7204 72.3218 27.5451 71.718 23.9142C71.149 20.4949 71.0315 20.1307 70.4973 20.1307C70.1725 20.1307 63.4313 21.1074 55.5173 22.3016C47.6033 23.4955 40.9569 24.4066 40.7476 24.3262C40.2165 24.1227 40.2502 19.6538 40.8 17.3219C42.2202 11.2983 47.3073 6.18243 53.613 4.43595L55.1968 3.99739L52.6052 4.10739C44.7027 4.44258 38.126 10.1356 36.7317 17.848C36.239 20.5733 36.3412 23.4278 37.1213 28.7286C37.5379 31.5604 37.6934 32.0588 38.2794 32.443C39.7794 33.4258 40.1912 35.4525 39.2159 37.0521C36.8572 40.9205 31.2313 37.5422 33.3354 33.5208C33.7481 32.7321 33.7441 32.3621 33.2882 29.2734C32.8534 26.3287 32.7183 25.8899 32.2464 25.8899C31.7099 25.8899 21.8162 27.3432 21.7687 27.429C21.7551 27.4535 22.1036 32.333 22.5427 38.2722C22.9818 44.2113 23.3493 49.4272 23.3591 49.8626L23.3772 50.6545H27.6966H32.016V53.2461V55.8377H20.2096H8.40326V58.4308V61.0242L33.7991 60.9505L59.1949 60.8771L63.1609 55.4058L67.1273 49.9346L54.3229 49.8597L41.5187 49.7845V44.7484V39.712H61.1H80.6813L80.6733 43.9594L80.6652 48.2068L67.4714 66.9242L54.2779 85.6417L64.8159 85.7168L75.3541 85.792L89.8537 81.4878C97.8285 79.1205 104.395 77.1422 104.445 77.0918C104.599 76.938 88.4205 17.99 88.1453 17.7014C87.986 17.5344 86.2295 17.679 83.5364 18.0807C81.1429 18.4377 79.133 18.6782 79.0696 18.6151C79.0066 18.5518 78.6956 17.4857 78.3782 16.2458C76.0267 7.05121 68.5308 0.850271 58.8513 0.0929351C57.4749 -0.01505 56.414 -0.0311755 56.4941 0.0563645ZM0.0394487 66.3483C0.0322497 66.4275 0.0201611 67.6263 0.0129621 69.0119L0 71.5316L12.4802 71.6756L24.9604 71.8195L25.9821 85.9296C26.5741 94.1063 27.1192 100.023 27.2782 99.9999C28.4191 99.8346 40.9163 95.9878 40.5489 95.9152C40.1397 95.834 40.0789 95.2734 40.0789 91.5759V87.33L47.4562 77.133C51.5138 71.5247 54.8968 66.7713 54.974 66.5703C55.0871 66.276 49.7273 66.2043 27.5834 66.2043C12.4413 66.2043 0.0466477 66.2691 0.0394487 66.3483Z" fill="#FE6601"/>
</g>
</svg>
