<svg width="18" height="18" viewBox="0 0 18 18" fill="none" xmlns="http://www.w3.org/2000/svg">
<g id="Icon">
<mask id="mask0_29_7636" style="mask-type:alpha" maskUnits="userSpaceOnUse" x="0" y="0" width="18" height="18">
<rect id="Bounding box" width="18" height="18" fill="white"/>
</mask>
<g mask="url(#mask0_29_7636)">
<g id="Icon_2">
<path id="Vector" d="M12 10.5C12 11.3284 12.6716 12 13.5 12C14.3284 12 15 11.3284 15 10.5C15 9.67157 14.3284 9 13.5 9C12.6716 9 12 9.67157 12 10.5Z" stroke="#555555" stroke-width="2" stroke-linecap="round" stroke-linejoin="round"/>
<path id="Vector_2" d="M13.5 3L13.5 9" stroke="#555555" stroke-width="2" stroke-linecap="round" stroke-linejoin="round"/>
<path id="Vector_3" d="M13.5 12L13.5 15" stroke="#555555" stroke-width="2" stroke-linecap="round" stroke-linejoin="round"/>
<path id="Vector_4" d="M7.5 6C7.5 6.82843 8.17157 7.5 9 7.5C9.82843 7.5 10.5 6.82843 10.5 6C10.5 5.17157 9.82843 4.5 9 4.5C8.17157 4.5 7.5 5.17157 7.5 6Z" stroke="#555555" stroke-width="2" stroke-linecap="round" stroke-linejoin="round"/>
<path id="Vector_5" d="M9 3L9 4.5" stroke="#555555" stroke-width="2" stroke-linecap="round" stroke-linejoin="round"/>
<path id="Vector_6" d="M9 7.5L9 15" stroke="#555555" stroke-width="2" stroke-linecap="round" stroke-linejoin="round"/>
<path id="Vector_7" d="M3 12.75C3 13.5784 3.67157 14.25 4.5 14.25C5.32843 14.25 6 13.5784 6 12.75C6 11.9216 5.32843 11.25 4.5 11.25C3.67157 11.25 3 11.9216 3 12.75Z" stroke="#555555" stroke-width="2" stroke-linecap="round" stroke-linejoin="round"/>
<path id="Vector_8" d="M4.5 3L4.5 11.25" stroke="#555555" stroke-width="2" stroke-linecap="round" stroke-linejoin="round"/>
<path id="Vector_9" d="M4.5 14.25L4.5 15" stroke="#555555" stroke-width="2" stroke-linecap="round" stroke-linejoin="round"/>
</g>
</g>
</g>
</svg>
