<svg width="40" height="40" viewBox="0 0 40 40" fill="none" xmlns="http://www.w3.org/2000/svg">
<g id="Icon">
<mask id="mask0_29_8724" style="mask-type:alpha" maskUnits="userSpaceOnUse" x="0" y="0" width="40" height="40">
<rect id="Bounding box" width="40" height="40" fill="white"/>
</mask>
<g mask="url(#mask0_29_8724)">
<path id="Vector" fill-rule="evenodd" clip-rule="evenodd" d="M24.6526 2.07496C22.9143 2.25794 21.1207 3.25711 20.0879 4.61793C19.619 5.23573 19.0681 6.33322 18.8576 7.06913C18.7449 7.46268 18.7121 7.84139 18.7119 8.74964C18.7116 10.299 18.7831 10.5322 20.1961 13.5841C20.8194 14.9303 21.3293 16.0753 21.3293 16.1285C21.3293 16.1817 21.224 16.3783 21.0952 16.5656C20.7241 17.1048 20.1569 18.2817 20.1569 18.5122C20.1569 18.9319 20.6866 19.2281 21.1317 19.0572C21.2021 19.0302 21.4202 18.6873 21.6166 18.2951C22.1234 17.2828 22.6081 16.5886 23.2869 15.9032C25.4359 13.7328 28.6515 12.9016 31.6078 13.7523C34.5133 14.5885 36.7163 16.8528 37.5259 19.835C37.6754 20.3856 37.6997 20.6745 37.7014 21.9202C37.7036 23.5285 37.6124 24.0279 37.0905 25.2655C36.5209 26.6159 35.2467 28.1714 34.0806 28.9398L33.5832 29.2675H31.3708C30.154 29.2675 29.1015 29.2894 29.0319 29.3161C28.8317 29.3929 28.66 29.7955 28.717 30.0548C28.8172 30.5107 28.863 30.5181 31.5702 30.5181H34.0382L34.57 30.1689C36.4841 28.9116 37.7923 27.261 38.5533 25.1432C39.237 23.24 39.256 20.8073 38.6024 18.8562C38.3528 18.1111 37.8521 17.0664 37.4958 16.5474L37.2685 16.2161L38.4429 13.6778C39.0888 12.2818 39.6912 10.8832 39.7816 10.5699C40.0185 9.74834 40.0715 8.31732 39.897 7.45479C39.3072 4.5393 36.9067 2.37527 33.9249 2.07105C32.9747 1.97413 25.581 1.97726 24.6526 2.07496ZM34.6953 3.49527C34.9317 3.56663 35.4219 3.77173 35.7845 3.95112C36.9823 4.54344 38.0605 5.80961 38.4614 7.09461C38.7981 8.17366 38.8028 9.38042 38.4742 10.3911C38.3666 10.7218 36.4525 14.9492 36.3736 15.0302C36.3212 15.084 35.2036 14.0719 35.2225 13.9878C35.233 13.9408 35.6269 13.0701 36.0977 12.053C36.5685 11.0358 37.0083 10.0196 37.075 9.79461C37.3232 8.95912 37.1856 7.69647 36.7615 6.91734C36.0353 5.58301 34.743 4.85586 33.0803 4.84617C32.3441 4.84179 32.2712 4.85531 32.0837 5.03094C31.8376 5.26145 31.8147 5.6407 32.0308 5.90755C32.167 6.07575 32.2588 6.09623 33.0686 6.13938C34.1162 6.19511 34.502 6.33494 35.0676 6.86395C35.5038 7.27204 35.7563 7.73243 35.8687 8.32459C36.0124 9.08254 35.8957 9.42849 34.4587 12.5061C34.249 12.9549 34.057 13.3222 34.0319 13.3222C34.0068 13.3222 33.9084 13.2717 33.8132 13.21C33.718 13.1484 33.3355 12.9755 32.9633 12.8261C30.5062 11.8392 27.8278 11.8786 25.3583 12.9379C24.9432 13.1158 24.5916 13.2488 24.5769 13.2332C24.5403 13.1946 23.0504 9.9711 22.9562 9.72669C22.5656 8.71408 22.8202 7.60697 23.6146 6.86395C24.3613 6.16549 24.3029 6.17557 27.8435 6.13117L30.9575 6.09209L31.1068 5.90755C31.3015 5.66688 31.3002 5.2373 31.1041 5.04126C31.0205 4.95763 30.8334 4.86696 30.6881 4.83976C30.543 4.81256 29.1429 4.80365 27.5768 4.82006C24.9042 4.84804 24.6979 4.86039 24.2158 5.02039C22.5317 5.57934 21.4857 7.02411 21.4857 8.79099C21.4857 9.5967 21.6014 9.94038 22.5885 12.0649C23.0567 13.0727 23.4397 13.9298 23.4397 13.9697C23.4397 14.0096 23.343 14.1171 23.2248 14.2086C23.1066 14.3001 22.8494 14.5236 22.6532 14.7054L22.2964 15.0359L21.3355 12.9553C20.2308 10.5636 20.1164 10.2602 20.0009 9.41661C19.7757 7.77174 20.352 6.15118 21.6047 4.90674C22.1334 4.38148 22.3768 4.20624 22.9802 3.91634C23.3834 3.72265 23.9068 3.52653 24.1432 3.48057C24.3797 3.43461 24.6435 3.38224 24.7294 3.36419C24.8154 3.34621 26.9962 3.3391 29.5756 3.34848C33.6885 3.36333 34.3183 3.38139 34.6953 3.49527ZM7.25993 13.3192C6.33463 13.4493 5.65485 13.7297 4.65764 14.3926C3.95933 14.8569 2.76796 15.9951 2.22973 16.7121C1.12888 18.1789 0.342084 20.0979 0.0651517 21.9916C-0.0660064 22.8885 0.00879593 24.5122 0.21843 25.3203C0.556174 26.622 1.33937 27.8449 2.2184 28.4431C2.8319 28.8606 6.84043 30.7096 7.49348 30.8762C8.53853 31.143 10.5299 30.8512 11.0595 30.3538C11.4481 29.9887 11.1945 29.2675 10.6775 29.2675C10.5636 29.2675 10.2956 29.3365 10.0819 29.4206C8.23682 30.1479 6.38396 29.4324 5.58255 27.6834C5.28287 27.0293 5.07136 26.1655 5.07136 25.5954C5.07136 25.0794 4.90065 24.6763 4.64013 24.5773C4.33748 24.4621 4.24783 24.4792 3.98309 24.7019C3.76165 24.8882 3.74282 24.9425 3.74532 25.3859C3.74868 25.9822 3.90837 26.8895 4.11886 27.5081C4.20648 27.7656 4.26096 27.9936 4.23993 28.0146C4.13223 28.1223 2.96189 27.4013 2.52065 26.9555C1.63764 26.0631 1.31225 25.0773 1.3128 23.2957C1.31326 21.6608 1.6242 20.4243 2.43108 18.8481C3.0982 17.545 3.90375 16.5767 5.02282 15.7328C6.69419 14.4724 8.064 14.2652 9.74897 15.0183L10.2448 15.2399L9.34173 15.6893C7.32246 16.694 5.88144 18.1725 4.91089 20.2352C4.45207 21.2103 4.05641 22.3743 3.99857 22.9193C3.96042 23.2779 3.97856 23.3577 4.13582 23.5251C4.3639 23.7679 4.82514 23.7905 5.02579 23.5688C5.10004 23.4867 5.26591 23.0568 5.39441 22.6134C6.30204 19.4822 8.44192 17.056 10.8364 16.4437C11.5513 16.2608 12.0008 16.2532 12.6165 16.4136C13.7981 16.7213 14.8976 17.948 15.1547 19.2453C15.343 20.1952 15.382 20.2838 15.6637 20.4015C16.1358 20.5988 16.5625 20.2809 16.5602 19.7337C16.5575 19.0765 16.1356 17.8653 15.6717 17.1825C15.3943 16.7744 14.807 16.1758 14.3337 15.8188C13.8582 15.4604 9.88638 13.6123 9.2445 13.4509C8.64264 13.2997 7.79746 13.2435 7.25993 13.3192ZM28.4481 17.424C27.5741 17.5877 26.7889 18.0099 26.1313 18.6695C25.5106 19.2922 25.0812 19.9795 25.0812 20.3504C25.0812 20.816 25.6049 21.1257 26.0183 20.9045C26.0982 20.8618 26.2791 20.6244 26.4204 20.3769C27.3241 18.7948 29.1648 18.2119 30.7744 18.9982C32.0057 19.5997 32.7623 21.0698 32.5321 22.4138C32.2822 23.8725 31.2188 24.8845 29.6493 25.1575C29.1928 25.2369 28.9999 25.3085 28.8953 25.4377C28.6956 25.6844 28.7173 26.0323 28.9467 26.2618C29.4581 26.7732 31.3394 26.2273 32.3971 25.2606C33.3176 24.4194 33.8442 23.2256 33.8535 21.9592C33.8627 20.6964 33.4769 19.7119 32.6133 18.7949C31.5261 17.6405 29.9905 17.135 28.4481 17.424ZM18.4764 19.8802C17.2652 20.2075 16.1022 20.9092 15.0178 21.9671L14.3493 22.6193L12.7 21.7152C11.793 21.2179 10.9254 20.7931 10.7721 20.7711C10.1401 20.6802 9.30508 21.2876 8.85282 22.1672C8.67633 22.5105 8.63326 22.7093 8.60997 23.288C8.56628 24.3736 8.6088 24.4244 10.3865 25.4074C11.1818 25.8472 11.9275 26.2599 12.0436 26.3245L12.2547 26.4419L12.1021 26.9754C11.8308 27.9238 11.6912 29.1413 11.7408 30.1273C11.8491 32.2816 12.671 34.0013 14.0211 34.8983C14.6816 35.3373 18.6964 37.1828 19.2893 37.32C20.7687 37.6625 22.5628 37.171 24.1218 35.9963C26.1476 34.4697 27.5851 32.1129 28.1838 29.3359C28.3951 28.3557 28.3732 26.2539 28.1427 25.3984C27.7839 24.0674 27.0475 22.915 26.1533 22.286C25.7003 21.9672 22.2136 20.2995 21.2512 19.9413C20.6279 19.7093 19.2231 19.6784 18.4764 19.8802ZM20.3958 21.0612C21.0768 21.1904 22.2037 21.7638 21.7766 21.7638C21.6086 21.7638 20.5763 22.2857 20.0869 22.6181C19.0644 23.3124 18.067 24.3299 17.3641 25.3955C16.9097 26.0845 16.2377 27.4834 15.9819 28.2727C15.386 30.1119 15.3212 32.3079 15.8176 33.8289C15.9257 34.1602 16.0142 34.448 16.0142 34.4687C16.0142 34.591 14.6715 33.8009 14.3292 33.4771C12.9539 32.1764 12.6183 29.4524 13.5087 26.818C14.4726 23.9665 16.5569 21.7194 18.7782 21.137C19.4214 20.9685 19.8105 20.9502 20.3958 21.0612ZM12.1141 22.8787L13.5682 23.6788L13.1577 24.407C12.9319 24.8075 12.7337 25.1486 12.7174 25.165C12.701 25.1813 12.0556 24.8482 11.283 24.4246L9.8784 23.6545L9.88997 23.3079C9.90334 22.9081 10.1492 22.3766 10.4028 22.1989C10.4989 22.1316 10.5961 22.077 10.6188 22.0775C10.6415 22.0781 11.3143 22.4386 12.1141 22.8787ZM24.0537 22.7836C24.755 22.8974 25.3666 23.2312 25.8685 23.7744C26.6913 24.6646 27.0508 25.7477 27.0562 27.3525C27.0666 30.4902 25.458 33.5617 22.9126 35.2643C21.7679 36.03 20.7321 36.2734 19.6202 36.038C18.9336 35.8926 18.4348 35.5935 17.8969 35.0049C17.1531 34.1913 16.887 33.3995 16.8221 31.8078C16.7512 30.067 17.0647 28.6934 17.9073 27.053C19.0825 24.7652 21.1616 23.0253 23.0098 22.7831C23.2678 22.7492 23.4964 22.7174 23.5179 22.7123C23.5394 22.7072 23.7805 22.7392 24.0537 22.7836Z" fill="black"/>
</g>
</g>
</svg>
