<svg width="24" height="24" viewBox="0 0 24 24" fill="none" xmlns="http://www.w3.org/2000/svg">
<mask id="mask0_29_9423" style="mask-type:alpha" maskUnits="userSpaceOnUse" x="0" y="0" width="24" height="24">
<rect width="24" height="24" fill="white"/>
</mask>
<g mask="url(#mask0_29_9423)">
<path d="M4 18.6667C4 19.1972 4.21071 19.7059 4.58579 20.081C4.96086 20.456 5.46957 20.6667 6 20.6667C6.53043 20.6667 7.03914 20.456 7.41421 20.081C7.78929 19.7059 8 19.1972 8 18.6667C8 18.1363 7.78929 17.6276 7.41421 17.2525C7.03914 16.8775 6.53043 16.6667 6 16.6667C5.46957 16.6667 4.96086 16.8775 4.58579 17.2525C4.21071 17.6276 4 18.1363 4 18.6667Z" stroke="white" stroke-width="2" stroke-linecap="round" stroke-linejoin="round"/>
<path d="M15 18.6667C15 19.1972 15.2107 19.7059 15.5858 20.081C15.9609 20.456 16.4696 20.6667 17 20.6667C17.5304 20.6667 18.0391 20.456 18.4142 20.081C18.7893 19.7059 19 19.1972 19 18.6667C19 18.1363 18.7893 17.6276 18.4142 17.2525C18.0391 16.8775 17.5304 16.6667 17 16.6667C16.4696 16.6667 15.9609 16.8775 15.5858 17.2525C15.2107 17.6276 15 18.1363 15 18.6667Z" stroke="white" stroke-width="2" stroke-linecap="round" stroke-linejoin="round"/>
<path d="M17 16.6667H6V2.66675H4" stroke="white" stroke-width="2" stroke-linecap="round" stroke-linejoin="round"/>
<path d="M6 4.66675L20 5.66675L19 12.6667H6" stroke="white" stroke-width="2" stroke-linecap="round" stroke-linejoin="round"/>
</g>
</svg>
