<svg width="24" height="24" viewBox="0 0 24 24" fill="none" xmlns="http://www.w3.org/2000/svg">
<g id="Icon">
<mask id="mask0_29_3037" style="mask-type:alpha" maskUnits="userSpaceOnUse" x="0" y="0" width="24" height="24">
<rect id="Bounding box" width="24" height="24" fill="white"/>
</mask>
<g mask="url(#mask0_29_3037)">
<g id="Icon_2">
<path id="Vector" d="M3 9C3 8.73478 3.10536 8.48043 3.29289 8.29289C3.48043 8.10536 3.73478 8 4 8H20C20.2652 8 20.5196 8.10536 20.7071 8.29289C20.8946 8.48043 21 8.73478 21 9V11C21 11.2652 20.8946 11.5196 20.7071 11.7071C20.5196 11.8946 20.2652 12 20 12H4C3.73478 12 3.48043 11.8946 3.29289 11.7071C3.10536 11.5196 3 11.2652 3 11V9Z" stroke="#FE6601" stroke-width="2" stroke-linecap="round" stroke-linejoin="round"/>
<path id="Vector_2" d="M12 8V21" stroke="#FE6601" stroke-width="2" stroke-linecap="round" stroke-linejoin="round"/>
<path id="Vector_3" d="M19 12V19C19 19.5304 18.7893 20.0391 18.4142 20.4142C18.0391 20.7893 17.5304 21 17 21H7C6.46957 21 5.96086 20.7893 5.58579 20.4142C5.21071 20.0391 5 19.5304 5 19V12" stroke="#FE6601" stroke-width="2" stroke-linecap="round" stroke-linejoin="round"/>
<path id="Vector_4" d="M7.5 8.00001C6.83696 8.00001 6.20107 7.73662 5.73223 7.26778C5.26339 6.79894 5 6.16305 5 5.50001C5 4.83697 5.26339 4.20108 5.73223 3.73224C6.20107 3.2634 6.83696 3.00001 7.5 3.00001C8.46469 2.9832 9.41003 3.45127 10.2127 4.34317C11.0154 5.23507 11.6383 6.50941 12 8.00001C12.3617 6.50941 12.9846 5.23507 13.7873 4.34317C14.59 3.45127 15.5353 2.9832 16.5 3.00001C17.163 3.00001 17.7989 3.2634 18.2678 3.73224C18.7366 4.20108 19 4.83697 19 5.50001C19 6.16305 18.7366 6.79894 18.2678 7.26778C17.7989 7.73662 17.163 8.00001 16.5 8.00001" stroke="#FE6601" stroke-width="2" stroke-linecap="round" stroke-linejoin="round"/>
</g>
</g>
</g>
</svg>
