<svg width="34" height="14" viewBox="0 0 34 14" fill="none" xmlns="http://www.w3.org/2000/svg">
<path fill-rule="evenodd" clip-rule="evenodd" d="M15.5861 10.704V6.79112H17.6226C18.4571 6.79112 19.1614 6.51383 19.7356 5.96695L19.8734 5.82831C20.9223 4.69604 20.8534 2.93217 19.7356 1.88463C19.1767 1.33005 18.4112 1.02965 17.6226 1.04506H14.3535V10.704H15.5861ZM15.5853 5.60486V2.23117H17.6527C18.0968 2.23117 18.518 2.40062 18.8319 2.70872C19.4981 3.35573 19.5134 4.43408 18.8702 5.1042C18.5563 5.4354 18.1121 5.62026 17.6527 5.60486H15.5853ZM25.6219 4.61127C25.0936 4.12601 24.3739 3.87953 23.4629 3.87953C22.2915 3.87953 21.4111 4.31087 20.8293 5.16585L21.9164 5.85137C22.3145 5.26598 22.8581 4.97329 23.5471 4.97329C23.9835 4.97329 24.4046 5.13504 24.7338 5.42773C25.0553 5.70502 25.2391 6.10555 25.2391 6.52919V6.81418C24.7644 6.5523 24.1672 6.41365 23.4323 6.41365C22.5748 6.41365 21.8858 6.61392 21.3728 7.02215C20.8599 7.43038 20.5996 7.96956 20.5996 8.65508C20.5843 9.27898 20.8522 9.87208 21.3269 10.2726C21.8092 10.7039 22.4217 10.9196 23.1413 10.9196C23.9912 10.9196 24.6649 10.5422 25.1778 9.78735H25.2314V10.7039H26.4104V6.62932C26.4104 5.77435 26.1501 5.09653 25.6219 4.61127ZM22.2756 9.48697C22.0229 9.30211 21.8698 9.00172 21.8698 8.67821C21.8698 8.3162 22.0382 8.0158 22.3675 7.77702C22.7044 7.53824 23.1256 7.415 23.6233 7.415C24.3124 7.4073 24.8484 7.56135 25.2313 7.86945C25.2313 8.39322 25.0245 8.84767 24.6187 9.23279C24.2512 9.60251 23.7534 9.81048 23.2328 9.81048C22.8882 9.81818 22.5513 9.70264 22.2756 9.48697ZM29.062 13.6078L33.1809 4.0952H31.8411L29.9348 8.83993H29.9118L27.9596 4.0952H26.6198L29.3223 10.2803L27.7911 13.6078H29.062Z" fill="#3C4043"/>
<path d="M11.3313 5.94384C11.3313 5.56642 11.3006 5.18899 11.2394 4.81927H6.04102V6.95287H9.01917C8.89667 7.63839 8.49856 8.25459 7.91671 8.63971V10.0262H9.69289C10.7341 9.06335 11.3313 7.63839 11.3313 5.94384Z" fill="#4285F4"/>
<path d="M6.04189 11.3664C7.52714 11.3664 8.78271 10.8734 9.69376 10.0262L7.91759 8.63971C7.41996 8.97862 6.78452 9.17119 6.04189 9.17119C4.60258 9.17119 3.38529 8.19297 2.9489 6.88354H1.11914V8.31621C2.05316 10.1879 3.95948 11.3664 6.04189 11.3664Z" fill="#25D366"/>
<path d="M2.94891 6.88355C2.7192 6.19803 2.7192 5.45089 2.94891 4.75766V3.3327H1.11886C0.330173 4.89631 0.330173 6.74491 1.11886 8.30852L2.94891 6.88355Z" fill="#FBBC04"/>
<path d="M6.04189 2.47002C6.83045 2.45462 7.58839 2.75501 8.15492 3.30189L9.73204 1.71518C8.72912 0.775472 7.4123 0.259405 6.04189 0.27481C3.95948 0.27481 2.05316 1.46099 1.11914 3.3327L2.9489 4.76537C3.38529 3.44824 4.60258 2.47002 6.04189 2.47002Z" fill="#EA4335"/>
</svg>
