<svg width="40" height="40" viewBox="0 0 40 40" fill="none" xmlns="http://www.w3.org/2000/svg">
<g id="Icon">
<mask id="mask0_29_8740" style="mask-type:alpha" maskUnits="userSpaceOnUse" x="0" y="0" width="40" height="40">
<rect id="Bounding box" width="40" height="40" fill="white"/>
</mask>
<g mask="url(#mask0_29_8740)">
<path id="Vector" fill-rule="evenodd" clip-rule="evenodd" d="M14.3011 0.117294C13.8921 0.267229 13.4222 0.624841 13.1531 0.990578C13.0301 1.15794 12.6443 1.99591 12.2956 2.85278C11.7181 4.27253 11.1205 5.46311 10.6342 6.16231L10.4486 6.42937L9.7901 6.43577C9.20481 6.44148 9.08394 6.46906 8.70195 6.68431C8.21698 6.95754 7.75452 7.50783 7.6131 7.9799C7.56169 8.1514 7.52833 8.52597 7.53895 8.8124L7.55825 9.33308L7.13391 9.63162C6.51222 10.0689 5.54181 10.5834 4.66728 10.9392C3.46717 11.4275 3.00345 11.9818 3.00001 12.9322C2.99907 13.1927 3.05095 13.808 3.11526 14.2995C3.63742 18.287 4.90761 21.6942 7.10586 25.0042C7.89813 26.1971 8.15354 26.366 8.59343 25.9876C8.95221 25.679 8.88814 25.4778 8.00439 24.1391C6.02475 21.1403 4.82596 17.8758 4.32771 14.1266C4.11293 12.5106 4.12426 12.4842 5.22506 12.0361C5.99045 11.7245 6.97757 11.1999 7.68998 10.7261L8.22425 10.3709L8.45794 10.5373C8.77571 10.7635 9.28536 10.9348 9.64102 10.9348H9.93535L10.0184 11.4062C10.2239 12.5729 11.1398 13.4639 12.3063 13.6321L12.6683 13.6844L12.7033 14.048C12.7955 15.0049 13.6125 16.0541 14.5396 16.4062C15.016 16.5871 15.6988 16.6408 16.254 16.541L16.5788 16.4827L16.7024 16.8453C16.881 17.3697 17.2506 17.909 17.7337 18.3506L18.156 18.7365V19.4747C18.156 20.2819 18.2707 20.7251 18.5872 21.14C18.6938 21.2797 18.781 21.4119 18.781 21.4337C18.781 21.4555 18.3406 22.0061 17.8023 22.6571C17.2639 23.3083 16.7541 23.977 16.6693 24.1433C16.4481 24.5769 16.4582 25.3379 16.691 25.7667C16.8597 26.0778 18.1724 27.7187 18.8163 28.4235C19.5175 29.1912 20.4913 29.3414 21.289 28.805C21.6247 28.5792 23.6504 26.1605 23.8595 25.7357C24.062 25.3243 24.0659 24.6084 23.868 24.1727C23.7886 23.9978 23.2796 23.3216 22.7368 22.6699C22.1941 22.0182 21.75 21.4645 21.75 21.4395C21.75 21.4145 21.8372 21.2797 21.9438 21.14C22.2603 20.7251 22.3751 20.2819 22.3751 19.4747V18.7365L22.7973 18.3506C23.2805 17.909 23.6501 17.3697 23.8287 16.8453L23.9523 16.4827L24.2771 16.541C24.4557 16.5731 24.8128 16.5945 25.0707 16.5886C26.4193 16.5576 27.6586 15.4216 27.8187 14.0695L27.8644 13.6842L28.2255 13.6321C29.391 13.4639 30.273 12.6089 30.5041 11.4231L30.5993 10.9348H30.8918C31.2459 10.9348 31.7559 10.7631 32.0731 10.5373L32.3068 10.3709L32.8411 10.7261C33.5535 11.1999 34.5406 11.7245 35.306 12.0361C36.4068 12.4842 36.4181 12.5106 36.2033 14.1266C35.9454 16.0676 35.5066 17.8914 34.9367 19.3918C34.7329 19.9282 34.6905 19.9879 34.5623 19.9192C34.3482 19.8047 33.8847 19.8254 33.6219 19.9613C33.4948 20.027 33.302 20.2217 33.1932 20.3939C32.8862 20.8801 32.4628 21.3147 31.9694 21.6498C31.4174 22.0247 31.25 22.3148 31.3048 22.8016C31.3485 23.1891 31.5778 23.4478 32.2096 23.8228C32.3871 23.9281 32.5314 24.0512 32.5304 24.0962C32.5276 24.2212 31.5952 25.499 30.8517 26.3968C30.1425 27.2532 30.0813 27.4198 30.3503 27.7617C30.6108 28.093 30.9943 28.0492 31.3795 27.6443C31.7166 27.29 32.6643 26.1077 33.0714 25.5336L33.3292 25.1701L33.6058 25.3579C34.1205 25.7072 34.687 25.5657 35.0659 24.9933C35.3789 24.5203 35.8698 24.0056 36.3401 23.6575C36.8315 23.2937 37.0195 22.9707 36.9586 22.5952C36.8961 22.2105 36.7349 22.0007 36.2584 21.6844C35.5108 21.1882 35.5242 21.2468 35.9235 20.2243C36.7764 18.0401 37.3699 15.4596 37.507 13.34C37.5461 12.7339 37.53 12.5127 37.4268 12.2426C37.2169 11.6927 36.7415 11.2963 35.8643 10.9394C34.9893 10.5834 34.0189 10.069 33.3971 9.63162L32.9728 9.33308L32.9921 8.8124C33.0027 8.52597 32.9694 8.1514 32.918 7.9799C32.7765 7.50783 32.3141 6.95754 31.8291 6.68431C31.4471 6.46906 31.3263 6.44148 30.741 6.43577L30.0825 6.42937L29.8968 6.16231C29.406 5.45646 28.8132 4.27581 28.2719 2.92623C27.6192 1.29873 27.3713 0.866114 26.8739 0.485922C26.2099 -0.0214693 26.4456 -0.00428023 20.2362 0.00173596C15.5959 0.00626763 14.548 0.0266602 14.3011 0.117294ZM25.6918 1.25357C26.2497 1.39405 26.4367 1.67064 27.1393 3.39502C27.73 4.84461 28.2872 5.94862 28.8501 6.78448L29.0806 7.12685L28.8643 7.4254C28.7454 7.58955 28.6056 7.87497 28.5537 8.05968L28.4593 8.39549H27.8197C27.2774 8.39549 27.1125 8.42877 26.7346 8.61426C26.4764 8.74115 26.1415 8.99718 25.938 9.22361C25.6072 9.59154 25.266 10.2979 25.266 10.6147C25.266 10.7357 25.1825 10.7635 24.7184 10.7967C24.3195 10.8252 24.0361 10.9022 23.6749 11.08C23.2172 11.3054 22.6036 11.8521 22.3999 12.2159C22.3211 12.3568 22.3013 12.3546 21.8885 12.1593C21.3315 11.8958 20.8925 11.7981 20.2655 11.7981C19.6373 11.7981 19.1995 11.8958 18.6378 12.1615C18.2218 12.3583 18.2002 12.3609 18.1212 12.2215C18.0759 12.1416 17.8842 11.907 17.6954 11.7002C17.2231 11.1829 16.5242 10.8476 15.8127 10.7967C15.3486 10.7635 15.2651 10.7357 15.2651 10.6147C15.2651 10.3017 14.9257 9.59365 14.6045 9.23635C14.4163 9.02703 14.0612 8.75544 13.8079 8.62707C13.412 8.42651 13.2653 8.39549 12.7113 8.39549H12.0717L11.9773 8.05968C11.9255 7.87497 11.7866 7.5908 11.6688 7.42813L11.4546 7.13248L11.8765 6.47476C12.4168 5.63289 12.8547 4.73241 13.5072 3.12156C14.0717 1.72791 14.3053 1.38827 14.7869 1.25982C15.199 1.14997 25.2574 1.14419 25.6918 1.25357ZM10.5082 7.95654C10.781 8.22938 10.8115 8.29993 10.8115 8.65707C10.8115 8.98836 10.772 9.09915 10.5732 9.32557C9.6811 10.3416 8.17331 9.19884 8.91416 8.06819C9.09285 7.79551 9.39256 7.65995 9.82456 7.65636C10.164 7.65354 10.2374 7.68573 10.5082 7.95654ZM31.2744 7.76645C32.0866 8.18641 31.925 9.44848 31.0283 9.68991C30.6246 9.79859 30.266 9.67655 29.9578 9.32557C29.7591 9.09915 29.7195 8.98836 29.7195 8.65707C29.7195 8.29993 29.7501 8.22938 30.0228 7.95654C30.2886 7.69089 30.3715 7.65323 30.6909 7.65323C30.8914 7.65323 31.154 7.70417 31.2744 7.76645ZM13.5251 9.88844C13.8259 10.1179 13.9918 10.4112 14.0592 10.8329C14.1056 11.1224 14.09 11.1529 13.757 11.4258C13.5639 11.584 13.3057 11.8722 13.1831 12.0662C12.9724 12.3997 12.9409 12.419 12.6086 12.4179C11.4988 12.4142 10.8328 11.1466 11.458 10.228C11.937 9.52427 12.8509 9.37417 13.5251 9.88844ZM28.6927 9.8196C28.976 10.0295 29.2371 10.4308 29.2966 10.7482C29.4556 11.5959 28.7814 12.4151 27.9225 12.4179C27.5901 12.419 27.5587 12.3997 27.348 12.0662C27.2254 11.8722 26.9672 11.584 26.774 11.4258C26.441 11.1529 26.4255 11.1224 26.4718 10.8329C26.5394 10.41 26.7053 10.1178 27.0094 9.88586C27.4859 9.52239 28.2507 9.49231 28.6927 9.8196ZM16.3254 12.1765C16.6654 12.331 17.1005 12.7974 17.1727 13.0848C17.2012 13.1983 17.1233 13.4389 16.9516 13.7683C16.8059 14.0479 16.6428 14.4723 16.5893 14.7115C16.5 15.1104 16.4671 15.1562 16.1895 15.2673C14.6078 15.9002 13.2396 13.9827 14.2901 12.6054C14.7027 12.0645 15.6427 11.8664 16.3254 12.1765ZM25.9029 12.3052C26.3463 12.6167 26.6054 13.128 26.6054 13.691C26.6054 14.8849 25.4305 15.703 24.3415 15.2673C24.0639 15.1562 24.031 15.1104 23.9417 14.7115C23.8882 14.4723 23.7251 14.0479 23.5794 13.7683C23.2775 13.1891 23.2853 13.0517 23.645 12.6153C24.0006 12.1838 24.4098 12.0184 25.0478 12.048C25.4799 12.0682 25.6299 12.1133 25.9029 12.3052ZM21.3746 13.2645C21.8721 13.509 22.3581 14.0105 22.6 14.5289C22.8916 15.1539 22.8844 16.0292 22.5825 16.6542C21.8336 18.2048 19.8329 18.6005 18.5543 17.4509C17.9778 16.9326 17.7331 16.3752 17.7346 15.5837C17.7366 14.4494 18.3461 13.5543 19.3845 13.16C19.8478 12.984 20.9183 13.0403 21.3746 13.2645ZM9.45593 16.6732C9.3206 16.8213 9.08675 17.0903 8.93635 17.271C8.78594 17.4518 8.47998 17.7349 8.25644 17.9C7.96821 18.1131 7.8282 18.2795 7.77491 18.4724C7.65045 18.9233 7.84031 19.3653 8.24941 19.5768C8.59882 19.7575 9.07402 20.2172 9.26778 20.562C9.47648 20.9334 9.75213 21.092 10.1886 21.092C10.5352 21.092 10.5631 21.07 11.274 20.233C11.4639 20.0095 11.7563 19.7359 11.9237 19.6251C12.6563 19.1403 12.6264 18.4313 11.8496 17.8728C11.6439 17.7249 11.3702 17.4715 11.2413 17.3098C10.6101 16.5178 10.4631 16.404 10.0707 16.404C9.75025 16.404 9.66985 16.4392 9.45593 16.6732ZM10.5658 19.1724C10.348 19.3902 10.1533 19.5623 10.1333 19.5549C10.1134 19.5474 9.90331 19.3581 9.66649 19.1341L9.23598 18.7269L9.65016 18.3076L10.0643 17.8882L10.5131 18.3322L10.9618 18.7763L10.5658 19.1724ZM21.1711 19.763C21.1115 20.2849 20.9304 20.5527 20.551 20.6798C20.3258 20.7552 20.2052 20.7552 19.98 20.6798C19.6007 20.5527 19.4196 20.2849 19.36 19.763L19.3108 19.3325H20.2655H21.2202L21.1711 19.763ZM35.1529 22.3741L35.5404 22.6831L34.8432 23.3817L34.146 24.0802L33.9875 23.8557C33.7845 23.5683 33.2605 23.0439 32.9743 22.8419L32.7522 22.6851L33.4429 21.9862L34.1334 21.2873L34.4494 21.6762C34.6233 21.89 34.9399 22.204 35.1529 22.3741ZM20.5507 22.0518C20.7842 22.1838 22.7536 24.5712 22.8081 24.7884C22.8814 25.0805 22.7462 25.2949 21.6792 26.5791C20.6409 27.8286 20.4766 27.9594 20.072 27.8579C19.8655 27.806 17.8939 25.5089 17.7548 25.1579C17.7128 25.0522 17.6985 24.8859 17.7229 24.7884C17.7775 24.5712 19.7469 22.1838 19.9803 22.0518C20.0728 21.9996 20.2011 21.957 20.2655 21.957C20.33 21.957 20.4583 21.9996 20.5507 22.0518ZM9.47648 26.9739C9.27654 27.1275 9.16332 27.403 9.2152 27.6099C9.27177 27.8351 11.1183 29.6592 12.0226 30.3831C12.3664 30.6583 12.9048 31.0624 13.2192 31.2811L13.7909 31.6789L13.063 31.767C12.2362 31.8671 12.0349 31.9339 11.5447 32.2712C10.8216 32.7686 10.4209 33.7033 10.4209 34.8923V35.5336L9.07308 35.5598C7.59528 35.5886 7.44215 35.6285 6.91757 36.1217C6.43815 36.5724 6.32884 36.8861 6.2943 37.91L6.26336 38.828H5.84192C5.52454 38.828 5.3818 38.8666 5.26413 38.9843C5.04927 39.1991 5.05677 39.6338 5.2789 39.8407C5.44969 39.9998 5.4636 40 20.2447 40H35.0396L35.2314 39.8082C35.4658 39.5739 35.4761 39.307 35.2612 39.0339C35.1225 38.8576 35.0396 38.828 34.6835 38.828H34.2677L34.237 37.91C34.2035 36.9062 34.1235 36.6602 33.676 36.1842C33.1781 35.6547 32.9522 35.5899 31.497 35.5601L30.1883 35.5333V34.8922C30.1883 33.7068 29.8228 32.8386 29.1005 32.3084C28.5937 31.9364 28.3913 31.8671 27.5172 31.7662L26.7604 31.6789L27.4391 31.1968C27.8124 30.9316 28.4143 30.4678 28.7767 30.1661C29.6815 29.413 29.7986 29.1748 29.4584 28.7793C29.204 28.4835 28.8798 28.4963 28.4958 28.8171C26.474 30.5058 24.6679 31.6603 22.6197 32.5728C20.9086 33.3352 20.2451 33.435 19.2057 33.0861C17.8022 32.6149 16.0072 31.6907 14.406 30.6149C13.1493 29.7705 12.3465 29.1113 11.1131 27.9109C10.2425 27.0636 10.0065 26.8742 9.82393 26.8763C9.70103 26.8776 9.54469 26.9216 9.47648 26.9739ZM17.0504 33.5172C18.8845 34.361 19.2878 34.4821 20.2655 34.4821C21.2471 34.4821 21.6859 34.3499 23.4021 33.5378L24.5237 33.0072H26.2485H27.9733L28.29 33.2169C28.7711 33.5354 28.9382 33.951 28.9382 34.8289V35.5465H27.2689C25.6985 35.5465 25.5874 35.5561 25.3937 35.7084C25.1029 35.9371 25.1029 36.4059 25.3937 36.6346C25.595 36.793 25.6774 36.7966 29.072 36.7966H32.5443L32.7727 37.025C32.9949 37.2472 33.0011 37.2747 33.0011 38.0407V38.828H20.2655H7.52997V38.0407C7.52997 37.2747 7.53614 37.2472 7.75835 37.025L7.98673 36.7966H15.7314H23.4761L23.6678 36.6048C23.9006 36.372 23.9182 36.0268 23.7103 35.77L23.5609 35.5855L17.616 35.5646L11.671 35.5436V34.8274C11.671 34.0075 11.8333 33.5545 12.2278 33.2735C12.5979 33.0101 12.7998 32.9819 14.3694 32.9748L15.8568 32.9681L17.0504 33.5172Z" fill="black"/>
</g>
</g>
</svg>
