<svg width="40" height="40" viewBox="0 0 40 40" fill="none" xmlns="http://www.w3.org/2000/svg">
<g id="Icon">
<mask id="mask0_29_8732" style="mask-type:alpha" maskUnits="userSpaceOnUse" x="0" y="0" width="40" height="40">
<rect id="Bounding box" width="40" height="40" fill="white"/>
</mask>
<g mask="url(#mask0_29_8732)">
<path id="Vector" fill-rule="evenodd" clip-rule="evenodd" d="M0.569338 0.163554C0.431222 0.252064 0.245764 0.441584 0.157332 0.5847C-0.000705285 0.840388 -0.00320513 0.920929 0.0178873 5.16833L0.0393704 9.49166L0.213579 9.73594C0.579572 10.249 0.408723 10.2338 5.80098 10.2338H10.6797L10.9379 10.058C11.08 9.96132 11.2697 9.78305 11.3596 9.66173C11.5208 9.44417 11.5231 9.38214 11.5231 5.11693C11.5231 0.851715 11.5208 0.789688 11.3596 0.572123C11.2697 0.450802 11.08 0.272531 10.9379 0.175819L10.6797 4.78583e-05L5.75012 0.0013759C0.907521 0.00262583 0.81612 0.00551628 0.569338 0.163554ZM16.8132 0.128556C16.6722 0.198864 16.4788 0.365651 16.3835 0.499236C16.2127 0.738753 16.21 0.785157 16.1881 3.78115L16.1659 6.82011L14.6325 8.65773C13.789 9.66845 13.0488 10.596 12.9875 10.7189C12.9019 10.8904 12.8821 11.2099 12.9026 12.092C12.9266 13.1275 12.9469 13.2699 13.108 13.5288C13.2129 13.6976 13.4247 13.883 13.6208 13.978C13.95 14.1374 14.0457 14.1398 19.9991 14.1398C25.9525 14.1398 26.0482 14.1374 26.3774 13.978C26.5735 13.883 26.7853 13.6976 26.8902 13.5288C27.0513 13.2699 27.0716 13.1275 27.0956 12.092C27.1161 11.2099 27.0963 10.8904 27.0107 10.7189C26.9494 10.596 26.2079 9.66696 25.3631 8.65452L23.827 6.81378V3.86786C23.827 0.611652 23.8205 0.563842 23.3291 0.213316C23.0878 0.0412173 23.0483 0.0388736 20.0772 0.0199685C17.4243 0.00301643 17.0394 0.0158282 16.8132 0.128556ZM29.0603 0.175819C28.5351 0.533297 28.4779 0.685553 28.4494 1.80205L28.4237 2.81199L28.6583 3.04658C28.9532 3.34149 29.1673 3.34313 29.4577 3.05275C29.6812 2.82917 29.686 2.80722 29.686 1.99813V1.17185H34.2561H38.8261V5.11693V9.062H34.2561H29.686V6.99548C29.686 5.62604 29.6562 4.86366 29.5977 4.73531C29.395 4.29026 28.7051 4.30455 28.5174 4.75765C28.4568 4.90397 28.4363 5.67213 28.4521 7.20618C28.4741 9.33269 28.4831 9.45221 28.6386 9.66189C28.7285 9.78305 28.9182 9.9614 29.0603 10.058L29.3185 10.2338H34.1972C39.5895 10.2338 39.4186 10.249 39.7846 9.73594L39.9588 9.49166V5.11693V0.742191L39.7846 0.497908C39.4186 -0.0151856 39.5895 4.78583e-05 34.1972 4.78583e-05H29.3185L29.0603 0.175819ZM10.3122 5.11693V9.062H5.74215H1.17211V5.11693V1.17185H5.74215H10.3122V5.11693ZM22.6367 3.80841L22.6161 6.44497H19.9991H17.3821L17.3615 3.80841L17.3409 1.17185H19.9991H22.6573L22.6367 3.80841ZM4.68753 6.64027C4.46996 6.85784 4.48191 7.26969 4.71206 7.486C4.87556 7.63959 4.97696 7.65584 5.77027 7.65584C6.59765 7.65584 6.65858 7.6449 6.83935 7.46405C7.07371 7.22977 7.08402 6.96291 6.86919 6.68988C6.71045 6.48802 6.68913 6.48403 5.77551 6.48403C4.9479 6.48403 4.82627 6.50153 4.68753 6.64027ZM33.129 6.68988C32.9142 6.96291 32.9245 7.22977 33.1589 7.46405C33.3399 7.64521 33.3999 7.65584 34.2389 7.65584C35.0664 7.65584 35.1388 7.64349 35.2971 7.47506C35.5132 7.24492 35.5197 6.84932 35.3107 6.64027C35.1719 6.50153 35.0503 6.48403 34.2227 6.48403C33.3091 6.48403 33.2878 6.48802 33.129 6.68988ZM24.0499 8.98388L25.1578 10.3119H19.9991H14.8404L15.9483 8.98388L17.056 7.65584H19.9991H22.9422L24.0499 8.98388ZM25.8581 12.2259V12.8899H19.9991H14.1401V12.2259V11.5618H19.9991H25.8581V12.2259ZM28.6279 14.4097C28.3851 14.6524 28.3839 14.9297 28.6244 15.2096C28.8119 15.4279 28.8177 15.4289 29.9134 15.4543L31.0141 15.4797V16.2064V16.9332L30.7806 17.03C30.4928 17.1491 30.0209 17.6607 29.8737 18.0129C29.7338 18.3477 29.7327 19.0693 29.8716 19.4016C30.173 20.1231 30.8574 20.579 31.639 20.579C32.7239 20.579 33.5163 19.781 33.5122 18.6928C33.5095 17.9659 33.0959 17.2823 32.4993 17.0182L32.264 16.914V16.1909V15.4679H34.2561H36.2481V16.1694V16.8708L35.9477 17.0241C35.2767 17.3664 34.866 18.1245 34.9437 18.8776C35.109 20.4793 37.0552 21.1726 38.1689 20.0266C39.0336 19.137 38.8613 17.7467 37.805 17.09L37.4199 16.8507V16.1593V15.4679H38.3848C39.7179 15.4679 39.9979 15.3477 39.9979 14.7756C39.9979 14.616 39.9325 14.4903 39.792 14.3799C39.5883 14.2196 39.5307 14.2179 34.2029 14.2179H28.8196L28.6279 14.4097ZM4.51941 16.9504C4.36247 17.035 4.15154 17.2371 4.05069 17.3993C3.87172 17.6872 3.86672 17.7458 3.84312 19.8231L3.81899 21.9518H2.43399C1.15282 21.9518 1.0229 21.965 0.701049 22.1276C0.509655 22.2243 0.273731 22.4228 0.176706 22.5688L0.00031028 22.8343V30.955C0.00031028 39.9387 -0.0296098 39.4078 0.498171 39.7844C0.736125 39.954 0.804168 39.9592 3.11661 39.9814C5.4756 40.004 5.49193 40.0031 5.67505 39.8311C5.91901 39.6019 5.92058 39.2231 5.67856 38.9957C5.50185 38.8297 5.44803 38.8258 3.33495 38.8258H1.17211V33.5918V28.3577H6.40617H11.6402V33.5918V38.8258H9.48841H7.33651L7.1448 39.0176C7.03934 39.1231 6.95302 39.3004 6.95302 39.4117C6.95302 39.5231 7.03934 39.7004 7.1448 39.8058L7.33651 39.9976H23.2062C40.7844 39.9976 39.3998 40.0392 39.7846 39.4998L39.9588 39.2555L39.9794 31.0465L40 22.8374L39.8225 22.5704C39.7249 22.4235 39.4885 22.2243 39.2972 22.1276L38.9492 21.9518H23.3027H7.6561V19.8151C7.6561 17.7278 7.65204 17.6723 7.48033 17.4201C7.11996 16.8906 6.97403 16.837 5.83441 16.8158C4.93556 16.7989 4.76846 16.8161 4.51941 16.9504ZM6.40617 19.9988V21.9518H5.74215H5.07813V19.9988V18.0458H5.74215H6.40617V19.9988ZM32.0364 18.146C32.3948 18.4211 32.4266 18.8327 32.1138 19.1455C31.4851 19.7742 30.5597 18.891 31.1683 18.2432C31.373 18.0254 31.8148 17.9758 32.0364 18.146ZM37.3063 18.2376C37.5709 18.5023 37.565 18.8951 37.2921 19.168C36.8632 19.5968 36.17 19.3139 36.17 18.7099C36.17 18.3289 36.453 18.0458 36.834 18.0458C37.0277 18.0458 37.1739 18.1052 37.3063 18.2376ZM11.6402 25.1938V27.1859H6.40617H1.17211V25.1938V23.2018H6.40617H11.6402V25.1938ZM27.168 25.1743L27.1471 27.1468H19.9991H12.8511L12.8302 25.1743L12.8094 23.2018H19.9991H27.1888L27.168 25.1743ZM38.8261 25.1938V27.1859H33.592H28.358V25.1938V23.2018H33.592H38.8261V25.1938ZM5.62497 24.585C5.15969 24.755 5.02024 25.2602 5.34803 25.588C5.52857 25.7685 5.59044 25.7797 6.40617 25.7797C7.22191 25.7797 7.28378 25.7685 7.46431 25.588C7.79507 25.2573 7.68321 24.7816 7.23448 24.611C7.01504 24.5276 5.83425 24.5085 5.62497 24.585ZM14.6869 24.5808C14.2169 24.7694 14.082 25.26 14.41 25.588C14.5767 25.7547 14.6724 25.7797 15.1435 25.7797C15.7643 25.7797 15.9857 25.6556 16.061 25.2652C16.0969 25.0791 16.064 24.9735 15.9168 24.8023C15.7536 24.6125 15.6594 24.5772 15.2651 24.5572C15.0115 24.5443 14.7514 24.555 14.6869 24.5808ZM19.4801 24.6031C19.2602 24.6973 19.0617 24.9877 19.0617 25.2148C19.0617 25.3146 19.148 25.4825 19.2534 25.588C19.4209 25.7555 19.5151 25.7797 19.9991 25.7797C20.4831 25.7797 20.5773 25.7555 20.7448 25.588C20.9862 25.3466 20.989 25.0682 20.753 24.7939C20.5982 24.614 20.4974 24.5767 20.1085 24.5559C19.855 24.5424 19.5723 24.5636 19.4801 24.6031ZM24.3198 24.6045C24.0507 24.7195 23.883 25.0327 23.9435 25.3077C24.0216 25.6634 24.2483 25.7797 24.8635 25.7797C25.3253 25.7797 25.4221 25.7541 25.5882 25.588C25.8409 25.3353 25.8391 25.0031 25.5836 24.7632C25.4336 24.6222 25.2815 24.5731 24.9391 24.555C24.6926 24.5419 24.414 24.5642 24.3198 24.6045ZM32.7398 24.6114C32.313 24.7901 32.2125 25.2666 32.5339 25.588C32.7144 25.7685 32.7763 25.7797 33.592 25.7797C34.4078 25.7797 34.4696 25.7685 34.6502 25.588C34.9048 25.3333 34.901 25.0032 34.6406 24.7582C34.4596 24.5881 34.3624 24.567 33.6836 24.5508C33.268 24.5408 32.8433 24.5681 32.7398 24.6114ZM27.1862 33.5918V38.8258H19.9991H12.812V33.5918V28.3577H19.9991H27.1862V33.5918ZM38.8261 33.5918V38.8258H33.592H28.358V33.5918V28.3577H33.592H38.8261V33.5918ZM14.8321 29.9325C14.6757 30.0232 14.4735 30.2292 14.383 30.3905C14.2235 30.6741 14.2182 30.778 14.2182 33.6104C14.2182 36.5253 14.2189 36.5383 14.3958 36.8008C14.4935 36.9458 14.6921 37.1444 14.8371 37.242L15.1006 37.4197H19.9991H24.8976L25.1611 37.242C25.3061 37.1444 25.5047 36.9458 25.6024 36.8008C25.7793 36.5383 25.78 36.5253 25.78 33.6104C25.78 30.774 25.7749 30.6744 25.6145 30.3892C25.5235 30.2272 25.3167 30.0203 25.1547 29.9293C24.8635 29.7657 24.8076 29.7639 19.9885 29.7657C15.1743 29.7675 15.1132 29.7694 14.8321 29.9325ZM24.5301 33.5918V36.2479H19.9991H15.4681V33.5918V30.9357H19.9991H24.5301V33.5918ZM2.74811 31.8977C2.5857 32.0705 2.57828 32.1453 2.57828 33.6027C2.57828 35.095 2.58211 35.1305 2.75905 35.2968C2.98919 35.513 3.38479 35.5195 3.59384 35.3104C3.73969 35.1646 3.75008 35.05 3.75008 33.5918C3.75008 32.1335 3.73969 32.019 3.59384 31.8731C3.37628 31.6556 2.96443 31.6675 2.74811 31.8977ZM29.9204 31.8731C29.7747 32.0188 29.7641 32.1335 29.7641 33.5782C29.7641 35.0961 29.7677 35.1303 29.9449 35.2968C30.1851 35.5224 30.5484 35.5176 30.7661 35.2859C30.9286 35.1129 30.9359 35.0386 30.9359 33.5672C30.9359 32.1335 30.9254 32.0188 30.7797 31.8731C30.683 31.7764 30.5193 31.7169 30.35 31.7169C30.1807 31.7169 30.0171 31.7764 29.9204 31.8731ZM16.988 32.5336C16.7451 32.7764 16.744 33.0536 16.9847 33.3335L17.1733 33.5527H19.9991H22.8249L23.0135 33.3335C23.2542 33.0536 23.2531 32.7764 23.0102 32.5336L22.8185 32.3418H19.9991H17.1797L16.988 32.5336Z" fill="black"/>
</g>
</g>
</svg>
