<svg width="24" height="24" viewBox="0 0 24 24" fill="none" xmlns="http://www.w3.org/2000/svg">
<g id="Icon">
<mask id="mask0_29_4506" style="mask-type:alpha" maskUnits="userSpaceOnUse" x="0" y="0" width="24" height="24">
<rect id="Bounding box" width="24" height="24" fill="white"/>
</mask>
<g mask="url(#mask0_29_4506)">
<g id="Icon_2">
<path id="Vector" d="M9 10.9997C9 11.7953 9.31607 12.5584 9.87868 13.121C10.4413 13.6836 11.2044 13.9997 12 13.9997C12.7956 13.9997 13.5587 13.6836 14.1213 13.121C14.6839 12.5584 15 11.7953 15 10.9997C15 10.204 14.6839 9.44098 14.1213 8.87837C13.5587 8.31576 12.7956 7.99969 12 7.99969C11.2044 7.99969 10.4413 8.31576 9.87868 8.87837C9.31607 9.44098 9 10.204 9 10.9997Z" stroke="#FE6601" stroke-width="2" stroke-linecap="round" stroke-linejoin="round"/>
<path id="Vector_2" d="M17.657 16.6567L13.414 20.8997C13.039 21.2743 12.5306 21.4848 12.0005 21.4848C11.4704 21.4848 10.962 21.2743 10.587 20.8997L6.343 16.6567C5.22422 15.5379 4.46234 14.1124 4.15369 12.5606C3.84504 11.0087 4.00349 9.40022 4.60901 7.93844C5.21452 6.47665 6.2399 5.22725 7.55548 4.34821C8.87107 3.46918 10.4178 3 12 3C13.5822 3 15.1289 3.46918 16.4445 4.34821C17.7601 5.22725 18.7855 6.47665 19.391 7.93844C19.9965 9.40022 20.155 11.0087 19.8463 12.5606C19.5377 14.1124 18.7758 15.5379 17.657 16.6567Z" stroke="#FE6601" stroke-width="2" stroke-linecap="round" stroke-linejoin="round"/>
</g>
</g>
</g>
</svg>
