<svg width="31" height="19" viewBox="0 0 31 19" fill="none" xmlns="http://www.w3.org/2000/svg">
<path fill-rule="evenodd" clip-rule="evenodd" d="M15.0974 16.4389C13.5053 17.7698 11.4401 18.5733 9.1833 18.5733C4.14818 18.5733 0.0664062 14.5737 0.0664062 9.63997C0.0664062 4.70622 4.14818 0.706635 9.1833 0.706635C11.4401 0.706635 13.5053 1.5101 15.0974 2.84102C16.6894 1.5101 18.7547 0.706635 21.0114 0.706635C26.0465 0.706635 30.1283 4.70622 30.1283 9.63997C30.1283 14.5737 26.0465 18.5733 21.0114 18.5733C18.7547 18.5733 16.6894 17.7698 15.0974 16.4389Z" fill="#ED0006"/>
<path fill-rule="evenodd" clip-rule="evenodd" d="M15.0957 16.4389C17.0557 14.8004 18.2985 12.3624 18.2985 9.63997C18.2985 6.91755 17.0557 4.47956 15.0957 2.84102C16.6878 1.5101 18.753 0.706635 21.0098 0.706635C26.0449 0.706635 30.1267 4.70622 30.1267 9.63997C30.1267 14.5737 26.0449 18.5733 21.0098 18.5733C18.753 18.5733 16.6878 17.7698 15.0957 16.4389Z" fill="#F9A000"/>
<path fill-rule="evenodd" clip-rule="evenodd" d="M15.0974 16.4389C17.0574 14.8004 18.3002 12.3624 18.3002 9.63995C18.3002 6.91753 17.0574 4.47954 15.0974 2.841C13.1373 4.47954 11.8945 6.91753 11.8945 9.63995C11.8945 12.3624 13.1373 14.8004 15.0974 16.4389Z" fill="#FF5E00"/>
</svg>
