<svg width="16" height="16" viewBox="0 0 16 16" fill="none" xmlns="http://www.w3.org/2000/svg">
<g id="Icon">
<mask id="mask0_29_7711" style="mask-type:alpha" maskUnits="userSpaceOnUse" x="0" y="0" width="16" height="16">
<rect id="Bounding box" width="16" height="16" fill="white"/>
</mask>
<g mask="url(#mask0_29_7711)">
<path id="Icon_2" d="M7.52144 2.30217C7.6751 1.99088 7.75193 1.83523 7.85623 1.7855C7.94697 1.74224 8.0524 1.74224 8.14314 1.7855C8.24744 1.83523 8.32427 1.99088 8.47793 2.30217L9.93571 5.25548C9.98108 5.34738 10.0038 5.39333 10.0369 5.42901C10.0663 5.4606 10.1015 5.48619 10.1406 5.50437C10.1847 5.52491 10.2354 5.53232 10.3368 5.54714L13.5977 6.02376C13.9411 6.07395 14.1127 6.09905 14.1922 6.18292C14.2613 6.25589 14.2938 6.35616 14.2807 6.45581C14.2656 6.57034 14.1413 6.69141 13.8927 6.93355L11.534 9.23091C11.4604 9.30252 11.4237 9.33833 11.4 9.38093C11.379 9.41866 11.3655 9.4601 11.3603 9.50296C11.3544 9.55137 11.3631 9.60196 11.3804 9.70312L11.937 12.948C11.9957 13.2903 12.025 13.4614 11.9699 13.563C11.9219 13.6513 11.8366 13.7133 11.7377 13.7316C11.6241 13.7527 11.4704 13.6719 11.1631 13.5102L8.24793 11.9772C8.1571 11.9294 8.11168 11.9055 8.06384 11.8961C8.02147 11.8878 7.9779 11.8878 7.93554 11.8961C7.88769 11.9055 7.84228 11.9294 7.75145 11.9772L4.83629 13.5102C4.52895 13.6719 4.37528 13.7527 4.26166 13.7316C4.1628 13.7133 4.07749 13.6513 4.0295 13.563C3.97434 13.4614 4.00369 13.2903 4.06239 12.948L4.61893 9.70312C4.63628 9.60196 4.64496 9.55137 4.63909 9.50296C4.63389 9.4601 4.62042 9.41866 4.59941 9.38093C4.57569 9.33833 4.53893 9.30252 4.4654 9.2309L2.10671 6.93355C1.85812 6.69141 1.73382 6.57034 1.71869 6.45581C1.70553 6.35616 1.73804 6.25589 1.80717 6.18292C1.88663 6.09905 2.05832 6.07395 2.4017 6.02376L5.66255 5.54714C5.76396 5.53232 5.81466 5.52491 5.85882 5.50437C5.89792 5.48619 5.93312 5.4606 5.96246 5.42901C5.99561 5.39333 6.01829 5.34738 6.06366 5.25548L7.52144 2.30217Z" fill="#FE6601"/>
</g>
</g>
</svg>
