<svg width="16" height="19" viewBox="0 0 16 19" fill="none" xmlns="http://www.w3.org/2000/svg">
<path fill-rule="evenodd" clip-rule="evenodd" d="M4.65012 17.5977L4.9469 15.6655L4.28579 15.6497H1.12891L3.32283 1.39158C3.32967 1.3484 3.35176 1.30832 3.38403 1.27981C3.41646 1.2513 3.45779 1.23566 3.50102 1.23566H8.82402C10.5913 1.23566 11.8108 1.61251 12.4474 2.35643C12.746 2.70541 12.9361 3.07021 13.0281 3.47149C13.1246 3.89266 13.1262 4.39577 13.0321 5.00952L13.0253 5.05416V5.44746L13.3238 5.62082C13.5751 5.75751 13.7749 5.91392 13.9281 6.09298C14.1834 6.39146 14.3486 6.77075 14.4184 7.22026C14.4905 7.68265 14.4667 8.23301 14.3486 8.85604C14.2123 9.57259 13.9922 10.1968 13.6948 10.7074C13.4214 11.1779 13.0729 11.5683 12.6592 11.8707C12.2642 12.1581 11.7949 12.3762 11.2643 12.5159C10.7501 12.653 10.1639 12.7223 9.52089 12.7223H9.10665C8.81051 12.7223 8.5228 12.8316 8.29692 13.0276C8.0704 13.2277 7.92067 13.5011 7.87473 13.8L7.84341 13.974L7.31901 17.3797L7.29533 17.5047C7.28897 17.5442 7.27816 17.564 7.26227 17.5773C7.24812 17.5895 7.22777 17.5977 7.2079 17.5977H4.65012Z" fill="#28356A"/>
<path fill-rule="evenodd" clip-rule="evenodd" d="M13.6047 5.09955C13.589 5.20366 13.5707 5.31005 13.5504 5.41937C12.8484 9.11356 10.4467 10.3898 7.37949 10.3898H5.81773C5.44259 10.3898 5.12643 10.6689 5.06809 11.0481L4.04202 17.7192C4.00403 17.9683 4.19128 18.1926 4.43639 18.1926H7.20638C7.53431 18.1926 7.81296 17.9484 7.86462 17.6168L7.89181 17.4727L8.41334 14.0804L8.44688 13.8943C8.49791 13.5616 8.7772 13.3172 9.10513 13.3172H9.51937C12.203 13.3172 14.304 12.2005 14.918 8.96872C15.1744 7.61871 15.0417 6.49143 14.363 5.69863C14.1576 5.45962 13.9028 5.26117 13.6047 5.09955Z" fill="#298FC2"/>
<path fill-rule="evenodd" clip-rule="evenodd" d="M12.8708 4.7995C12.7635 4.7674 12.6528 4.7384 12.5393 4.71217C12.4252 4.68659 12.3084 4.66394 12.1881 4.64407C11.767 4.57433 11.3055 4.54126 10.8113 4.54126H6.63917C6.53633 4.54126 6.43873 4.56505 6.35146 4.60806C6.15896 4.70288 6.01606 4.8896 5.98141 5.11818L5.09379 10.8802L5.06836 11.0482C5.1267 10.6689 5.44286 10.3898 5.818 10.3898H7.37976C10.447 10.3898 12.8487 9.11297 13.5506 5.41943C13.5716 5.31011 13.5893 5.20372 13.605 5.09961C13.4274 5.00299 13.2351 4.92039 13.028 4.85C12.9768 4.83257 12.924 4.81579 12.8708 4.7995Z" fill="#22284F"/>
<path fill-rule="evenodd" clip-rule="evenodd" d="M5.98318 5.1182C6.01784 4.88962 6.16074 4.70291 6.35324 4.60873C6.44114 4.56556 6.5381 4.54177 6.64095 4.54177H10.8131C11.3073 4.54177 11.7687 4.57501 12.1898 4.64474C12.3102 4.66445 12.427 4.68726 12.5411 4.71284C12.6546 4.73891 12.7653 4.76808 12.8725 4.80001C12.9258 4.8163 12.9786 4.83325 13.0302 4.85003C13.2374 4.92041 13.4298 5.00367 13.6074 5.09963C13.8163 3.73447 13.6057 2.80498 12.8856 1.9633C12.0916 1.03658 10.6587 0.640015 8.82518 0.640015H3.50202C3.12752 0.640015 2.80801 0.919107 2.75015 1.29905L0.533018 15.7038C0.489305 15.9888 0.703738 16.2459 0.984138 16.2459H4.27042L5.98318 5.1182Z" fill="#28356A"/>
</svg>
