<svg width="60" height="12" viewBox="0 0 60 12" fill="none" xmlns="http://www.w3.org/2000/svg">
<g id="Review">
<g id="Icon">
<mask id="mask0_29_5745" style="mask-type:alpha" maskUnits="userSpaceOnUse" x="48" y="0" width="12" height="12">
<rect id="Bounding box" x="48" width="12" height="12" fill="white"/>
</mask>
<g mask="url(#mask0_29_5745)">
<path id="Icon_2" d="M53.6413 1.72666C53.7566 1.49319 53.8142 1.37645 53.8924 1.33916C53.9605 1.30671 54.0395 1.30671 54.1076 1.33916C54.1858 1.37645 54.2434 1.49319 54.3587 1.72666L55.452 3.94164C55.4861 4.01057 55.5031 4.04503 55.5279 4.07179C55.5499 4.09548 55.5763 4.11467 55.6057 4.12831C55.6388 4.14371 55.6768 4.14927 55.7529 4.16039L58.1985 4.51785C58.456 4.5555 58.5848 4.57432 58.6444 4.63722C58.6962 4.69195 58.7206 4.76715 58.7108 4.84189C58.6994 4.92779 58.6062 5.01859 58.4197 5.20019L56.6507 6.92321C56.5956 6.97692 56.568 7.00378 56.5502 7.03573C56.5345 7.06402 56.5244 7.09511 56.5205 7.12725C56.5161 7.16356 56.5226 7.2015 56.5356 7.27737L56.953 9.71106C56.997 9.96774 57.019 10.0961 56.9776 10.1722C56.9417 10.2385 56.8777 10.285 56.8035 10.2987C56.7183 10.3145 56.6031 10.2539 56.3726 10.1327L54.1862 8.98292C54.1181 8.94709 54.084 8.92918 54.0481 8.92214C54.0163 8.91591 53.9837 8.91591 53.9519 8.92214C53.916 8.92918 53.882 8.94709 53.8138 8.98292L51.6275 10.1327C51.397 10.2539 51.2817 10.3145 51.1965 10.2987C51.1223 10.285 51.0584 10.2385 51.0224 10.1722C50.981 10.0961 51.003 9.96774 51.047 9.71106L51.4644 7.27737C51.4775 7.2015 51.484 7.16356 51.4796 7.12725C51.4757 7.09511 51.4656 7.06402 51.4498 7.03573C51.432 7.00378 51.4044 6.97692 51.3493 6.92321L49.5803 5.20019C49.3938 5.01859 49.3006 4.92779 49.2893 4.84189C49.2794 4.76715 49.3038 4.69195 49.3556 4.63722C49.4152 4.57432 49.544 4.5555 49.8015 4.51785L52.2472 4.16039C52.3232 4.14927 52.3612 4.14371 52.3944 4.12831C52.4237 4.11467 52.4501 4.09548 52.4721 4.07179C52.497 4.04503 52.514 4.01057 52.548 3.94164L53.6413 1.72666Z" fill="#FE6601"/>
</g>
</g>
<g id="Icon_3">
<mask id="mask1_29_5745" style="mask-type:alpha" maskUnits="userSpaceOnUse" x="36" y="0" width="12" height="12">
<rect id="Bounding box_2" x="36" width="12" height="12" fill="white"/>
</mask>
<g mask="url(#mask1_29_5745)">
<path id="Icon_4" d="M41.6413 1.72666C41.7566 1.49319 41.8142 1.37645 41.8924 1.33916C41.9605 1.30671 42.0395 1.30671 42.1076 1.33916C42.1858 1.37645 42.2434 1.49319 42.3587 1.72666L43.452 3.94164C43.4861 4.01057 43.5031 4.04503 43.5279 4.07179C43.5499 4.09548 43.5763 4.11467 43.6057 4.12831C43.6388 4.14371 43.6768 4.14927 43.7529 4.16039L46.1985 4.51785C46.456 4.5555 46.5848 4.57432 46.6444 4.63722C46.6962 4.69195 46.7206 4.76715 46.7108 4.84189C46.6994 4.92779 46.6062 5.01859 46.4197 5.20019L44.6507 6.92321C44.5956 6.97692 44.568 7.00378 44.5502 7.03573C44.5345 7.06402 44.5244 7.09511 44.5205 7.12725C44.5161 7.16356 44.5226 7.2015 44.5356 7.27737L44.953 9.71106C44.997 9.96774 45.019 10.0961 44.9776 10.1722C44.9417 10.2385 44.8777 10.285 44.8035 10.2987C44.7183 10.3145 44.6031 10.2539 44.3726 10.1327L42.1862 8.98292C42.1181 8.94709 42.084 8.92918 42.0481 8.92214C42.0163 8.91591 41.9837 8.91591 41.9519 8.92214C41.916 8.92918 41.882 8.94709 41.8138 8.98292L39.6275 10.1327C39.397 10.2539 39.2817 10.3145 39.1965 10.2987C39.1223 10.285 39.0584 10.2385 39.0224 10.1722C38.981 10.0961 39.003 9.96774 39.047 9.71106L39.4644 7.27737C39.4775 7.2015 39.484 7.16356 39.4796 7.12725C39.4757 7.09511 39.4656 7.06402 39.4498 7.03573C39.432 7.00378 39.4044 6.97692 39.3493 6.92321L37.5803 5.20019C37.3938 5.01859 37.3006 4.92779 37.2893 4.84189C37.2794 4.76715 37.3038 4.69195 37.3556 4.63722C37.4152 4.57432 37.544 4.5555 37.8015 4.51785L40.2472 4.16039C40.3232 4.14927 40.3612 4.14371 40.3944 4.12831C40.4237 4.11467 40.4501 4.09548 40.4721 4.07179C40.497 4.04503 40.514 4.01057 40.548 3.94164L41.6413 1.72666Z" fill="#FE6601"/>
</g>
</g>
<g id="Icon_5">
<mask id="mask2_29_5745" style="mask-type:alpha" maskUnits="userSpaceOnUse" x="24" y="0" width="12" height="12">
<rect id="Bounding box_3" x="24" width="12" height="12" fill="white"/>
</mask>
<g mask="url(#mask2_29_5745)">
<path id="Icon_6" d="M29.6413 1.72666C29.7566 1.49319 29.8142 1.37645 29.8924 1.33916C29.9605 1.30671 30.0395 1.30671 30.1076 1.33916C30.1858 1.37645 30.2434 1.49319 30.3587 1.72666L31.452 3.94164C31.4861 4.01057 31.5031 4.04503 31.5279 4.07179C31.5499 4.09548 31.5763 4.11467 31.6057 4.12831C31.6388 4.14371 31.6768 4.14927 31.7529 4.16039L34.1985 4.51785C34.456 4.5555 34.5848 4.57432 34.6444 4.63722C34.6962 4.69195 34.7206 4.76715 34.7108 4.84189C34.6994 4.92779 34.6062 5.01859 34.4197 5.20019L32.6507 6.92321C32.5956 6.97692 32.568 7.00378 32.5502 7.03573C32.5345 7.06402 32.5244 7.09511 32.5205 7.12725C32.5161 7.16356 32.5226 7.2015 32.5356 7.27737L32.953 9.71106C32.997 9.96774 33.019 10.0961 32.9776 10.1722C32.9417 10.2385 32.8777 10.285 32.8035 10.2987C32.7183 10.3145 32.6031 10.2539 32.3726 10.1327L30.1862 8.98292C30.1181 8.94709 30.084 8.92918 30.0481 8.92214C30.0163 8.91591 29.9837 8.91591 29.9519 8.92214C29.916 8.92918 29.882 8.94709 29.8138 8.98292L27.6275 10.1327C27.397 10.2539 27.2817 10.3145 27.1965 10.2987C27.1223 10.285 27.0584 10.2385 27.0224 10.1722C26.981 10.0961 27.003 9.96774 27.047 9.71106L27.4644 7.27737C27.4775 7.2015 27.484 7.16356 27.4796 7.12725C27.4757 7.09511 27.4656 7.06402 27.4498 7.03573C27.432 7.00378 27.4044 6.97692 27.3493 6.92321L25.5803 5.20019C25.3938 5.01859 25.3006 4.92779 25.2893 4.84189C25.2794 4.76715 25.3038 4.69195 25.3556 4.63722C25.4152 4.57432 25.544 4.5555 25.8015 4.51785L28.2472 4.16039C28.3232 4.14927 28.3612 4.14371 28.3944 4.12831C28.4237 4.11467 28.4501 4.09548 28.4721 4.07179C28.497 4.04503 28.514 4.01057 28.548 3.94164L29.6413 1.72666Z" fill="#FE6601"/>
</g>
</g>
<g id="Icon_7">
<mask id="mask3_29_5745" style="mask-type:alpha" maskUnits="userSpaceOnUse" x="12" y="0" width="12" height="12">
<rect id="Bounding box_4" x="12" width="12" height="12" fill="white"/>
</mask>
<g mask="url(#mask3_29_5745)">
<path id="Icon_8" d="M17.6413 1.72666C17.7566 1.49319 17.8142 1.37645 17.8924 1.33916C17.9605 1.30671 18.0395 1.30671 18.1076 1.33916C18.1858 1.37645 18.2434 1.49319 18.3587 1.72666L19.452 3.94164C19.4861 4.01057 19.5031 4.04503 19.5279 4.07179C19.5499 4.09548 19.5763 4.11467 19.6057 4.12831C19.6388 4.14371 19.6768 4.14927 19.7529 4.16039L22.1985 4.51785C22.456 4.5555 22.5848 4.57432 22.6444 4.63722C22.6962 4.69195 22.7206 4.76715 22.7108 4.84189C22.6994 4.92779 22.6062 5.01859 22.4197 5.20019L20.6507 6.92321C20.5956 6.97692 20.568 7.00378 20.5502 7.03573C20.5345 7.06402 20.5244 7.09511 20.5205 7.12725C20.5161 7.16356 20.5226 7.2015 20.5356 7.27737L20.953 9.71106C20.997 9.96774 21.019 10.0961 20.9776 10.1722C20.9417 10.2385 20.8777 10.285 20.8035 10.2987C20.7183 10.3145 20.6031 10.2539 20.3726 10.1327L18.1862 8.98292C18.1181 8.94709 18.084 8.92918 18.0481 8.92214C18.0163 8.91591 17.9837 8.91591 17.9519 8.92214C17.916 8.92918 17.882 8.94709 17.8138 8.98292L15.6275 10.1327C15.397 10.2539 15.2817 10.3145 15.1965 10.2987C15.1223 10.285 15.0584 10.2385 15.0224 10.1722C14.981 10.0961 15.003 9.96774 15.047 9.71106L15.4644 7.27737C15.4775 7.2015 15.484 7.16356 15.4796 7.12725C15.4757 7.09511 15.4656 7.06402 15.4498 7.03573C15.432 7.00378 15.4044 6.97692 15.3493 6.92321L13.5803 5.20019C13.3938 5.01859 13.3006 4.92779 13.2893 4.84189C13.2794 4.76715 13.3038 4.69195 13.3556 4.63722C13.4152 4.57432 13.544 4.5555 13.8015 4.51785L16.2472 4.16039C16.3232 4.14927 16.3612 4.14371 16.3944 4.12831C16.4237 4.11467 16.4501 4.09548 16.4721 4.07179C16.497 4.04503 16.514 4.01057 16.548 3.94164L17.6413 1.72666Z" fill="#FE6601"/>
</g>
</g>
<g id="Icon_9">
<mask id="mask4_29_5745" style="mask-type:alpha" maskUnits="userSpaceOnUse" x="0" y="0" width="12" height="12">
<rect id="Bounding box_5" width="12" height="12" fill="white"/>
</mask>
<g mask="url(#mask4_29_5745)">
<path id="Icon_10" d="M5.64133 1.72666C5.75657 1.49319 5.81419 1.37645 5.89241 1.33916C5.96047 1.30671 6.03954 1.30671 6.1076 1.33916C6.18583 1.37645 6.24345 1.49319 6.35869 1.72666L7.45203 3.94164C7.48605 4.01057 7.50306 4.04503 7.52792 4.07179C7.54994 4.09548 7.57633 4.11467 7.60566 4.12831C7.63878 4.14371 7.6768 4.14927 7.75286 4.16039L10.1985 4.51785C10.456 4.5555 10.5848 4.57432 10.6444 4.63722C10.6962 4.69195 10.7206 4.76715 10.7108 4.84189C10.6994 4.92779 10.6062 5.01859 10.4197 5.20019L8.65072 6.92321C8.59558 6.97692 8.56801 7.00378 8.55021 7.03573C8.53446 7.06402 8.52435 7.09511 8.52046 7.12725C8.51605 7.16356 8.52256 7.2015 8.53557 7.27737L8.95298 9.71106C8.997 9.96774 9.01902 10.0961 8.97765 10.1722C8.94166 10.2385 8.87768 10.285 8.80353 10.2987C8.71831 10.3145 8.60306 10.2539 8.37256 10.1327L6.18619 8.98292C6.11807 8.94709 6.08401 8.92918 6.04812 8.92214C6.01635 8.91591 5.98367 8.91591 5.9519 8.92214C5.91601 8.92918 5.88195 8.94709 5.81383 8.98292L3.62746 10.1327C3.39696 10.2539 3.28171 10.3145 3.19649 10.2987C3.12234 10.285 3.05836 10.2385 3.02237 10.1722C2.981 10.0961 3.00301 9.96774 3.04704 9.71106L3.46444 7.27737C3.47746 7.2015 3.48396 7.16356 3.47956 7.12725C3.47566 7.09511 3.46556 7.06402 3.4498 7.03573C3.43201 7.00378 3.40444 6.97692 3.34929 6.92321L1.58028 5.20019C1.39383 5.01859 1.30061 4.92779 1.28926 4.84189C1.27939 4.76715 1.30378 4.69195 1.35563 4.63722C1.41522 4.57432 1.54399 4.5555 1.80152 4.51785L4.24716 4.16039C4.32321 4.14927 4.36124 4.14371 4.39436 4.12831C4.42368 4.11467 4.45008 4.09548 4.47209 4.07179C4.49695 4.04503 4.51396 4.01057 4.54799 3.94164L5.64133 1.72666Z" fill="#FE6601"/>
</g>
</g>
</g>
</svg>
