<svg width="24" height="24" viewBox="0 0 24 24" fill="none" xmlns="http://www.w3.org/2000/svg">
<mask id="mask0_29_10102" style="mask-type:alpha" maskUnits="userSpaceOnUse" x="0" y="0" width="24" height="24">
<rect width="24" height="24" fill="white"/>
</mask>
<g mask="url(#mask0_29_10102)">
<path d="M11 3H21V11H18L14 13V11H11V3Z" stroke="#FE6601" stroke-width="2" stroke-linecap="round" stroke-linejoin="round"/>
<path d="M15 16V20C15 20.2652 14.8946 20.5196 14.7071 20.7071C14.5196 20.8946 14.2652 21 14 21H6C5.73478 21 5.48043 20.8946 5.29289 20.7071C5.10536 20.5196 5 20.2652 5 20V6C5 5.73478 5.10536 5.48043 5.29289 5.29289C5.48043 5.10536 5.73478 5 6 5H8" stroke="#FE6601" stroke-width="2" stroke-linecap="round" stroke-linejoin="round"/>
<path d="M10 18V18.01" stroke="#FE6601" stroke-width="2" stroke-linecap="round" stroke-linejoin="round"/>
</g>
</svg>
