<svg width="40" height="40" viewBox="0 0 40 40" fill="none" xmlns="http://www.w3.org/2000/svg">
<g id="Icon">
<mask id="mask0_29_8716" style="mask-type:alpha" maskUnits="userSpaceOnUse" x="0" y="0" width="40" height="40">
<rect id="Bounding box" width="40" height="40" fill="white"/>
</mask>
<g mask="url(#mask0_29_8716)">
<path id="Vector" fill-rule="evenodd" clip-rule="evenodd" d="M25.2796 5.11628C24.1657 5.38617 22.9284 6.13877 21.7607 7.25688C19.8416 9.09435 18.4208 11.4302 17.4432 14.3546C17.422 14.418 17.1042 14.2893 16.5049 13.9745C14.8163 13.0876 13.1006 12.6558 11.2653 12.6558C9.80339 12.6558 8.15903 12.94 7.7101 13.2703C7.44583 13.4647 7.40315 13.9125 7.62746 14.1368C7.82878 14.3381 8.07576 14.339 8.89747 14.1412C9.25493 14.0551 9.78494 13.9621 10.0752 13.9345L10.6029 13.8843V16.135V18.3857L9.95788 18.3321C9.05923 18.2573 7.89867 18.0054 6.98009 17.6857C5.99928 17.3443 4.48369 16.5906 4.52317 16.4639C4.53943 16.412 4.84966 16.148 5.21267 15.8773C6.22499 15.1226 6.2246 15.1229 6.2246 14.8174C6.2246 14.5068 5.94087 14.2195 5.63424 14.2195C5.06201 14.2195 2.73338 16.3219 1.89494 17.5956C1.03672 18.8992 0.48779 20.2024 0.155431 21.7251C-0.0498017 22.6653 -0.0523036 25.1517 0.150974 26.1034C0.621875 28.3078 1.59972 30.1422 3.15886 31.7459C4.46727 33.0918 5.98732 34.0487 7.7101 34.611C9.04086 35.0453 9.63498 35.1335 11.2284 35.1336C12.739 35.1336 13.5901 35.0099 14.6957 34.6295L15.1229 34.4825L15.3062 34.6816C15.4069 34.791 15.6301 34.9456 15.8021 35.0249C16.0911 35.1583 16.3783 35.1694 19.577 35.171C23.2968 35.1729 23.368 35.1659 23.798 34.7619C23.9608 34.609 24.0013 34.6027 24.2291 34.6951C25.1231 35.0573 25.4307 35.1223 26.2787 35.1279C26.986 35.1326 27.2359 35.1009 27.6861 34.9491C28.3458 34.7267 29.1049 34.328 29.6568 33.9143C29.8808 33.7464 30.083 33.609 30.1064 33.609C30.1298 33.609 30.1488 33.8879 30.1488 34.2288C30.1488 35.2557 29.7123 35.1727 35.1105 35.1727H39.66L39.83 34.9918L40 34.8108V27.9298V21.0487L39.8191 20.8787C39.6443 20.7145 39.5779 20.7087 37.8645 20.7087H36.0908L36.0901 20.1028C36.0887 18.83 35.8061 16.5368 35.5965 16.0977C35.4036 15.6936 34.776 15.6902 34.5682 16.0921C34.461 16.2994 34.465 16.4069 34.6112 17.2442C34.7025 17.767 34.7921 18.7189 34.8177 19.4382L34.863 20.7087H32.6759C30.4909 20.7087 30.4887 20.7089 30.3188 20.8896C30.1496 21.0698 30.1488 21.087 30.1488 24.4861V27.9016H27.3065H24.4641L24.4188 27.3613C24.331 26.3136 23.7741 25.6961 22.8149 25.5825L22.4477 25.539L22.445 24.0034C22.4427 22.7148 22.4144 22.3397 22.2686 21.6713C21.7651 19.3622 20.7139 17.4585 19.0228 15.7932L18.4376 15.2168L18.6531 14.5814C18.7716 14.2318 19.0186 13.5851 19.2019 13.1444L19.5352 12.343H26.2934H33.0514L33.2837 12.8552C33.4115 13.137 33.5875 13.5589 33.6751 13.7928C33.9172 14.44 34.2936 14.6212 34.712 14.2919C35.0138 14.0546 34.9787 13.745 34.53 12.6863C32.6488 8.24723 29.1282 4.96656 26.2819 5.00026C25.9791 5.00385 25.5281 5.05608 25.2796 5.11628ZM27.3456 6.39912C27.6188 6.48411 28.0798 6.69286 28.37 6.86306C28.8905 7.16845 29.8906 7.94435 30.1805 8.26771L30.3294 8.43385H26.3146H22.2998L22.5692 8.15333C23.2541 7.44037 24.5388 6.60365 25.3269 6.35722C25.8286 6.20038 26.7689 6.21992 27.3456 6.39912ZM31.898 10.3695L32.3571 11.053L26.354 11.073C23.0522 11.084 20.3327 11.075 20.3106 11.0529C20.2885 11.0307 20.4733 10.7139 20.7214 10.3487L21.1723 9.68479L26.3056 9.68542L31.4389 9.68597L31.898 10.3695ZM26.1615 13.65C25.8274 13.7699 25.6924 14.0052 25.6924 14.4676V14.9231H25.3761C24.7949 14.9231 24.4702 15.5117 24.8158 15.9386C24.9113 16.0565 25.0728 16.1246 25.324 16.1529L25.6924 16.1944V16.6822V17.1701L25.324 17.2116C25.0728 17.2399 24.9113 17.308 24.8158 17.4259C24.4702 17.8528 24.7949 18.4414 25.3761 18.4414H25.6924V18.9496V19.4578H25.4539C25.165 19.4578 24.791 19.64 24.7245 19.8131C24.5475 20.2744 24.8635 20.7087 25.3761 20.7087H25.6924V21.2169C25.6924 21.7032 25.6842 21.7251 25.502 21.7251C25.0105 21.7251 24.6825 21.9953 24.6785 22.4035C24.6752 22.7327 24.9777 22.976 25.3902 22.976H25.6924V23.5233V24.0706H25.3541C24.9453 24.0706 24.676 24.3078 24.676 24.6679C24.676 25.0092 24.9564 25.2434 25.3651 25.2434H25.6924V25.716C25.6924 26.1136 25.7229 26.2192 25.8843 26.3806C25.9987 26.495 26.1644 26.5715 26.2948 26.57C26.7181 26.5652 26.9433 26.2419 26.9433 25.6394V25.2434H27.2596C27.8498 25.2434 28.1434 24.716 27.7976 24.2766C27.6662 24.1095 27.5703 24.0706 27.2894 24.0706H26.9433V23.5233V22.976H27.2596C28.1549 22.976 28.1846 21.8935 27.2929 21.7598L26.9433 21.7074V21.208V20.7087H27.2474C28.1484 20.7087 28.1738 19.6023 27.2754 19.4817L26.9433 19.4372V18.9393V18.4414H27.1742C27.4999 18.4414 27.7715 18.2999 27.8729 18.0773C28.0054 17.7864 27.9799 17.6677 27.7312 17.419C27.5638 17.2516 27.4278 17.1904 27.223 17.1904H26.9433V16.6822V16.174H27.223C27.4278 16.174 27.5638 16.1129 27.7312 15.9455C27.9799 15.6968 28.0054 15.5781 27.8729 15.2872C27.7724 15.0668 27.5004 14.9231 27.1836 14.9231C26.9686 14.9231 26.9611 14.9092 26.928 14.451C26.9039 14.1188 26.8489 13.9358 26.7426 13.8337C26.5672 13.6652 26.3289 13.5899 26.1615 13.65ZM12.9965 14.0277C14.6032 14.308 16.3052 15.0921 17.6199 16.158C17.8027 16.3062 17.9522 16.4551 17.9522 16.489C17.9522 16.5875 16.495 17.3044 15.6848 17.6045C14.7842 17.9381 13.3734 18.2605 12.4989 18.3325L11.8538 18.3857V16.1462V13.9067H12.0781C12.2015 13.9067 12.6147 13.9612 12.9965 14.0277ZM4.51574 17.9284C6.3669 18.8929 8.03675 19.395 9.99697 19.5765L10.6029 19.6325V21.4606V23.2888H5.91187H1.22084V23.0254C1.22084 22.1786 1.64796 20.6329 2.19595 19.4969C2.46545 18.9381 3.43946 17.425 3.52961 17.425C3.54055 17.425 3.98433 17.6515 4.51574 17.9284ZM19.021 17.5618C19.7464 18.4737 20.4932 19.8718 20.8064 20.9042C20.9966 21.5311 21.2359 22.7563 21.2359 23.1036V23.2888H16.5449H11.8538V21.4606V19.6325L12.4598 19.5777C13.3887 19.4937 14.6171 19.2397 15.5676 18.9353C16.3944 18.6705 18.0504 17.923 18.5385 17.5943C18.833 17.3961 18.8864 17.3925 19.021 17.5618ZM38.8272 22.6242V23.367H37.4946C36.1681 23.367 36.1609 23.3679 35.9613 23.5676C35.7994 23.7294 35.7699 23.8164 35.8086 24.0171C35.9017 24.4988 36.0346 24.5397 37.5068 24.5397H38.8272V25.2825V26.0252H35.0744H31.3216V25.2825V24.5397H32.6542C33.965 24.5397 33.9901 24.5366 34.1788 24.3478C34.4134 24.1133 34.4237 23.8462 34.2087 23.573L34.0467 23.367H32.6841H31.3216V22.6242V21.8815H35.0744H38.8272V22.6242ZM10.6029 26.3618V28.1839L9.6969 28.2833C7.88194 28.4824 6.26581 28.9867 4.51386 29.9005C3.60998 30.372 3.53868 30.3963 3.43696 30.2676C3.11203 29.8568 2.6233 29.1392 2.41135 28.7616C1.86281 27.7846 1.34601 26.1591 1.25118 25.1126L1.19926 24.5397H5.90108H10.6029V26.3618ZM21.2359 24.6851C21.2359 24.7652 21.2138 24.9921 21.1867 25.1894L21.1375 25.5483L18.5871 25.5717L16.0367 25.5952L15.6636 25.8145C15.4583 25.9351 15.1945 26.1787 15.0772 26.3557C14.8776 26.6569 14.8623 26.7414 14.8383 27.6733L14.8127 28.6691L14.5646 28.5975C14.2011 28.4926 13.0723 28.3082 12.4207 28.2472L11.8538 28.1942V26.3669V24.5397H16.5449C21.0665 24.5397 21.2359 24.545 21.2359 24.6851ZM23.0341 26.9634C23.1855 27.1148 23.1905 27.224 23.1905 30.3914C23.1905 33.6181 23.1882 33.665 23.0259 33.8119C22.8695 33.9534 22.6971 33.9609 19.5789 33.9609H16.2965L16.1446 33.7733C15.9987 33.5932 15.9936 33.4547 16.0147 30.3073C16.0357 27.1658 16.043 27.0242 16.1884 26.918C16.3138 26.8264 16.9101 26.807 19.609 26.807C22.7735 26.807 22.8828 26.812 23.0341 26.9634ZM38.8272 27.9407V28.6835H37.4647H36.1021L35.934 28.8972C35.7321 29.1539 35.7701 29.5106 36.0215 29.7194C36.1641 29.8378 36.3641 29.8562 37.5068 29.8562H38.8272V30.5997V31.3432L35.094 31.3229L31.3607 31.3026L31.3382 30.5794L31.3157 29.8562H32.6513C33.9651 29.8562 33.9901 29.8531 34.1788 29.6643C34.4129 29.4303 34.4238 29.1628 34.2102 28.8913L34.0496 28.6871L32.7051 28.6657L31.3607 28.6444L31.3382 27.9212L31.3157 27.198H35.0714H38.8272V27.9407ZM17.4185 28.1607C17.1654 28.4302 17.1775 29.0887 17.4405 29.3515C17.6867 29.5978 18.0259 29.6024 18.2513 29.3626C18.4866 29.112 18.4949 28.3662 18.2649 28.1362C18.0472 27.9184 17.635 27.9304 17.4185 28.1607ZM20.9368 28.1607C20.6837 28.4302 20.6958 29.0887 20.9587 29.3515C21.4917 29.8846 22.2029 29.2078 21.9417 28.4162C21.7886 27.9524 21.259 27.8178 20.9368 28.1607ZM30.1488 29.8562V30.5599H27.2951H24.4414V29.8562V29.1526H27.2951H30.1488V29.8562ZM10.6029 31.7036V33.9419L10.0415 33.8867C8.80889 33.7652 7.2732 33.2453 6.10272 32.5533C5.34816 32.1072 4.48791 31.4308 4.52684 31.314C4.57954 31.1558 6.14345 30.4229 7.12419 30.0967C8.13737 29.7598 9.49957 29.4823 10.1924 29.4716L10.6029 29.4653V31.7036ZM13.8937 29.7013C14.336 29.7914 14.7265 29.8828 14.7613 29.9044C14.7963 29.926 14.8248 30.6989 14.8248 31.6219V33.3002L14.6098 33.3839C14.1689 33.5558 12.958 33.8332 12.4153 33.8867L11.8538 33.9419V31.692V29.4422L12.4716 29.4898C12.8115 29.516 13.4514 29.6112 13.8937 29.7013ZM19.4653 29.604C19.1173 29.6588 18.8808 30.1996 18.9991 30.6707C19.1231 31.1648 19.6811 31.3399 20.0276 30.9934C20.1792 30.8418 20.2195 30.721 20.2195 30.4176C20.2195 29.845 19.9286 29.5311 19.4653 29.604ZM17.6003 31.2738C17.3275 31.4262 17.2485 31.5949 17.2485 32.0248C17.2485 32.365 17.2845 32.4794 17.4405 32.6353C17.6749 32.8698 17.942 32.8801 18.2153 32.6651C18.3956 32.5233 18.4213 32.4465 18.4213 32.0483C18.4213 31.7289 18.3805 31.5455 18.2845 31.4319C18.1137 31.2301 17.8057 31.1589 17.6003 31.2738ZM21.1186 31.2738C20.8458 31.4262 20.7668 31.5949 20.7668 32.0248C20.7668 32.365 20.8028 32.4794 20.9587 32.6353C21.201 32.8776 21.479 32.8796 21.7565 32.6409C21.9454 32.4784 21.9731 32.3984 21.9731 32.0148C21.9731 31.681 21.936 31.5386 21.8195 31.4242C21.6205 31.2288 21.316 31.1634 21.1186 31.2738ZM30.1488 31.8422C30.1488 32.0533 28.7659 33.128 27.9988 33.513C26.9241 34.0524 25.7968 34.0573 24.6564 33.5275L24.4414 33.4276V32.5801V31.7326H27.2951C29.6901 31.7326 30.1488 31.7502 30.1488 31.8422ZM38.8272 33.258V34.0014L35.094 33.9812L31.3607 33.9609L31.3382 33.2377L31.3157 32.5145H35.0714H38.8272V33.258Z" fill="black"/>
</g>
</g>
</svg>
