<svg width="40" height="40" viewBox="0 0 40 40" fill="none" xmlns="http://www.w3.org/2000/svg">
<g id="Icon">
<mask id="mask0_29_8756" style="mask-type:alpha" maskUnits="userSpaceOnUse" x="0" y="0" width="40" height="40">
<rect id="Bounding box" width="40" height="40" fill="white"/>
</mask>
<g mask="url(#mask0_29_8756)">
<path id="Vector" fill-rule="evenodd" clip-rule="evenodd" d="M10.2495 0.11479C8.62293 0.552073 7.34687 1.90002 7.00125 3.54592C6.85645 4.2356 6.85645 4.65351 7.00125 5.34319C7.27537 6.64878 8.20174 7.86631 9.34981 8.42979L9.90149 8.70056L9.63604 9.3271C9.28917 10.1459 8.94714 11.4569 8.83376 12.4018C8.64137 14.0062 8.97754 15.6618 9.78068 17.0655C10.1706 17.747 11.051 18.7307 11.7234 19.2361L12.1829 19.5816L11.3455 19.9454C8.86759 21.022 6.62 22.7019 5.33183 24.4401C3.67436 26.6766 3.55785 28.8025 5.01644 30.1936L5.46764 30.6241L5.28033 31.0334C4.98019 31.6893 4.83172 32.3965 4.83344 33.1617C4.83555 34.0923 5.00941 34.7925 5.47373 35.7404C6.37104 37.5721 8.03022 39.055 9.91391 39.7088C12.1756 40.4939 14.6982 39.6508 16.0132 37.6703C16.3276 37.1968 16.1736 37.2193 17.4329 37.463C18.1967 37.6107 20.7725 37.7044 21.6949 37.618C22.1803 37.5725 22.3367 37.5248 22.4843 37.3772C22.7196 37.142 22.7184 36.8621 22.4809 36.5861C22.2955 36.3705 22.2857 36.3686 21.5628 36.4059C19.9394 36.4898 18.2029 36.3941 17.11 36.1604L16.7481 36.083L16.8151 35.7945C16.852 35.6358 16.883 35.3879 16.884 35.2436C16.8858 34.9971 16.8989 34.9844 17.0988 35.0345C17.9021 35.2361 18.3382 35.2695 20.1679 35.2695C21.9975 35.2695 22.4337 35.2361 23.2369 35.0345C23.4374 34.9842 23.4498 34.9966 23.4498 35.2466C23.4498 35.9894 24.0413 37.3928 24.6578 38.1128C26.5288 40.2979 29.5361 40.615 32.0736 38.8944C33.6894 37.7987 34.9995 36.0191 35.3734 34.412C35.6257 33.3275 35.5017 32.0116 35.055 31.0334L34.8681 30.6241L35.3193 30.1936C37.088 28.5066 36.5269 25.7867 33.8718 23.1761C32.8036 22.1259 32.534 21.9997 32.1591 22.3746C31.7852 22.7484 31.873 22.9504 32.7973 23.8428C34.013 25.0167 34.5886 25.8206 34.9358 26.8297C35.1135 27.3462 35.1401 28.0635 34.9989 28.5346C34.9472 28.7073 34.7413 29.0264 34.5414 29.2438L34.178 29.639L33.7174 29.227C32.889 28.4862 31.6249 27.9808 30.5085 27.9441L29.9649 27.9262L29.8295 27.1302C29.554 25.5109 28.801 22.9648 28.1422 21.425C28.0117 21.1199 27.9486 20.8814 27.9941 20.8652C28.0377 20.8497 28.642 21.1222 29.3369 21.4708C30.0318 21.8194 30.6715 22.1046 30.7585 22.1046C31.182 22.1046 31.4676 21.5654 31.2334 21.2079C31.0983 21.0018 29.8846 20.329 28.8282 19.8747L28.1506 19.5832L28.6112 19.2369C28.8647 19.0465 29.329 18.614 29.6431 18.2758C31.7125 16.0483 32.1147 12.7724 30.7313 9.41266L30.4368 8.69727L30.9751 8.4405C31.7318 8.07948 32.5514 7.25728 32.9331 6.47625C33.2381 5.85221 33.4492 5.02117 33.4492 4.44456C33.4492 3.06723 32.6448 1.54783 31.5093 0.780872C30.7576 0.273028 30.0879 0.0496199 29.1928 0.00804844C28.2782 -0.0344608 27.6715 0.0897068 26.8881 0.479869C26.2611 0.792046 25.3718 1.65512 25.0572 2.25658C24.9336 2.49296 24.8269 2.69433 24.8201 2.70418C24.8133 2.71395 24.4717 2.60181 24.0609 2.45498C23.1302 2.12233 21.8654 1.87416 20.7934 1.81383C20.0636 1.77273 19.953 1.7839 19.7969 1.9144C19.5229 2.14359 19.49 2.49914 19.7183 2.7645C19.9006 2.9765 19.9473 2.98807 20.8736 3.0505C22.5312 3.16233 24.1654 3.65579 25.3752 4.40971C27.5923 5.79157 29.7075 9.11971 30.2149 12.0243C30.3791 12.9647 30.3274 14.2346 30.0908 15.0697C29.5118 17.1139 27.899 18.6647 25.3897 19.5903L24.9462 19.7538L25.1356 19.3401C25.8053 17.8771 25.0031 15.6521 23.3567 14.4065C21.7305 13.1761 19.7563 12.9409 18.0212 13.7708C15.7228 14.8701 14.3734 17.5343 15.2001 19.3401L15.3896 19.7538L14.946 19.5903C13.5422 19.0724 12.6467 18.514 11.7264 17.5826C10.6306 16.4734 10.1202 15.2795 10.0353 13.6262C9.93626 11.6974 10.6692 9.45885 12.1074 7.29697C12.7593 6.31707 14.0518 4.99171 14.8761 4.45768C15.3883 4.12589 16.9482 3.42871 17.1784 3.42871C17.2168 3.42871 17.433 3.37386 17.6589 3.30673C17.9918 3.20788 18.089 3.13865 18.172 2.94111C18.3648 2.48249 18.1015 2.1003 17.5928 2.1003C17.4044 2.1003 16.0142 2.51195 15.5965 2.69144C15.5536 2.70988 15.4147 2.52289 15.288 2.27588C14.7911 1.30755 13.6256 0.41173 12.4713 0.11104C11.897 -0.0385242 10.8129 -0.0367269 10.2495 0.11479ZM12.0695 1.27895C12.9819 1.47227 13.7951 2.06834 14.1992 2.84015C14.321 3.07285 14.4039 3.27602 14.3835 3.29173C14.363 3.30736 14.1001 3.50005 13.7993 3.71979C12.794 4.45417 11.5522 5.84205 10.7193 7.16218C10.5027 7.50561 10.4313 7.56609 10.2928 7.52335C9.56212 7.29775 8.85829 6.65965 8.46735 5.8683C8.1833 5.29333 8.17307 5.24387 8.17307 4.44831C8.17307 3.68267 8.19088 3.58648 8.42382 3.09473C8.8697 2.15344 9.70355 1.48829 10.7127 1.26902C11.2864 1.14439 11.4399 1.14556 12.0695 1.27895ZM30.0655 1.39491C30.8958 1.68669 31.5389 2.29096 31.9449 3.16068C32.1381 3.57445 32.1613 3.71229 32.1619 4.44831C32.1626 5.2445 32.1526 5.29287 31.8684 5.8683C31.4769 6.6609 30.7739 7.2976 30.0402 7.52421C29.8945 7.56922 29.8131 7.4874 29.4479 6.92861C28.5798 5.60051 27.3189 4.23717 26.3857 3.6175C26.1463 3.45848 25.9507 3.28946 25.9511 3.2418C25.9526 3.05871 26.4184 2.35371 26.7146 2.08608C27.6593 1.23253 28.8846 0.979822 30.0655 1.39491ZM16.2665 11.1362C16.1278 11.3124 16.1045 11.4515 16.1045 12.1025C16.1045 12.7534 16.1278 12.8925 16.2665 13.0687C16.4274 13.2734 16.7152 13.3352 16.9996 13.2261C17.2367 13.135 17.3547 12.7617 17.3547 12.1025C17.3547 11.4433 17.2367 11.0699 16.9996 10.9789C16.7152 10.8698 16.4274 10.9315 16.2665 11.1362ZM23.3114 10.9826C22.9917 11.1113 22.843 12.4686 23.0953 12.9564C23.2957 13.344 23.8065 13.4028 24.0692 13.0687C24.2079 12.8925 24.2312 12.7534 24.2312 12.1025C24.2312 11.4515 24.2079 11.3124 24.0692 11.1362C23.9123 10.9367 23.5888 10.871 23.3114 10.9826ZM21.3986 14.7185C21.5812 14.7932 21.7307 14.8778 21.7307 14.9063C21.7307 14.9348 21.6253 15.086 21.4964 15.2424C21.2109 15.5888 20.5502 15.9314 20.1679 15.9314C19.7855 15.9314 19.1248 15.5888 18.8393 15.2424C18.7104 15.086 18.605 14.9339 18.605 14.9042C18.605 14.8524 19.1019 14.651 19.4255 14.5717C19.7679 14.4877 21.0718 14.5847 21.3986 14.7185ZM17.774 15.8513C18.047 16.2639 18.6809 16.756 19.1574 16.9252L19.5427 17.0621V18.7328V20.4035L19.0934 20.3477C17.9528 20.2059 16.8469 19.662 16.4361 19.0405C16.2465 18.7538 16.2217 18.6427 16.2217 18.0815C16.2217 17.5064 16.249 17.3916 16.5124 16.8587C16.7601 16.3577 17.3882 15.5407 17.5256 15.5407C17.5492 15.5407 17.6609 15.6805 17.774 15.8513ZM23.3559 16.1063C23.908 16.8219 24.1122 17.3559 24.1132 18.0857C24.1139 18.6431 24.0892 18.7538 23.8996 19.0405C23.4888 19.662 22.3829 20.2059 21.2423 20.3477L20.793 20.4035V18.7328V17.0621L21.1642 16.9266C21.6618 16.745 22.2329 16.3121 22.5288 15.8923C22.8187 15.481 22.8871 15.4987 23.3559 16.1063ZM14.3832 20.6972C15.0016 20.9409 16.4516 21.3066 17.3938 21.4564C18.6068 21.6492 21.7313 21.6491 22.9419 21.456C23.9241 21.2994 25.1344 20.9953 25.8646 20.7217C26.1396 20.6186 26.391 20.5623 26.423 20.5966C26.4552 20.631 26.6559 21.0634 26.8693 21.5576C27.7383 23.571 28.3225 25.5672 28.7167 27.8706C28.7508 28.0694 28.7302 28.1382 28.6254 28.175C28.5509 28.2011 28.2371 28.3372 27.9281 28.4773L27.3661 28.7322L27.317 28.4855C27.045 27.1204 26.2995 25.7892 25.2096 24.7224C21.7015 21.2889 15.8421 22.3166 13.6256 26.7541C13.3909 27.2238 13.1109 28.0228 13.0187 28.4855L12.9696 28.7322L12.4077 28.4773C12.0986 28.3372 11.7848 28.2011 11.7103 28.175C11.5566 28.1211 11.5543 28.1456 11.8536 26.6559C12.01 25.8779 12.0286 25.6653 11.9527 25.5229C11.7371 25.1182 11.2964 25.0302 10.9948 25.3317C10.8541 25.4725 10.7705 25.7433 10.6077 26.5855C10.4936 27.1764 10.3998 27.7198 10.3993 27.7931C10.3987 27.9043 10.3069 27.9292 9.84116 27.9441C8.71185 27.9804 7.45127 28.4822 6.61835 29.227L6.15771 29.639L5.79075 29.24C5.33816 28.7478 5.20852 28.3349 5.25908 27.5471C5.38434 25.595 7.87011 23.0114 11.2077 21.3644C11.7924 21.0758 12.3046 20.8519 12.3458 20.8666C12.3871 20.8813 12.3165 21.1375 12.1889 21.4357C11.8153 22.309 11.4941 23.2714 11.4941 23.5174C11.4941 23.8239 11.7421 24.0582 12.0666 24.0582C12.3801 24.0582 12.605 23.8384 12.7465 23.394C12.9644 22.7094 13.8804 20.5418 13.9517 20.5418C13.9721 20.5418 14.1663 20.6117 14.3832 20.6972ZM21.7698 24.0965C22.4503 24.2814 23.4161 24.7783 23.9753 25.2311C24.929 26.0034 25.7322 27.2364 26.0236 28.3758C26.2874 29.4075 26.2803 29.4523 25.7793 29.9102C24.8804 30.7318 24.0121 32.0839 23.6863 33.1698L23.5198 33.7247L23.1136 33.8127C22.1277 34.0261 21.5226 34.0813 20.1679 34.0813C18.8137 34.0813 18.2081 34.0261 17.2237 33.813L16.8192 33.7255L16.6206 33.0919C16.2773 31.9973 15.3716 30.6219 14.4732 29.8311C14.0617 29.469 14.049 29.3541 14.3121 28.3723C14.8923 26.2069 16.6666 24.5182 18.8785 24.0263C19.5601 23.8747 21.0903 23.9119 21.7698 24.0965ZM18.7187 27.9227C18.4238 28.2175 18.4708 28.4623 18.9116 28.9284L19.2963 29.3351L18.9116 29.7384C18.474 30.1971 18.4291 30.4216 18.7099 30.748C19.0036 31.0895 19.3123 31.0409 19.7807 30.5794L20.1679 30.1982L20.555 30.5794C21.0234 31.0409 21.3321 31.0895 21.6258 30.748C21.9066 30.4216 21.8617 30.1971 21.4241 29.7384L21.0394 29.3351L21.4241 28.9284C21.8649 28.4623 21.9119 28.2175 21.617 27.9227C21.3117 27.6173 21.0126 27.6653 20.5552 28.0932L20.1679 28.4555L19.7805 28.0932C19.3231 27.6653 19.024 27.6173 18.7187 27.9227ZM11.3381 29.3571C13.5975 30.1418 15.4028 32.2465 15.6741 34.412C15.803 35.4411 15.3025 36.7873 14.4883 37.6015C13.8843 38.2055 13.0109 38.6406 12.1753 38.7537C9.7645 39.08 6.86638 36.8594 6.17498 34.1562C6.02174 33.557 5.97157 32.7319 6.08832 32.7319C6.12364 32.7319 6.48153 32.9429 6.88372 33.2008C7.28592 33.4587 7.65975 33.6696 7.71453 33.6696C7.93364 33.6696 8.20659 33.481 8.2945 33.2688C8.45657 32.8774 8.29559 32.6731 7.31687 32.0287L6.42691 31.4426L6.59671 31.13C6.81621 30.726 7.61498 29.9283 8.02116 29.7075L8.3381 29.5351L8.91979 30.4287C9.55938 31.4113 9.76115 31.5711 10.1555 31.4077C10.3668 31.3202 10.5564 31.047 10.5564 30.8301C10.5564 30.7767 10.3458 30.4003 10.0884 29.9938C9.831 29.5873 9.62002 29.223 9.61955 29.1844C9.61814 29.0693 10.8722 29.1952 11.3381 29.3571ZM30.7162 29.196C30.7157 29.2283 30.5047 29.5873 30.2473 29.9938C29.9899 30.4003 29.7793 30.7767 29.7793 30.8301C29.7793 31.047 29.9689 31.3202 30.1802 31.4077C30.5746 31.5711 30.7763 31.4113 31.4159 30.4287L31.9976 29.5351L32.3055 29.7075C32.7906 29.9789 33.2976 30.4635 33.6224 30.9661L33.9214 31.4286L33.042 32.0154C32.5584 32.3382 32.1198 32.6578 32.0675 32.7257C31.8598 32.995 31.9836 33.3925 32.3333 33.5788C32.6031 33.7225 32.6778 33.6972 33.452 33.2008C33.8542 32.9429 34.2121 32.7319 34.2474 32.7319C34.3659 32.7319 34.313 33.5607 34.1552 34.1777C33.6033 36.3357 31.5198 38.3171 29.3778 38.7211C27.2108 39.1298 25.0363 37.5637 24.6966 35.3497C24.5061 34.1079 24.9638 32.7451 26.0039 31.4573C26.8935 30.3557 28.4357 29.3901 29.623 29.1914C29.9731 29.1328 30.717 29.1359 30.7162 29.196ZM10.9521 32.4262C10.5421 32.5599 10.3592 32.6802 9.9622 33.0772C9.53867 33.5008 9.45272 33.6383 9.30261 34.1323C9.08639 34.8442 9.1321 35.3827 9.46686 36.0692C9.72512 36.5989 10.1378 37.0029 10.7067 37.2833C11.0024 37.429 11.1929 37.4594 11.8067 37.4585C12.4317 37.4576 12.6046 37.4286 12.9007 37.2746C13.383 37.0235 13.8899 36.5206 14.1318 36.053C14.4215 35.4928 14.4656 34.5845 14.2328 33.9675C13.7499 32.6873 12.2751 31.9944 10.9521 32.4262ZM27.8984 32.3699C27.0574 32.5967 26.3299 33.2706 26.0649 34.0684C25.8733 34.6453 25.9357 35.5318 26.2045 36.053C26.4456 36.5203 26.9523 37.0233 27.4351 37.2746C27.7311 37.4286 27.904 37.4576 28.529 37.4585C29.1428 37.4594 29.3333 37.429 29.629 37.2833C30.2077 36.9982 30.6099 36.5998 30.8865 36.038C31.1001 35.604 31.1409 35.4334 31.142 34.9669C31.1442 34.1311 30.949 33.6535 30.3678 33.0718C29.9622 32.666 29.8049 32.5656 29.3563 32.4272C28.7596 32.2428 28.4193 32.2295 27.8984 32.3699ZM12.4348 33.6712C12.7729 33.8437 13.0918 34.2713 13.1718 34.6594C13.3011 35.2867 12.7873 36.0684 12.1294 36.2456C10.807 36.6017 9.83655 34.9576 10.7763 33.9531C11.2003 33.4998 11.8743 33.3852 12.4348 33.6712ZM29.0981 33.621C30.3415 34.153 30.1266 36.0095 28.7896 36.285C28.4064 36.364 27.906 36.1907 27.5821 35.8668C27.0809 35.3656 27.0148 34.7217 27.4029 34.1209C27.7469 33.5884 28.5018 33.3658 29.0981 33.621Z" fill="black"/>
</g>
</g>
</svg>
