<svg width="74" height="74" viewBox="0 0 74 74" fill="none" xmlns="http://www.w3.org/2000/svg">
<rect opacity="0.08" width="74" height="74" rx="37" fill="#1DA1F2"/>
<mask id="mask0_1056_71" style="mask-type:alpha" maskUnits="userSpaceOnUse" x="17" y="17" width="40" height="40">
<rect x="17" y="17" width="40" height="40" fill="white"/>
</mask>
<g mask="url(#mask0_1056_71)">
<path d="M53.6673 23.6833C52.0007 24.5 50.3673 24.8317 48.6673 25.3333C46.799 23.225 44.029 23.1083 41.3673 24.105C38.7057 25.1017 36.9623 27.5383 37.0007 30.3333V32C31.5923 32.1383 26.7757 29.675 23.6673 25.3333C23.6673 25.3333 16.6973 37.7217 30.334 43.6667C27.214 45.745 24.1023 47.1467 20.334 47C25.8473 50.005 31.8557 51.0383 37.0573 49.5283C43.024 47.795 47.9273 43.3233 49.809 36.625C50.3703 34.5878 50.649 32.4831 50.6373 30.37C50.634 29.955 53.154 25.75 53.6673 23.6817V23.6833Z" stroke="#1DA1F2" stroke-width="2" stroke-linecap="round" stroke-linejoin="round"/>
</g>
</svg>
