<svg width="33" height="12" viewBox="0 0 33 12" fill="none" xmlns="http://www.w3.org/2000/svg">
<path fill-rule="evenodd" clip-rule="evenodd" d="M8.44956 11.1443H5.68016L3.60344 3.05648C3.50487 2.68444 3.29558 2.35553 2.98772 2.20052C2.21942 1.81095 1.3728 1.50092 0.449219 1.34455V1.03317H4.9105C5.52623 1.03317 5.98802 1.50092 6.06498 2.04415L7.1425 7.87817L9.91055 1.03317H12.603L8.44956 11.1443ZM14.1409 11.1443H11.5254L13.6791 1.03317H16.2945L14.1409 11.1443ZM19.6795 3.83427C19.7565 3.28969 20.2183 2.97831 20.7571 2.97831C21.6037 2.90013 22.5259 3.05649 23.2956 3.44471L23.7574 1.26773C22.9877 0.956353 22.1411 0.799988 21.3728 0.799988C18.8343 0.799988 16.9871 2.20053 16.9871 4.14431C16.9871 5.62303 18.2955 6.39946 19.2191 6.86721C20.2183 7.33361 20.6031 7.64499 20.5262 8.11139C20.5262 8.81099 19.7565 9.12237 18.9882 9.12237C18.0646 9.12237 17.141 8.88917 16.2958 8.49961L15.834 10.6779C16.7576 11.0661 17.7568 11.2225 18.6803 11.2225C21.5267 11.2993 23.2956 9.90015 23.2956 7.80001C23.2956 5.15529 19.6795 5.00027 19.6795 3.83427ZM32.4472 11.1443L30.3705 1.03317H28.1399C27.6781 1.03317 27.2163 1.34455 27.0624 1.81095L23.2168 11.1443H25.9092L26.4466 9.66693H29.7548L30.0627 11.1443H32.4472ZM28.528 3.7561L29.2963 7.56681H27.1426L28.528 3.7561Z" fill="#172B85"/>
</svg>
