<svg width="24" height="24" viewBox="0 0 24 24" fill="none" xmlns="http://www.w3.org/2000/svg">
<mask id="mask0_29_12632" style="mask-type:alpha" maskUnits="userSpaceOnUse" x="0" y="0" width="24" height="24">
<rect width="24" height="24" fill="white"/>
</mask>
<g mask="url(#mask0_29_12632)">
<path d="M12 2C17.5228 2 22 6.47715 22 12C22 17.5228 17.5228 22 12 22C10.1661 22 8.44753 21.5064 6.96988 20.6447L2.00418 22L3.35614 17.0315C2.49396 15.5536 2 13.8345 2 12C2 6.47715 6.47715 2 12 2ZM8.39134 7.30833C8.26195 7.31742 8.13509 7.34902 8.01959 7.40811C7.93294 7.45244 7.8525 7.51651 7.72611 7.63586C7.60676 7.74855 7.53759 7.84697 7.46471 7.94186C7.09501 8.4232 6.89631 9.01405 6.9 9.62098C6.90201 10.1116 7.02945 10.5884 7.23071 11.0336C7.63884 11.9364 8.3119 12.8908 9.20096 13.7759C9.41452 13.9885 9.62375 14.2034 9.84936 14.402C10.9528 15.3736 12.2678 16.0742 13.6897 16.4482C13.6897 16.4482 14.2497 16.5342 14.2579 16.5347C14.4434 16.5447 14.6286 16.5313 14.8143 16.5218C15.1056 16.5068 15.39 16.428 15.6474 16.2909C15.8129 16.2028 15.8912 16.159 16.0301 16.0714C16.0301 16.0714 16.0727 16.0426 16.1549 15.9814C16.2899 15.8808 16.3733 15.81 16.4856 15.6934C16.5684 15.6074 16.6396 15.5058 16.6946 15.3913C16.7728 15.2281 16.8515 14.9166 16.8828 14.6579C16.9067 14.4603 16.8995 14.3523 16.8969 14.2854C16.8926 14.1778 16.8037 14.0671 16.7063 14.0201L16.1248 13.7587C16.1248 13.7587 15.2553 13.3803 14.7235 13.1377C14.6681 13.1124 14.6075 13.1007 14.5466 13.097C14.4132 13.0888 14.2637 13.1236 14.1686 13.2238C14.1636 13.2218 14.0974 13.279 13.3739 14.1555C13.334 14.2032 13.2405 14.3069 13.0788 14.2972C13.0544 14.2955 13.0301 14.292 13.0064 14.2858C12.9409 14.2685 12.8771 14.2457 12.8147 14.2193C12.691 14.1668 12.6476 14.1469 12.5631 14.1105C11.9858 13.8583 11.456 13.5209 10.9877 13.108C10.8621 12.9974 10.7453 12.8783 10.6249 12.7616C10.2047 12.3543 9.86071 11.9211 9.60479 11.4938C9.59082 11.4705 9.56929 11.4368 9.5461 11.3991C9.50423 11.331 9.45805 11.25 9.44357 11.1944C9.4064 11.0473 9.50501 10.9291 9.50501 10.9291C9.50501 10.9291 9.74841 10.663 9.8615 10.5183C9.9703 10.379 10.0642 10.2428 10.124 10.1457C10.2418 9.95633 10.2791 9.76062 10.2172 9.60963C9.93666 8.92565 9.6472 8.24536 9.34888 7.56894C9.29 7.43545 9.11487 7.33846 8.95561 7.32007C8.90167 7.31384 8.84777 7.30758 8.79361 7.30402C8.65955 7.29748 8.52522 7.29892 8.39134 7.30833Z" fill="#25D366"/>
</g>
</svg>
