<svg width="24" height="24" viewBox="0 0 24 24" fill="none" xmlns="http://www.w3.org/2000/svg">
<g id="Wish List">
<g id="Icon">
<mask id="mask0_29_9417" style="mask-type:alpha" maskUnits="userSpaceOnUse" x="0" y="0" width="24" height="24">
<rect id="Bounding box" width="24" height="24" fill="white"/>
</mask>
<g mask="url(#mask0_29_9417)">
<path id="Vector" d="M19.18 12.5834L11.68 20.0114L4.17999 12.5834C3.68529 12.102 3.29563 11.5234 3.03554 10.884C2.77544 10.2447 2.65055 9.55836 2.66873 8.86834C2.6869 8.17832 2.84775 7.49954 3.14115 6.87474C3.43454 6.24994 3.85412 5.69266 4.37347 5.23799C4.89283 4.78331 5.50069 4.4411 6.1588 4.23289C6.81691 4.02468 7.51099 3.95499 8.19736 4.02821C8.88372 4.10143 9.54749 4.31596 10.1469 4.65831C10.7462 5.00066 11.2682 5.46341 11.68 6.01741C12.0935 5.46743 12.6161 5.00873 13.2151 4.67001C13.8141 4.3313 14.4765 4.11986 15.1609 4.04893C15.8454 3.978 16.5371 4.04911 17.1928 4.2578C17.8485 4.46649 18.454 4.80828 18.9715 5.26177C19.4891 5.71526 19.9074 6.27069 20.2004 6.8933C20.4934 7.51591 20.6547 8.19229 20.6743 8.88012C20.6939 9.56794 20.5712 10.2524 20.3141 10.8907C20.057 11.5289 19.6709 12.1072 19.18 12.5894" stroke="black" stroke-width="2" stroke-linecap="round" stroke-linejoin="round"/>
</g>
</g>
</g>
</svg>
